<?xml version="1.0" encoding="UTF-8"?><svg id="Layer_1" xmlns="http://www.w3.org/2000/svg" width="20" height="20" viewBox="0 0 20 20"><defs><style>.cls-1{fill:#fff;}.cls-3{fill:#a8a8a8;}</style></defs><path class="cls-3" d="m0,.0223179966C.063997108.0303178706,19.9810982561-.031681143,19.9970963738.0223179966c.1999909671,15.9817464636-9.9975487814,19.9776820034-9.9975487814,19.9776820034-.0019988111,0-9.9995475925-3.9959370657-9.9995475925-19.9776820034Z"/><path class="cls-1" d="m9.9471679687,5.3814706957h-2.7015625v.6248046875l.3696289062.0616210937c.1232421875.017578125.2038085937.054296875.2419921875.1100585938.0380859375.0557617187.0572265625.1598632813.0572265625.3124023438v3.9248046875c0,.1525390625-.0162109375.258203125-.0484375.316796875-.0322265625.0586914063-.10703125.0998046875-.2243164063.1231445313l-.39609375.0704101562v.6248046875h5.5087890625v-.6248046875l-.3872070312-.0704101562c-.1173828125-.0233398438-.1935546875-.0600585938-.2288085938-.1099609375-.03515625-.0498046875-.052734375-.1509765625-.052734375-.3036132812v-3.9248046875c0-.1583984375.0189453125-.2668945313.0571289062-.3255859375.0380859375-.05859375.10703125-.0967773437.2068359375-.114453125l.4047851562-.0704101562v-.6248046875h-2.8072265625Zm.3696289062.6864257812c.1232421875.017578125.2038085938.054296875.2419921875.1100585938.0380859375.0557617187.0572265625.1598632813.0572265625.3124023438v3.9248046875c0,.1525390625-.0162109375.258203125-.0484375.316796875-.0322265625.0586914063-.10703125.0998046875-.2243164062.1231445313l-.3426635742.0609130859-.3349731445-.0609130859c-.1173828125-.0233398438-.1935546875-.0600585938-.2288085937-.1099609375-.03515625-.0498046875-.052734375-.1509765625-.052734375-.3036132812v-3.9248046875c0-.1583984375.0189453125-.2668945313.0571289062-.3255859375.0380859375-.05859375.10703125-.0967773437.2068359375-.114453125l.3530761719-.0614135742.3156738281.0526245117Z"/></svg>