<?xml version="1.0" encoding="UTF-8"?><svg id="Layer_1" xmlns="http://www.w3.org/2000/svg" width="20" height="20" viewBox="0 0 20 20"><defs><style>.cls-1{fill:#fff;}.cls-2{fill:#90a2bf;}</style></defs><path class="cls-2" d="m0,.0223179966C.063997108.0303178706,19.9810982561-.031681143,19.9970963738.0223179966c.1999909671,15.9817464636-9.9975487814,19.9776820034-9.9975487814,19.9776820034-.0019988111,0-9.9995475925-3.9959370657-9.9995475925-19.9776820034Z"/><path class="cls-1" d="m12.7163574219,6.0239511645l.43125.0791992188c.1290039063.017578125.208203125.0615234375.2375976563.1319335937.029296875.0704101562.017578125.1848632812-.0352539062.3432617188l-1.249609375,3.7047851563h-.0439453125l-1.2232421875-3.7576171875c-.052734375-.1701171875-.0630859375-.2830078125-.0307617188-.3387695313.0321289063-.0557617187.101171875-.0893554688.2068359375-.1012695313l.4575195312-.0615234375v-.6424804687h-5.2887695312v.6248046875l.3696289062.0616210937c.1232421875.017578125.2038085937.054296875.2419921875.1100585938.0380859375.0557617187.0572265625.1598632813.0572265625.3124023438v3.9248046875c0,.1525390625-.0162109375.258203125-.0484375.316796875-.0322265625.0586914063-.10703125.0998046875-.2243164063.1231445313l-.39609375.0704101562v.6248046875h2.8072265625v-.6248046875l-.3872070312-.0704101562c-.1173828125-.0233398438-.1935546875-.0600585938-.2288085937-.1099609375-.03515625-.0498046875-.052734375-.1509765625-.052734375-.3036132812v-3.9248046875c0-.1583984375.0189453125-.2668945313.0571289062-.3255859375.0380859375-.05859375.10703125-.0967773437.2068359375-.114453125l.143359375-.0249389648.1646484375.0337280273c.111328125.0235351563.1905273437.0616210938.2375976563.114453125.046875.0528320312.099609375.1642578125.1583984375.334375l1.7599609375,5.016015625h1.4520507813l1.73359375-4.9807617187c.0703125-.1936523437.12890625-.3182617188.1759765625-.3740234375.046875-.0556640625.1201171875-.0923828125.2200195313-.1100585938l.3959960938-.0703125v-.6336914062h-2.2704101563l-.0352539062.6424804687Z"/></svg>