<?xml version="1.0" encoding="UTF-8"?><svg id="Layer_1" xmlns="http://www.w3.org/2000/svg" width="20" height="20" viewBox="0 0 20 20"><defs><style>.cls-1{fill:#fff;}.cls-6{fill:#a68fbc;}</style></defs><path class="cls-6" d="m0,.0223179966C.063997108.0303178706,19.9810982561-.031681143,19.9970963738.0223179966c.1999909671,15.9817464636-9.9975487814,19.9776820034-9.9975487814,19.9776820034-.0019988111,0-9.9995475925-3.9959370657-9.9995475925-19.9776820034Z"/><path class="cls-1" d="m10.9327636719,6.0239511645l.43125.0791992188c.1290039062.017578125.208203125.0615234375.2375976563.1319335937.029296875.0704101562.017578125.1848632812-.0352539063.3432617188l-1.249609375,3.7047851563h-.0439453125l-1.2232421875-3.7576171875c-.052734375-.1701171875-.0630859375-.2830078125-.0307617188-.3387695313.0321289062-.0557617187.101171875-.0893554688.2068359375-.1012695313l.4575195312-.0615234375v-.6424804687h-2.9215820313v.6336914062l.3432617188.0703125c.111328125.0235351563.1905273437.0616210938.2375976562.114453125.046875.0528320312.099609375.1642578125.1583984375.334375l1.7599609375,5.016015625h1.4520507812l1.73359375-4.9807617187c.0703125-.1936523437.12890625-.3182617188.1759765625-.3740234375.046875-.0556640625.1201171875-.0923828125.2200195312-.1100585938l.3959960938-.0703125v-.6336914062h-2.2704101562l-.0352539063.6424804687Z"/></svg>