<?xml version="1.0" standalone="no"?>
<!DOCTYPE svg PUBLIC "-//W3C//DTD SVG 20010904//EN"
 "http://www.w3.org/TR/2001/REC-SVG-20010904/DTD/svg10.dtd">
<svg version="1.0" xmlns="http://www.w3.org/2000/svg"
 width="700.000000pt" height="700.000000pt" viewBox="0 0 700.000000 700.000000"
 preserveAspectRatio="xMidYMid meet">
<metadata>
Created by potrace 1.14, written by Peter Selinger 2001-2017
</metadata>
<g transform="translate(0.000000,700.000000) scale(0.100000,-0.100000)"
fill="#000000" stroke="none">
<path d="M3240 6989 c-1192 -90 -2244 -773 -2822 -1831 -134 -247 -265 -593
-328 -873 -179 -793 -83 -1617 274 -2335 182 -365 375 -631 675 -930 395 -394
842 -670 1361 -840 933 -308 1950 -212 2800 262 292 163 525 341 771 587 290
290 484 559 660 911 188 378 300 762 351 1205 7 61 12 220 12 355 0 249 -9
371 -45 585 -99 589 -341 1127 -728 1615 -97 123 -399 425 -521 522 -710 564
-1577 834 -2460 767z m880 -1110 l142 -230 -36 -53 c-50 -73 -156 -172 -208
-196 -41 -19 -68 -20 -505 -20 l-463 0 0 -1513 c0 -1050 3 -1531 11 -1572 21
-113 65 -166 151 -180 l39 -7 -3 -90 -3 -91 -503 -238 c-277 -132 -507 -239
-511 -239 -8 0 -86 169 -80 174 2 1 25 10 51 20 55 20 134 96 170 163 37 68
57 154 68 295 5 70 10 764 10 1616 l0 1494 70 77 c39 43 70 81 70 84 0 10
-294 8 -387 -3 -136 -15 -213 -59 -248 -142 -15 -37 -16 -38 -69 -38 l-54 0
-143 231 -142 231 19 37 c27 51 150 178 203 209 l46 27 920 5 920 5 58 23 c72
30 111 62 133 112 18 40 18 40 75 40 l57 0 142 -231z m544 -519 c89 -33 272
-277 326 -435 20 -57 20 -82 20 -1496 l0 -1438 -27 -21 c-16 -12 -93 -54 -173
-93 -80 -39 -147 -72 -149 -73 -9 -7 136 -288 194 -375 107 -161 242 -267 362
-285 l43 -6 0 -72 0 -72 -92 -66 c-286 -204 -406 -256 -481 -209 -98 60 -234
303 -397 706 -40 99 -74 183 -76 187 -3 4 -39 -6 -82 -21 -178 -66 -224 -63
-312 16 -97 87 -178 223 -227 380 l-28 88 0 1425 0 1425 130 65 c209 105 701
310 855 356 89 27 82 26 114 14z"/>
<path d="M4165 4880 c-22 -10 -48 -25 -58 -33 -16 -14 -17 -82 -15 -1328 3
-1251 4 -1316 22 -1364 37 -100 104 -154 191 -155 38 0 120 33 158 63 17 14
17 80 15 1318 -3 1432 0 1345 -62 1440 -50 75 -163 102 -251 59z"/>
</g>
</svg>
