<?xml version="1.0" encoding="UTF-8"?><svg id="Ebene_1" xmlns="http://www.w3.org/2000/svg" width="60" height="60" viewBox="0 0 60 60"><defs><style>.cls-1{fill:#fff;}</style></defs><g id="_0:_Promotional_Cards"><path class="cls-1" d="m46.5481730908,29.8101773771c-1.2277388373.7388775807-1.4992999429,2.6883977901-1.503574435,2.7098575167l-.022855448.1743820878-.1472518941.0943006688c-2.1195374825,1.3377435301-4.14913616,2.0166908985-6.0371531882,2.0166908985-3.2158138764.0013957546-5.0238368365-1.9380924687-5.4897564848-2.5154986915-.8003768532-.0271299796-1.3434990644-.2401570224-1.6121814304-.6302704274-.291537814-.4273626054-.134341183-.8690316953-.1157602272-.9190171562l.1014537635-.2616167491.2787143374.0229427159c.2501014101.0228554812.5088390392.0328002326.7689724208.0328002326,5.3396258511,0,11.2553485674-4.4234952021,11.31388294-4.4692061646l.100058011-.0758069206h.1257921986c.6703101624,0,1.4849934792.5388485025,2.2024975247,1.0134050596.2487056576.1643501018.4873793437.3229427159.684616626.4330328584.6345440033-.9247746438,1.0119205991-2.6026461181,1.1619639983-3.9676068625-2.465509646-6.9004361733-8.7098448534-11.8956673452-15.9690666341-12.8733061937,0,0-2.9299463071-.3472811864-5.8727160908.1886885723-3.3373315828.6088979354-6.5988563553,2.4411747601-8.2096420331,3.6503343995-3.0743194616,2.309624891-5.3768749973,5.4325385286-6.6631482071,9.0342832219.1500433992,1.3649607444.5288157476,3.0428322187,1.1619639983,3.9676068625.1972372823-.1100901425.4359109684-.2686827566.6831336389-.4330328584.7189870326-.4745565571,1.5335831149-1.0134050596,2.2039805118-1.0134050596l.1243092115.0014829892.100058011.0743239314c.0600173597.0457109625,5.9771358285,4.4692061646,11.3153659271,4.4692061646.2601333816,0,.5187837761-.0099447514.7689724208-.0328002326l.2786271029-.0229427159.1015409981.2616167491c.0185809558.0499854609.1757775868.4916545507-.1157602272.9190171562-.2687696005.3915963943-.8104088246.6031404478-1.6122686649.6302704274-.4673154008.5774062227-2.2753383609,2.5154986915-5.4897564848,2.5154986915-1.8865340411.0013957546-3.9175284712-.6789473684-6.0371531882-2.0166908985l-.1471646595-.0943006688-.022855448-.1743820878c-.0042744922-.0214597267-.2758355978-1.970979936-1.503574435-2.7098575167-.1772605739.7074731026-.6703101624,1.5649898226-1.8937745075,2.3254143646-.1143644746.3000872347-.4330322288,1.6892992149,2.0480923988,4.2291363769.3744978562-.0600174469,1.2306175769-.1757778424,2.1853123214-.1757778424,1.9024107264,0,3.127270824.4544925851,3.6446588475,1.3491712707.4744686326.8189589997.3043612905,1.9466414655-.5173880236,3.3702239023-.0100319715.015702239-1.0362590342,1.5936027915-1.6965372252,3.8317824949,3.5431178495,3.080081419,8.0724221105,4.773742367,12.7775039583,4.773742367,4.7064776004,0,9.2343861088-1.693660948,12.7788997108-4.773742367-.661761178-2.2381797034-1.6879010062-3.8160802559-1.7093607017-3.8503634778-.8104088246-1.4050014539-.9790331797-2.5326839197-.5059602996-3.3516429195.5173880236-.8946786857,1.7436438737-1.3491712707,3.6459673656-1.3491712707.9533862265,0,1.8095059472.1157603955,2.1839165689.1757778424,2.4826076147-2.5412329165,2.1624568734-3.9290491422,2.0466966463-4.2291363769-1.221981358-.760424542-1.715118181-1.617941262-1.8922915204-2.3254143646Zm-13.6250746946,10.204885141l-.0071532318.0985751672-.0557428675.0828729282c-.4502174321.6689153824-1.6564965739,2.5426286711-1.8179676971,3.165833091l-.7346892488-.0572259378c-.0371619117-.3715324222-.0700493311-1.0175923234-.111485735-1.8365513231-.0485896357-.9347193952-.1100027479-2.1038383251-.1957542952-3.1844140739-.0857515473,1.0819715033-.1472518941,2.2539691771-.1958415297,3.1901715615-.0414364038.8145972666-.0743238233,1.4592614132-.111485735,1.8307938354l-.7346020142.0572259378c-.1615583577-.6232044199-1.3678374995-2.4969177086-1.8180549316-3.165833091l-.0557428675-.0828729282-.0071532318-.0985751672c-.245826918-3.2830764757,2.2454169156-7.0033730736,2.3526281584-7.1591741785l.4687111534-.6946496074.1015409981.4087816226.1028495161-.4072986333.4687983879.6931666182c.1058154902.155801105,2.5969720893,3.8760977028,2.3511451714,7.1591741785Z"/><path class="cls-1" d="m30.0000436173,0C13.4578460921,0,0,13.457778424,0,30c0,16.5421343414,13.4578460921,30,30.0000436173,30,16.5421102906,0,29.9999563827-13.4578656586,29.9999563827-30C60,13.457778424,46.5421539079,0,30.0000436173,0Zm0,58.9694969468c-15.9747368788,0-28.9709378149-12.9962198313-28.9709378149-28.9694969468C1.0291058024,14.0252398953,14.0253067384,1.029020064,30.0000436173,1.029020064c15.9746496443,0,28.9708505803,12.9962198313,28.9708505803,28.970979936,0,15.9732771154-12.996200936,28.9694969468-28.9708505803,28.9694969468Z"/><path class="cls-1" d="m30.0000436173,1.7602209945C14.4283302874,1.7602209945,1.7623120641,14.4291363769,1.7623120641,29.9993893574s12.6660182233,28.2391683629,28.2377315532,28.2391683629c15.5716260953,0,28.2391273057-12.6689153824,28.2391273057-28.2391683629S45.5716697126,1.7602209945,30.0000436173,1.7602209945Zm25.0849882451,35.619656877l-3.8992092189,1.3949694679,1.7745248989,3.7504797906c-.7553638334,1.3789182902-1.6372177418,2.677842396-2.6194785992,3.8923233498l-4.1257573048-.2032567607.2031692306,4.1258505379c-1.2147408916.9823495202-2.5135758744,1.8642047107-3.8926666289,2.6195696423l-3.7500381651-1.7743530096-1.3947929706,3.8988659494c-1.4822019741.4369584181-3.0141276328.7562372783-4.5920258912.9242512358l-2.7887135959-3.0778133178-2.7888008305,3.0777260832c-1.5779854929-.1680139575-3.1097366826-.487205583-4.5919386567-.9241640012l-1.3947929706-3.8988659494-3.7500381651,1.7744402443c-1.3790907544-.7553649317-2.6780129718-1.6372201221-3.8926666289-2.6195696423l.2031692306-4.1259377726-4.1258445393.2032567607c-.9819991538-1.2142192498-1.8635913585-2.5126199477-2.6187807229-3.8911892992l1.7737397881-3.7516138412-3.8991219844-1.3948822332c-.4368705483-1.4820296598-.7560617097-3.0136958418-.924075423-4.5915091596l3.077808843-2.7888921198-3.0778960775-2.7888921198c.1680137133-1.5779005525.4873793437-3.1097412038.9243371266-4.5918580983l3.8989475153-1.3948822332-1.7736525536-3.7511776679c.7552765989-1.3786565862,1.6369560382-2.6771445188,2.6190424265-3.8914510032l4.1254956012.203169526-.2031692306-4.125588834c1.2146536571-.9823495202,2.5134886399-1.8642047107,3.8925793943-2.619656877l3.7501253996,1.7743530096,1.3948802052-3.8990404187c1.4822019741-.4369584181,3.0139531638-.7561500436,4.5918514221-.9242512358l2.7888008305,3.0777260832,2.7887135959-3.0778133178c1.5778982584.1680139575,3.1097366826.4873800523,4.5919386567.9243384705l1.3948802052,3.8990404187,3.7501253996-1.7743530096c1.3790907544.7553649317,2.6779257372,1.6372201221,3.8925793943,2.619656877l-.2031692306,4.125588834,4.1254083667-.203169526c.9822608574,1.2146554231,1.8642892348,2.5134922943,2.6196530683,3.8924978191l-1.7743504298,3.750130852,3.8990347499,1.3948822332c.4369577828,1.4822041291.7563234133,3.0140447805.9243371266,4.5920325676l-3.0777216084,2.7887176505,3.0777216084,2.7887176505c-.1680137133,1.5779005525-.4872921092,3.1095667345-.9241626575,4.5915963943Z"/></g></svg>