<?xml version="1.0" encoding="UTF-8"?><svg id="Ebene_1" xmlns="http://www.w3.org/2000/svg" width="60" height="60" viewBox="0 0 60 60"><defs><style>.cls-1{fill:#fff;}</style></defs><path id="_1:_A_Mirror_in_the_Dark" class="cls-1" d="m29.9992778546,0C13.4321238005,0,0,13.4310465817,0,30c0,16.5689971858,13.4321238005,30,29.9992778546,30,16.5685764617,0,30.0007221454-13.4310028142,30.0007221454-30C60,13.4310465817,46.5678543163,0,29.9992778546,0m-11.2852292082,49.4574295964c1.4986705959-3.211129769,6.3403274455-3.0088804142,8.6750892652-5.6033269092,1.6119817786-1.7898258202-1.4083148846-3.5839846172-1.2692034152-5.5401704888.0760222187-.8590673741.896335659-1.5116399515.0688445308-2.2043472742-.3843564335-.3542536849-.884868865-.5579035978-.884868865-.5579035978,1.2677810076-1.40690446.1921782167-2.4638882121.1921782167-2.4638882121-.4560676628.0243784658-2.0579831718-1.1573862667-2.0579831718-1.1573862667-.5923124337-.5320808064.3900898305-1.5904651166.3900898305-1.5904651166,1.994872038-1.7669354474.9178468395-3.11217158.9178468395-3.11217158-.4474675673-.4044549421-2.5412954122-.7816427672-2.5412954122-.7816427672-4.4343449448-.8648009092-5.7709704832-3.110683487-5.7709704832-3.110683487-.6324462129-3.059125439-2.1626723757-5.5402142562-3.9166323222-7.4878217089,4.1245883224-5.088446708,10.4218715238-8.3440004318,17.482134195-8.3440004318,7.1032850323,0,13.4321238005,3.294287911,17.5538454244,8.4343364345-1.719537681,1.934696057-3.2124748799,4.3842723152-3.8348985896,7.3974857063,0,0-1.3366036552,2.2458825778-5.7723928909,3.110683487,0,0-2.0924054372.3771878251-2.5398511213.7816427672,0,0-1.0770470817,1.3452361327.9178468395,3.11217158,0,0,.982380381,1.0583843102.3900679473,1.5904651166,0,0-1.601915509,1.1817647325-2.0579831718,1.1573862667,0,0-1.0756027908,1.0569837521.1907558091,2.4638882121,0,0-.4990900238.203649913-.8834464573.5579035978-.8274911282.6927073227-.0086000956,1.3452799001.0688445308,2.2043472742.1391114693,1.9561858716-2.8811851938,3.7503446686-1.2692034152,5.5401704888,2.3175616285,2.5758015642,7.1047074399,2.3965301171,8.6392445921,5.5359250468-3.3429862537,1.9719859186-7.2395298031,3.1063942776-11.4028294971,3.1063942776-4.114543936,0-7.9666427167-1.1100298932-11.2852292082-3.0389924151m40.2103485628-19.4574295964c0,.3155194977-.0057552802.6310389953-.0143553758.9451579348-.0114667941.3155194977-.0258221699.6295946697-.0458890595.9451141674-.0215111805.314075172-.0458890595.6295946697-.0774446264.9422255161-.030111276.314075172-.0659778323.6281941115-.1061334948.9408249579l-.8891579711-.1161587941-.8891579711-.1161587941-.8891798543-.1147582359c.0372889639-.2839631712.0688445308-.5693706679.0960891084-.8533338391.0286888684-.2854074968.0516443397-.5707712261.0702888217-.8561787229l.8948913682.057379118c-.0200668896.2954302413-.043022361.5908604825-.0717112294.8848463982l.8920465528.0874911189c.030111276-.3040524276.0544891551-.6095054133.0745779279-.9150021665.0186225988-.3040524276.0329779746-.6095054133.043022361-.9150021665l-.8949132514-.0286676753-.896335659-.0286676753-.896335659-.0287114427c-.0100443864.2753847523-.0229335882.5521700628-.0401556625.8275110476-.018644482.2768290779-.0401556625.5521700628-.06740024.8275110476-.0272445775.2753847523-.0573558536.5507257372-.0932224099.8246661638-.0358446731.2739404267-.0760003355.5478370859-.1204669874.820333187-.0458890595.2724961011-.0946448175.5449922021-.1477115649.8160439775-.0544891551.2710517754-.1118668918.5407029927-.1749780256.8103104425-.0616668429.2682068916-.1290670829.5363700158-.2007783123.8031325818l.866224383.2323613557.866224383.2308732626.866224383.2323613557c.0803113249-.2954302413.1534449619-.5923048081.2222894928-.8906237007.0702669385-.2983188925.1333780723-.596637785.1936006244-.8963572357l-.8791135847-.1749822377c-.0588001444.2911410318-.1204669874.580837738-.1878891106.8691338861l-.8733801877-.203649913c.0659778323-.2782296361.1247779768-.5579035978.1806895395-.8390218852.0559334459-.2810745199.1075777856-.5621928073.1534668451-.8447116528l.884868865.1448264694.8848469818.1448702368.884868865.1448702368c-.0516224565.3111865208-.1075559024.622416809-.1692227454.9322027716-.0602444353.3097859626-.1276446753.6181275996-.1993559046.9264692366-.0702669385.3068973114-.1477115649.6138383902-.2294671807.9192913759-.0803113249.3040524276-.1677784545.6081048551-.2595784567.9092686314-.0903338281.3026081019-.1878672274.6037718783-.2882454419.9020907708-.1018225054.2997632181-.2079560002.596637785-.319822892.8920680263-.110422601.2954302413-.2280228898.5894599243-.3484898772.8805571887l-.8274911282-.3427428473-.828935419-.3441871729-.828935419-.3427866147c.110422601-.2638739147.2151118049-.5306364807.3155119026-.7988433724.1018225054-.266762566.1979116138-.5363700158.2896897328-.8088661169l.8490241919.2896967062c-.0946667007.2796739617-.1950449153.5579035978-.2983117115.8346889083l.8389798055.3169638233c.1075559024-.2854074968.2108008155-.575104203.3097566224-.8633565836.0975333992-.2897404737.1907558091-.5822820637.2796672295-.8748674211l-.8576242874-.2595847053-.8590466951-.2595847053-.8576024042-.2610290309c-.0803113249.2653182404-.1649336392.5277915969-.2538450597.7902649535-.0889114205.2609852635-.1821338303.5220142944-.2796672295.7801546741-.0960891084.2581841471-.1993340214.5148802012-.3040232254.7701756971-.1061334948.2552517284-.2165560958.5091028987-.3298672784.7615535108-.1147117071.250962519-.232311996.5005244799-.3556456819.7485983476-.1219112782.2481176352-.2495559535.4933903866-.3786230364.737175045-.1319337815.2438284258-.2653118538.4847682003-.4044233231.7242636492l.7758686717.4488788969.7772910793.45036699.7758686717.4488788969c.1534668451-.2653182404.30117841-.5320808064.4460232764-.8016882562.1448448664-.2696512172.2854006266-.5421473183.4202011066-.8160439775l-.80455754-.3972770815c-.1304894906.2653182404-.2667342614.5277915969-.4058457308.7902211861l-.7902240474-.4245004311c.1348223632-.2524068446.265333737-.5062580149.392956529-.7629978364.1262003844-.2566960541.2481116627-.5148802012.3671343592-.7758654647l.8160243341.3700099644.817468625.37145429.8160243341.3700099644c-.1305113738.2882523806-.2653118538.5722155517-.4044233231.8561787229-.1405557602.2839631712-.2854006266.5636371329-.4345564823.841866769-.1491339726.2782296361-.3011565268.5536143884-.460356769.8275110476-.1577559513.2724961011-.3212452997.5435478765-.4876013465.8117547681-.1663560469.266762566-.3370230831.5320808064-.5134235164.7945103955-.1749561424.2624733566-.3556675651.5220580619-.5392238031.7773535578-.1835781212.2566960541-.3728896394.5105472243-.5650678561.7601091852l-.7098908393-.5464365277-.7113351302-.5463927603-.7113351302-.5464365277c.1749780256-.2265840532.3456450619-.4560567576.5120011087-.6898186715.1677784545-.2323613557.3298453952-.4675675952.4890456374-.7056187185l.7457355124.4990801542c-.164911756.2466733096-.3327120937.4890574098-.5062458285.7299971843l.7285353213.5234586201c.1778447241-.2481176352.3528008666-.5005244799.522023612-.7543756501.1706670363-.2538511703.3370230831-.5105472243.4990900238-.7701319297l-.7615351791-.4747016884-.7615132959-.4733011302-.7600908882-.4747016884c-.1462891572.2352062395-.2968674207.4661232695-.4503342658.6969965322-.1534449619.2294727044-.3126233209.4560567576-.473267854.6812402526-.1606226498.2237391694-.3255344059.4460340131-.4947571512.6654402056-.1678003377.21944996-.3398897816.4360112687-.5148678073.6496839261-.1764004333.2137164249-.3556675651.4245441986-.5378013954.632483321s-.36857865.413033361-.5564458774.6138383902c-.1893115182.2022055874-.3829121426.4001219653-.5779570579.5965940176l.6353347946.6339276466.6338905038.6338838791.6338686206.6338838791c.2151336881-.2165175413.4288230853-.4359675012.6367572023-.658262345.209400291-.2237391694.4144677095-.4503232226.6166903127-.679795927l-.6740461662-.5908604825c-.1950449153.2222948438-.3943789367.4417010363-.5966015398.6568180193l-.6539573934-.6123940646c.1950230321-.209383448.3872012488-.4216117799.576512767-.6367725304.1893115182-.2151169831.3743120471-.4331226174.5564458774-.6539731355l.6926906482.5693706679.6926906482.5693706679.6926906482.5693706679c-.1993559046.2437846583-.4044233231.4833238747-.6123793233.7199306724-.2079560002.2380948907-.4202011066.4718568046-.6353347946.701329509-.2165560957.2309170301-.43597889.4575010832-.6582683828.6812402526-.2237119004.2222948438-.4503123826.4417010363-.6797795633.6568180193-.2308895883.2165613087-.4646458752.4273890824-.7012907438.6353719722-.2366229854.2079391224-.4775569601.413033361-.7213576334.6123940646-.2438225565.2007612617-.4904899283.397233314-.7400239986.5894161569l-.5478457818-.7113522535-.5449572001-.7099079279-.5478457818-.7113522535c.2280228898-.1749384703.4517566735-.3528093592.6726018754-.5349256902.2222894928-.1807157728.4402898794-.3671650806.6554016843-.5550149466l.5908681428.6726180663c-.2222894928.1964720523-.4474456841.3886548952-.6769128648.575104203l.5693569623.6941078809c.2366229854-.1950277267.4689568646-.3929441046.6998464529-.5937491338.2294671807-.2022055874.4560676628-.407299826.6783571556-.616683274l-.6123793233-.6554174612-.613801731-.6539731355-.6138236142-.6539731355c-.2007783123.1892941916-.4058457308.3742991738-.613801731.5579035978-.2079560002.1821163309-.417334408.3613877781-.6324680961.5363700158-.2122451064.1763827959-.4302236098.3484763824-.6482239964.5162807594-.2194227943.167804377-.441712287.3327201028-.6668684784.4947909448-.2237337836.1606265164-.4517566735.3184081489-.6812238541.4718568046-.2294452975.1548929813-.4617791767.3040524276-.6969797544.4503232226-.2337781701.146270795-.4704011554.2882523806-.7098908393.4273890824l.4488680917.7758654647.4488899749.7759092322.4488899749.7758654647c.2653118538-.1534486557.5263346013-.3097421952.7859130581-.4718130372s.5177126226-.3269865678.7715576823-.4976795961l-.4990900238-.7457534638c-.2466673718.1649157258-.4947790344.3255422421-.7457355124.4818795491v.0014443256l-.4747121448-.7615535108c.2423782656-.1520480975.4833122404-.3068973114.7213795166-.4661232695.2380672762-.1591821907.473267854-.3226535909.7056017331-.4890574098l.5234460196.7285966261.522023612.7285528587.5234679028.7285528587c-.2567117582.1835606566-.5162902149.3628321037-.7787353702.539258667-.2610227476.1749384703-.5263346013.3470320567-.7945131536.5134358756-.2681785523.1663600514-.5378013954.3298314516-.8117133447.4876130841-.2724895417.1577378651-.5492900727.3111865208-.8275130114.460345967-.2767786478.1491594463-.5578682851.2940296831-.8418246208.4331226174-.2825339281.1391367018-.5679345547.2753847523-.8547575889.4058555003-.2882673251.1305145155-.5779570579.2552954959-.8690910815.3757872669l-.3441788878-.8275110476-.3427564802-.8275548151-.344200771-.8289116058c.2653118538-.1090247009.527757009-.2237391694.7873354657-.3413422891h.0014442909c.2595784567-.1190474454.5191569134-.2409397745.7758686717-.3686094062l.3972456352.8045769074h-.0014224077c-.2653118538.1305145155-.5320679984.2581403797-.8016908415.3800764763l.3700010577.8160439775c.2796672296-.126225306.5550234697-.2567398215.8303797099-.392987872.2739119493-.1348037249.5449572001-.2753409849.8145800433-.4187668961l-.4230678051-.7916655117-.4230678051-.7902211861-.4230678051-.7902211861c-.2438006733.1305145155-.4904680451.2566960541-.7385797077.3800327089-.2466673718.1219360966-.497645733.2395392164-.7486240941.3542536849s-.5048234209.2237391694-.7600908882.329875219c-.2552674673.1060922822-.5119792256.2079391224-.7701352746.3054529857h-.0014224077c-.2581560491.0975138633-.5177345058.1907385172-.780179661.2796739617-.2610227476.0874911189-.5248903105.1735379121-.7887797566.2524068446-.2653118538.0803132582-.5306237075.1563373069-.7973798521.2280283788l.2308895883.8662452348.2323338792.8662452348.2309114715.8662452348c.2954231298-.0788689326.5908462596-.1635151676.8834245741-.2510062865.2925564313-.088891677.5836904549-.1835606566.8733801877-.2810745199l-.2882673251-.8490446297c-.2796453464.0946689795-.5621792744.1850049822-.8461356102.2710517754l-.2595784567-.8576230485c.2739338325-.083158142.546401491-.1706492608.817468625-.2624295891.2710452508-.0918240957.5406680939-.1878936334.8088466462-.2897404737l.3155119026.8390218852.3155119026.8404224434.3169343103.8375337921c-.2954231298.1118695847-.5937348413.2180056343-.8920246697.3198524745-.2997341192.1018030728-.5994682384.1979163779-.9020690561.2896967062s-.6052016354.1778271215-.9106910348.2595847053c-.3054675162.0817138164-.6123574401.1577378651-.9192692472.2294727044-.3083342147.0716910719-.6166903127.1376486087-.9264469351.1993169361-.3083560979.0602677692-.6195570112.1176031197-.9307579245.167804377-.3112227965.0516455829-.6238461174.0975138633-.9364913215.1376923761l-.1161778812-.889179375-.116155998-.889179375-.1161778812-.8892231425c.2839782189-.0372898616.5664902638-.0788689326.8490241919-.124737213.2839563357-.0459120479.5650459729-.0975576308.8446913193-.1520480975l.1749780256.8791566305c-.2911340236.057379118-.5822680473.1104252591-.8748244785.1577378651l.1448448664.8848901656c.3026008177-.0487569317.6037792277-.1032473984.9035133469-.1634714002.3011565268-.0588234436.5994682384-.1233366548.8977580667-.1921828429l-.2036450108-.8734230955-.20220072-.8734230955-.203666894-.8733793281c-.2681785523.063112653-.5392238031.1204480035-.8102690539.1735379121-.271067134.0530461411-.5435566756.1032473984-.8160243341.1477151206-.2724895417.0444677222-.5449790833.0846024676-.8203353235.1204480035-.2739119493.0358455359-.5492681895.0674018625-.823202022.0932246539-.2753562402.0287114427-.5506905972.0502012573-.8274911282.0674018624-.2767786478.0186449308-.552134888.0315563265-.828935419.0401785128-.2767786478.0085784189-.5535791789.0143119539-.8303578267.0143119539v2.6890717071c.3054675162,0,.6123793233-.0042892094.9164025487-.0143119539.3069118071-.0100665119.6109569156-.0243784658.9164244319-.0444677222l-.0573558536-.8949129101c-.295445013.0186449308-.5908681428.0344012103-.8877355635.0430233966l-.0286888684-.8963572357c.2868230343-.0086221863.5722236608-.0229341402.8576242874-.041579071.2853787434-.0186449308.57077937-.0416228384.8561799966-.0688461881l.0874671296.8920242588.086044722.8935123519.0874890128.8920680263c-.3140676118.0301120009-.6281571068.0558910249-.9436690094.0759802813-.3140676118.0200892564-.6295795144.0358455359-.9436471262.0459120479-.3155119026.0100227445-.6310238053.0157562795-.9465357079.0157562795-.3140676118,0-.6295795144-.0057335351-.9436690094-.0157562795-.3155119026-.0100665119-.6310238053-.0258227915-.945091417-.0459120479-.3155119026-.0200892564-.6295795144-.0458682804-.9436690094-.0759802813-.3140676118-.0301557683-.6267128159-.0660013043-.9407804277-.1075803753l.116155998-.889179375.1161778812-.889179375.116155998-.8892231425c.2839563357.0372898616.5679126715.0702905137.8533132981.0975576308.2839563357.0272233496.5693569623.0502012573.8547357057.0688461881l-.0573558536.8949129101c-.2954231298-.0186449308-.589423852-.0430233966-.884868865-.0717348393l-.086044722.8935123519c.3040451086.0301120009.6080683339.0530461411.9135577333.0731353975.3054675162.0200892564.6109350324.0344012103.9164025487.0444677222l.0286888684-.8963572357.0286669852-.8963572357.0286888684-.8963572357c-.2767786478-.0086221863-.5535791789-.021533582-.828935419-.0401785128-.2767786478-.0172006052-.552134888-.0386904197-.8274911282-.0674018624-.2753562402-.0258227915-.5492681895-.057379118-.823202022-.0932246539-.2739119493-.0358455359-.5478238986-.0759802813-.8203134403-.1204480035-.2739338325-.0444677222-.5449790833-.0946689795-.8160243341-.1477151206-.2710452508-.0530899085-.5421123848-.1104252591-.8102909371-.1735379121-.2696228431-.063112653-.5378013954-.1290701898-.80455754-.2008050292l-.2308895883.8662452348-.2323338792.8662452348-.2323338792.8662452348c.295445013.0788689326.5937348413.1520043301.890602262.2222948438.2983117115.0688461881.5980458307.1333593993.8977799499.1921828429l.1735337348-.8791566305c-.289711616-.057379118-.5794013487-.1190474454-.8676686738-.1864493078l.2022226032-.8734230955c.2796453464.0645569786.5593125759.1247809804.8389579223.1807157728.2811115204.0544904667.5636235653.1061360496.8461574934.1520480975l-.1462891572.8848463982-.1448448664.8848901656-.1448448664.8848901656c-.3112227965-.0502012573-.6209794189-.1075366078-.9322022153-.167804377-.3083342147-.0616683274-.6181127203-.1276258642-.9250026442-.1993169361-.3083560979-.0717348393-.6138236142-.1477588881-.9192911304-.2294727044-.3054675162-.0817575838-.6080683339-.167804377-.9106691516-.2595847053s-.6023349369-.1878936334-.9020690561-.2896967062c-.2997341192-.1018468402-.5966015398-.2079828898-.8920465528-.3198524745-.2954231298-.1104252591-.5880014443-.2265840532-.8805578756-.3484763824l.344200771-.8275110476.3427564802-.8275548151.3427564802-.8289116058c.2653118538.1089809334.5306237075.2151169831.7988022598.3154757302.2682004355.1018468402.5378013954.1979163779.8088685294.2897404737l-.2882673251.8490008622c-.2810896372-.0960695377-.5593125759-.1950277267-.8360912237-.2997194507l-.3155119026.8404224434c.2853787434.1061360496.5736460685.2108277737.8633358013.308341637.289711616.0975138633.5808237564.1921828429.8734020709.2810745199l.2595784567-.8590673741.2610008644-.8576230485.2595784567-.8590673741c-.2638675629-.0788689326-.527757009-.1649157258-.7887797566-.2524068446-.2624451552-.0889354445-.522023612-.1821600984-.7801577778-.2796739617-.2595784567-.0975138633-.5162902149-.1993607035-.7715576823-.3054529857-.2552893505-.1061360496-.5091344102-.2151607505-.7601127714-.329875219-.2524007688-.1147144685-.5019348391-.2323175882-.7500465018-.3542536849-.2481116626-.1233366548-.4933347436-.2495181934-.7371354169-.3800327089-.2423782656-.1305145155-.4847565312-.2653182404-.7242462151-.4030106165l-.4488899749.7758654647-.4488899749.7759092322-.4488680917.7758654647c.2638675629.1534924231.5320679984.3026081019.8016689583.4474783388.2696228431.1434259112.5406680939.2839631712.8160243341.4187668961l.3958232276-.8031325818c-.2653118538-.1305145155-.527757009-.266762566-.7887797566-.407299826l.4230896883-.7902211861c.2524007688.1348037249.5062458285.266762566.7643799944.3929441046.2552893505.1276696317.5148678073.2495619608.774446264.3686094062l-.3700229409.8160439775-.3700010577.8160439775-.3714453485.8174445357c-.2868230343-.130470748-.5722236608-.2667187986-.8561799966-.4058555003-.2825120449-.1390929343-.5621792744-.2839631712-.8404022131-.4331226174-.2796453464-.1491594463-.5550015865-.3026081019-.8274911282-.460345967-.2739119493-.1577816326-.5435347925-.3212530327-.8117133447-.4876130841-.2682004355-.1664038189-.5335122892-.3384974053-.7945131536-.5134358756-.2638894461-.1764265633-.5220454952-.3556980105-.7787353702-.539258667-.2567117582-.1850049822-.5091344102-.3728986156-.7601127714-.5650814585l.5464233742-.7113522535.546401491-.7099079279.546401491-.7113522535c.2266004822.1735379121.4574900705.3442309404.6898239497.51199155.2323338792.1664038189.4675344569.329875219.7056017331.4890574098l-.4990900238.7443529056c-.2452449641-.1635151676-.4890456374-.3327201028-.7299796122-.5048136893l-.522023612.7285528587c.2481116626.1778271215.4990900238.3528093592.7529350835.5220142944.2538231765.1706930283.5119792256.3356087541.7701133914.4976795961l.4747121448-.7601091852.4746902616-.7615535108.473267854-.7615535108c-.2337562869-.146270795-.4660901661-.2954302413-.6955573467-.4503232226-.2294671807-.1534486557-.4574900705-.3112302882-.6812019709-.4718568046-.2251780745-.162070842-.4474675673-.3269865678-.6668903615-.4947909448s-.43597889-.3398979635-.6496682872-.5162807594c-.213667514-.1749822377-.4230678051-.3542536849-.6310019221-.5363700158-.2079560002-.183604424-.4130453019-.3686094062-.6152460218-.5579035978-.2022226032-.1878936334-.4001342169-.3814770345-.5951791322-.5765485286l-.6353129115.6339276466-.6338905038.6338838791-.6338905038.6338838791c.2165560957.2165613087.43597889.428833408.6597126737.638216856.2222894928.209383448.4488680917.4144776866.6783352724.616683274l.5923124337-.6754629501c-.222311376-.1950714941-.4417341702-.392987872-.658290266-.5951934594l.6138236142-.6554174612c.2079560002.1964720523.4202011066.3886548952.6353129115.5779928542.2151336881.187849866.4331121915.3742991738.6554016843.5550149466l-.5693350791.6927073227-.5693569623.6941078809-.5693569623.6913067646c-.2438006733-.1993607035-.484734648-.4044549421-.7213795166-.6123940646-.2366229854-.2079828898-.4703792722-.4188106635-.7012907438-.6353719722-.2294671807-.2151169831-.4560457796-.4345231756-.6797795633-.6568180193-.2222894928-.2237391694-.441712287-.4503232226-.6582683828-.6812402526-.2151118049-.2294727044-.4273787945-.4632346183-.6353129114-.701329509-.2079560002-.2366067977-.4130453019-.476146014-.6123793233-.7199306724-.2007783123-.2438284258-.3972675184-.491946061-.589423852-.7414642544l.711313247-.5464365277.7113351302-.5463927603.7113351302-.5464365277c.1735337348.2265840532.3528008666.4517675482.533490406.6726180663.1821557135.2208505181.3671562424.4388561525.5564458774.6539731355l-.6740242831.5923485756c-.1950449153-.2237391694-.387223132-.4489226644-.5750903594-.6769510432l-.6926906482.5693706679c.1936006244.2352062395.3915122382.4689681533.5937348413.6984408578.20220072.2294727044.4072900216.4560567576.6166684295.679795927l.6539573934-.6138383902.6539792766-.6123940646.6539573934-.6137946227c-.189289635-.2008050292-.3743120471-.4058992678-.5564458774-.6138383902s-.3614009621-.4187668961-.5378013954-.632483321c-.1749561424-.2136726575-.3470455863-.4302339662-.5148459241-.6496839261-.1692227454-.2194061925-.3341563846-.4417010363-.4947790344-.6654402056-.1620669407-.225183495-.319822892-.4517675482-.473267854-.6812402526-.1534449619-.2308732626-.3040451086-.4617902927-.4503123826-.6969965322-.1448448664-.2352062395-.2882673251-.4718568046-.4273787945-.7113522535l-.7744243808.4488788969-.7773129625.45036699-.7758686717.4488788969c.1534668451.2638739147.3112009133.5263472713.4718454463.7859319766.1620450575.2595847053.3284011044.5162807594.497645733.7701319297l.7457355124-.4990801542c-.164911756-.245228984-.3255344059-.4933466192-.4818679495-.7457534638l.7615351791-.4733011302c.1505782634.2423841002.3054675162.4833238747.4660901661.721374998.159178359.2366505651.3212452997.4718568046.4890456374.7042181603l-.7285572045.5234586201-.7285353213.5234586201-.7285353213.5220580619c-.1850005288-.2552954959-.3642676606-.5148802012-.5392456863-.7773535578-.1764004333-.2624295891-.3470455863-.5277478295-.5134235164-.7945103955-.1677784545-.2682068916-.3298453952-.539258667-.4876013465-.8117547681-.159178359-.2738966592-.3112009133-.5492814115-.4617791767-.8275110476-.1477334481-.2782296361-.2925783145-.5579035978-.4316897838-.841866769-.140533877-.2839631712-.2753562402-.5679263423-.4058457308-.8561787229-.1305113738-.2868518224-.2567117582-.5765485286-.3771787456-.8676895604l.8274911282-.3441871729.828935419-.3441871729.8274911282-.3427866147c.110422601.2638739147.2237337836.5263472713.3427564802.7873763023.1176002889.2609852635.2409339748.5191694106.3671343592.7758654647l-.8031132492.3972770815c-.1319337815-.2653182404-.2581341659-.533525132-.3814678518-.8031325818l-.8160243341.37145429c.1262003844.2782296361.2581341659.5550149466.3929346458.8289553733.1348223632.2738966592.2753562402.5463927603.4202011066.8160439775l.7902240474-.4230998729.7902021642-.4245004311.7902021642-.4230998729c-.1290670829-.2437846583-.256689875-.4890574098-.3786011532-.737175045-.1233336859-.2480738678-.2409339748-.4976358286-.3556675651-.7485983476-.1147335903-.2524506121-.2237337836-.5063017824-.3298453952-.7615535108-.1061334948-.2552954959-.2079560002-.51199155-.3054675162-.7701756971-.0960891084-.2581403797-.1893115182-.5191694106-.2782229387-.7801546741-.0889333037-.2624733566-.1735337348-.5249467131-.2538450597-.7902649535-.0803113249-.2638739147-.1563335437-.5291921551-.2266004822-.7959547211l-.866224383.2309170301-.8676467906.2308732626-.866224383.2323613557c.0803113249.2954302413.1634893484.5894161569.252422652.8820015144.0889114205.2925853575.1821338303.5851269475.2796453464.8748674211l.8490023087-.288296148c-.0946448175-.2810745199-.1850005288-.5621928073-.2710452508-.8461559784l.8590466951-.2595847053c.0831780234.2739404267.1706670362.5464365277.2624451552.8174883032.0918000022.2710517754.1878891106.5406592252.2882673251.8074217912l-.8389798055.3169638233-.8389579223.3155194977-.8389798055.3155194977c-.1118450086-.2954302413-.2179785034-.5923048081-.3198010088-.8920680263-.1004000977-.2983188925-.1979116138-.5994826688-.2896897328-.9020907708-.0903557113-.3011637763-.1778447241-.6052162039-.2595784567-.9092686314-.0817556158-.3054529857-.1577559513-.6123940646-.2294671807-.9192913759-.0702669385-.308341637-.1376890617-.616683274-.1993559046-.9264692366-.0602225521-.3097859626-.116155998-.6210162509-.1677784545-.9322027716-.0502000489-.3112302882-.0960891084-.6224605765-.1376890617-.9365357485l.8891579711-.1161587941.8891798543-.1161587941.8891579711-.1147582359c.0372889639.282562613.0788889173.5665257841.1247779768.8490446297s.097511516.5636371329.1534449619.8447116528l-.8805578756.1735379121c-.0573558536-.2896967062-.110422601-.580837738-.1577559513-.8734230955l-.884868865.1448702368c.0487776412.3026081019.1046892039.6023713201.1634893484.9035350964.0602444353.2997194507.1233336859.5980383432.1921782167.8963572357l.8734020709-.2022055874.8748244785-.203649913.8733801877-.2022493548c-.0631111338-.2696074498-.1204669874-.539258667-.1749561424-.8103104425-.0530667474-.2710517754-.1032667963-.5435478765-.1477334481-.8160439775-.0444447686-.272496101-.0846004311-.5463927603-.1204669874-.820333187-.0358446731-.2739404267-.0659559491-.5492814115-.0932005267-.8246661638-.0272664607-.2753409849-.0487776412-.5506819697-.0674221232-.826066722-.0172001911-.2767853105-.0315336837-.5521700628-.0401556625-.8289553733-.0086000956-.2767853105-.0128892017-.553570621-.0128892017-.8303996989H1.9719384499c0,.3054967532.005733397.6109935064.0143334926.9164464921.0114886773.3054967532.024377879.6109497389.0444666518.9150021665l.8948913682-.0573353505c-.018644482-.2954740087-.0329779746-.59090425-.043022361-.8863344912l.896335659-.0286676753c.0100443864.2853637293.0229554713.5722155517.0415999533.8576230485s.0415780701.5707712261.0688445308.8561787229l-.8920465529.0860467932-.8920246697.0874911189-.8934689605.0860467932c-.030111276-.3126308464-.0544891551-.6281503441-.0760003355-.9422255161-.0200887728-.3155194977-.0344222654-.6295946697-.0459109427-.9451141674-.0100225032-.3141189395-.0143334926-.6296384372-.0143334926-.9451579348,0-.3154757302.0043109894-.6295946697.0143334926-.9451141674.0114886773-.3155194977.0258221699-.6295946697.0459109427-.9451141674.0215111805-.314075172.0458890595-.6281503441.0760003355-.9422255161.0315555669-.314075172.06740024-.6281941115.1075559024-.9408249579l.8891579711.1161587941.8891798543.1147582359.8891579711.1176031197c-.0372889639.2825188455-.0688445308.5679263423-.097511516.8518895135-.0272664607.2854074968-.0502000489.5707712261-.0688445308.8561787229l-.8949132514-.057379118c.018644482-.2954302413.0430442442-.5908604825.0717112294-.8848463982l-.8920246697-.0874911189c-.030111276.3040524276-.0545110382.6095054133-.0745779279.9150021665-.0200887728.3040524276-.0329779746.6095054133-.0444666518.9150021665l.896335659.0286676753.896335659.0286676753.896335659.0287114427c.0086219788-.2753847523.0229554713-.5521700628.0401556625-.8289553733.018644482-.2753847523.0401556625-.5507257372.0674221232-.826066722.0272445775-.2753847523.0573558536-.5507257372.0932005267-.8246661638.0358665563-.2739404267.0760222187-.5464365277.1204669874-.820333187.0444666518-.2724961011.0946667007-.5435478765.1477334481-.8160439775.0544891551-.2710517754.1118450086-.5407029927.1749561424-.8103104425.0616668429-.2682068916.1290670829-.5363700158.2007783123-.8045769074l-.866224383-.2309170301-.8676467906-.2308732626-.866224383-.2323613557c-.0788670341.2954302413-.1520225543.5923048081-.2222894928.8906237007-.0688445308.2983188925-.1319337815.596637785-.1921782167.8963572357l.8791354679.1749822377c.0573558536-.2911410318.1204669874-.580837738.1864448197-.8691338861l.8748244785.203649913c-.0659778323.2782296361-.1247779768.5579035978-.1807114227.8390218852-.0559334459.2810745199-.1075559024.5621928073-.1534449619.8447116528l-.884868865-.1448264694-.884868865-.1448702368-.8848469818-.1448702368c.0516224565-.3111865208.1075559024-.622416809.1677784545-.9322027716.0616668429-.3097859626.1290889661-.6181275996.1993559046-.9264692366.0717112294-.3068973114.1477115649-.6138383902.2294671807-.9192913759.0817337326-.3040524276.1692227454-.6081048551.2595784567-.9107129571.091778119-.3011637763.189289635-.6023275526.2896897328-.9006464451.1018225054-.2997632181.2079560002-.596637785.3198010088-.8920680263.1104444842-.2954302413.2266004822-.5894599243.3485117604-.8820015144l.8274911282.3441871729.828935419.3441871729.8274911282.3427866147c-.1090001933.2638739147-.2151118049.5306364807-.3155119026.7988433724-.1003782146.266762566-.1964673229.5363700158-.2882673251.8074217912l-.8504465995-.2882523806c.0960891084-.2796739617.1950449153-.5579035978.2997341192-.8361332339l-.8389579223-.3155194977c-.1075559024.2868518224-.2108226987.5736598774-.3097785056.8633565836-.097511516.2897404737-.1907339259.5822820637-.2796453464.8748674211l.8576024042.2595847053.8590466951.2595847053.8576242874.2610290309c.0803113249-.2653182404.164911756-.5277915969.2538450597-.7902649535.0889114205-.2609852635.1821338303-.5220142944.2782229387-.7801546741.097511516-.2581841471.1993340214-.5163245268.3054675162-.7701756971.1061116116-.2552517284.2151118049-.5091028987.3298453952-.7615535108.1147335903-.250962519.2323338792-.5005244799.3556675651-.7485983476.1219112782-.2481176352.2495340703-.4933903866.3786011532-.737175045.1305113738-.2438284258.265333737-.4847682003.4030009154-.7242636492l-.7744243808-.4488788969-.7773129625-.45036699-.7758686717-.4488788969c-.1534449619.2653182404-.3026008177.5320808064-.4460232764.8016882562-.1448448664.2696512172-.2853787434.5421473183-.4202011066.8160439775l.80455754.3972770815c.1305113738-.2653182404.2667561446-.5291921551.405867614-.7902211861l.7902021642.4245004311c-.13480048.2524068446-.2667561446.5062580149-.392956529.7629978364-.1262003844.2566960541-.2495340703.5148802012-.3671343592.7758654647l-.8174467418-.3700099644-.8160243341-.37145429-.8160243341-.3700099644c.1304894906-.2882523806.2653118538-.5736598774.4058457308-.8561787229.1391114693-.282562613.2839563357-.5636371329.4316897838-.841866769.1505782634-.2782296361.3026008177-.5536143884.4617791767-.8275110476.1577559513-.272496101.319822892-.5435478765.4876013465-.8117547681.1663779301-.266762566.3370230831-.5320808064.5134235164-.7945103955.1749780256-.2624733566.3542451574-.5220580619.5392456863-.7773535578.183556238-.2566960541.3714453485-.5105472243.5636235653-.7601091852l.711313247.5464365277.7113351302.5463927603.7113351302.5464365277c-.1749561424.2265840532-.3456231787.4560567576-.5119792256.6898186715-.1678003377.2323613557-.3298672784.4675675952-.4890456374.7056187185l-.7457573956-.4990801542c.1649336392-.2466733096.3327339769-.4890574098.5062458285-.7299971843l-.7285353213-.5234586201c-.1792671318.2481176352-.3528008666.5005244799-.5234460196.7543756501-.1692446286.2538511703-.3356006755.5105472243-.497645733.7701319297l.7615132959.4747016884.7615351791.4747454558.7600908882.4732573628c.146267274-.2337619139.2968674207-.4661232695.4503123826-.6969965322.1534449619-.2294727044.3112009133-.4560567576.473267854-.6812402526.1606226498-.2237391694.325556289-.4460340131.4933347436-.6654402056.1692446286-.21944996.3413340725-.4360112687.5162902149-.6496839261.1764004333-.2137164249.3556675651-.4245441986.5378013954-.632483321s.3671562424-.413033361.5564458774-.6138383902c.1893115182-.2022055874.381489735-.4015662909.5779570579-.5965940176l-.6353129115-.6339276466-.6338905038-.6338838791-.6338905038-.6339276466c-.2151118049.2165613087-.4288012021.4360112687-.6367572023.6583061124-.2093784079.2237391694-.4144677095.4503232226-.6166684295.679795927l.6740461662.5908604825c.1950230321-.2222948438.3943789367-.4417010363.5965796567-.6568180193l.6539792766.6123940646c-.1950449153.209383448-.3886455397.4216117799-.5765346502.6367725304-.189289635.2151169831-.3742901639.4331226174-.5564458774.6539731355l-.692668765-.5693706679-.6926906482-.5693706679-.6926906482-.5693706679c.1993340214-.2437846583.4044233231-.4833238747.6123793233-.7199306724.207934117-.2380948907.4202011066-.4718568046.6353129114-.701329509.2151336881-.2309170301.43597889-.4575010832.6582683828-.679795927.2237337836-.2237391694.4488899749-.4431453619.6797795633-.658262345.2294671807-.2165613087.4646677584-.4273890824.7012907438-.6353719722.2366448686-.2079391224.4775788433-.413033361.7213795166-.6123940646.2438006733-.2007612617.4904680451-.397233314.7400021154-.5894161569l.5464233742.7113522535.546401491.7099079279.546401491.7113522535c-.2266004822.1749384703-.4503123826.3528093592-.6711794677.5349256902-.2222894928.1807157728-.4402679962.3671650806-.6554016843.5550149466l-.5908462596-.6740623919c.2222894928-.1950277267.4474456841-.3857662439.6769128648-.5736598774l-.5708012532-.6941078809c-.2352005777.1950277267-.4675344569.3929441046-.6984240453.5937053663-.2294671807.2022493548-.4560457796.4073435934-.6783352724.6167270414l.6123574401.6539731355.6138236142.6539731355.6123793233.6554174612c.20220072-.1892941916.4072900216-.3742991738.6152460218-.5579035978.207934117-.1821163309.417334408-.3613877781.6310019221-.5363700158.2136893972-.1749822377.430245493-.3470758242.6496682872-.5162807594.2194227943-.167804377.441712287-.3327638703.6668903615-.4947909448.2237119004-.1606265164.4517347903-.3184081489.6812019709-.4718568046.2294671807-.1548929813.4618010599-.3040524276.6955573467-.4503232226.2352005777-.146270795.4718235631-.2882523806.7113351302-.4273890824l.4488899749.7759092322c-.2309114715.1333593993-.4589343614.2710517754-.6855129603.4115890354-.2251780745.1419815856-.4503342658.2868518224-.6711794677.434566943-.2222894928.1491156788-.441712287.3011637763-.6582683828.4560567576-.2165560957.1563373069-.430245493.3155194977-.6424905993.4775903396-.2108226987.1620270745-.4202229898.328387126-.6252904082.4976358286-.2065117093.1692487027-.4101567201.3427866147-.6109569156.517725085-.2007783123.1764265633-.3986899261.3556980105-.5937129581.5378143414-.1936225076.1821600984-.3858007243.3686094062-.5736679517.5564592722-.1893115182.1893379591-.3743120471.3800764763-.5564458774.575104203-.183556238.1950714941-.3628233698.392987872-.5378013954.5923048081-.1764004333.2022493548-.3499341681.4044549421-.5191569134.6109935064-.1692227454.2064947968-.3341563846.4144776866-.497645733.6267060185-.1620450575.2108277737-.3212452997.4259447567-.4761345525.6425060654-.1563116605.2165613087-.3083342147.4360112687-.4560457796.6568617868-.1491558558.2208505181-.2940007221.4460340131-.4345564823.6726180663-.140533877.2266278206-.2782229387.4546561994-.4115791278.6855294621-.1348223632.2309170301-.2638894461.4632346183-.3900898305.6984408578-.1247779768.2352062395-.2466673718.4718568046-.3657119515.7113522535-.1176002889.2380948907-.2323338792.4804789909-.3427564802.7228193236-.1090001933.2423841002-.2151118049.4876568516-.3169343103.7328858355-.1018225054.2466733096-.2007783123.4933466192-.2940007221.7443091382-.0946667007.2481176352-.1835781212.4991239217-.2696228431.7515307663s-.1678003377.5062580149-.2452449641.7615535108c-.0760003355.2552517285-.1491339726.5105472243-.2179785034.768687604-.0688445308.2567398215-.1333780723.5163245268-.1936225076.7759092322-.0616668429.2595847053-.116155998.5191694106-.1692227454.7815989998-.0502000489.2610290309-.0989558069.5235023875-.1419781679.7859319766-.043022361.2639176822-.0817337326.5277915969-.116155998.7916655117-.0344222654.2653182404-.0645335415.5292359226-.0903557113.7945541629s-.0473333504.5320808064-.0645335415.7987996049c-.0172220743.2653182404-.030111276.5320808064-.0387332548.7988433724-.0086000956.2682068916-.0128892017.5349694576-.0128892017.8016882562,0,.266762566.0042891062.533525132.0128892017.8017320236.0086219788.266762566.0215111805.533525132.0387332548.7988433724v.0014005582c.0172001911.2653182404.0387113716.5320808064.0645335415.7973990467s.0559334459.5292359226.0903557113.7945541629c.0344222654.2638739147.073133637.5277478295.116155998.7902211861.043022361.2638739147.091778119.5263472713.1419781679.7873763023.0530667474.2624295891.1075559024.5220142944.1692227454.7815989998.0602444353.2595847053.1247779768.5191694106.1936225076.7759092322.0688445308.2581403797.1419781679.5134358756.2179785034.768687604.0774446264.2552954959.1592002422.5091466662.2452449641.7615535108s.1749561424.5034131311.2696228431.7529313245c.0932224099.2495619608.1921782167.4962352704.2940007221.74290858s.207934117.4905017354.3169343103.7328858355c.110422601.2437846583.2251561913.4847244329.3427564802.7228193236.1190445797.2394954489.2409339748.476146014.3657119515.7113522535.1262003844.2352062395.2552674673.4675238277.3900898305.6984408578.1333561891.2308732626.2710452508.460345967.4115791278.6855294621.1405557602.2265840532.2854006266.4517675482.4345564823.6726180663.1477115649.2208505181.2997341192.4403004781.4560457796.6568617868.1548892528.2179618669.314089495.4316782918.4761345525.6425060654.1634893484.2122283318.3284229876.4202112217.497645733.6267060185.1692227454.2065385642.3427564802.4087441516.5191569134.6109935064.1764004333.1993169361.3542451574.397233314.5378013954.5923048081.1821338303.1950277267.3671343592.3857662439.5564458774.575104203.1878672274.187849866.3800454441.3742991738.5750903594.5564592722.1936006244.1821163309.3915122382.3613877781.5922905505.5378143414.2008001955.1749384703.4044452063.3484763824.6109569156.517725085.2050674185.1692487027.4144677095.3356087541.6252904082.4976358286.2122451064.1635151676.4259345036.3212530327.6424905993.4775903396.2165560957.1548929813.43597889.3068973114.6582683828.4560567576.2208452019.1477151206.4460013932.2925853575.6711794677.4331226174.226578599.1419815856.4546014888.2782296361.6855129603.413033361.2308895883.1334031667.4646458752.2624733566.6984240453.3886986626.2366229854.1261815386.473267854.2480738678.7113351302.3656769875.2394896839.1176031197.4804236587.2323613557.7228019243.3427866147.2423563824.1104252591.4876013465.2165613087.7328463107.3183643815.2466673718.1018468402.4947790344.1993607035.7443131048.2940296831.2495340703.0932246539.5005124315.1835606566.7529132003.2696074498.252422652.0846462351.5048234209.1663600514.7600908882.2438284258.2552893505.0774246069.5120011087.1505600044.768712867.2194061925.2581341659.0688461881.5162902149.1319588411.7758686717.1936271685.2595784567.0602240018.5205793211.1161587941.7816020687.167804377.2610008644.0516455829.5234460196.098958189.7873354657.1419815856.2624451552.0430233966.5263346013.0817575838.7916464551.1161587941.2638675629.0344449778.5292012999.0645569786.7945131536.0903797701.2653118538.025779024.5320679984.047312606.7973798521.0645132112.2667342614.0172006052.533490406.0301120009.8002465507.0387341872.2667561446.0085784189.533490406.0129113957.8002465507.0129113957.2681785523,0,.5349346969-.0043329769.8016908415-.0129113957.2667342614-.0086221863.533490406-.021533582.8002465507-.0387341872.2667342614-.0172006052.5320679984-.0387341872.7973798521-.0645132112.2653118538-.0258227915.5306237075-.0559347923.7945131536-.0903797701.2653118538-.0344012103.5291794167-.0731353975.7916464551-.1161587941.2624451552-.0430233966.5248903105-.0903360027.7873354657-.1419815856.2610008644-.0516455829.522023612-.1075803753.7816020687-.167804377.2595784567-.0616683274.5177126226-.1247809804.7758686717-.1936271685.2567117582-.0688461881.5134235164-.1419815856.7686909838-.2194061925.2552893505-.0774683744.5076901194-.1591821907.7600908882-.2438284258.252422652-.0860467932.50337913-.1763827959.7529350835-.2696074498.2495340703-.0946689795.497645733-.1921828429.7428688139-.2940296831.2466673718-.1018030728.4919123359-.2079391224.7342906015-.3183643815.2423563824-.1104252591.4832903572-.225183495.7228019243-.3427866147.2394896839-.1176031197.4761345525-.2409397745.7098908393-.3656769875.2352005777-.126225306.4689568646-.2552954959.6984240453-.3886986626.2323338792-.1348037249.460356769-.2710517754.6869572512-.413033361.2266004822-.14053726.4503123826-.2854074968.6711794677-.4331226174.2222894928-.1491594463.441712287-.3011637763.6582683828-.4560567576.2165560957-.1563373069.430245493-.314075172.6424905993-.4775903396.2108226987-.1620270745.4202011066-.328387126.6252904082-.4976358286.2065117093-.1692487027.4101567201-.3427866147.6109350324-.517725085.1993340214-.1764265633.3972456352-.3556980105.5922905505-.5378143414.1950449153-.1821600984.3858007243-.3686094062.5750903594-.5564592722.1893115182-.1893379591.3743120471-.3800764763.5564458774-.575104203.1835781212-.1950714941.3614009621-.392987872.5378013954-.5923048081.1764004333-.2022493548.3484898772-.4044549421.5191569134-.6109935064.1692446286-.2064947968.3341563846-.4144776866.497645733-.6267060185.1620669407-.2108277737.3212452997-.4245441986.4761345525-.6425060654.1563335437-.2165613087.3083342147-.4360112687.4560676628-.6568617868.1491339726-.2208505181.2925564313-.4460340131.4345345992-.6726180663.1405557602-.2266278206.2782229387-.4546561994.411601011-.6855294621.1333780723-.2309170301.2624451552-.4632346183.3886455397-.6984408578s.2481116626-.4718568046.3671343592-.7113522535c.1176002889-.2380948907.2323338792-.4804789909.3413340725-.7228193236.110422601-.2423841002.2165560957-.486212526.3183786012-.7328858355s.2007783123-.4933466192.2940007221-.74290858c.0946448175-.2495181934.183556238-.5005244799.2696228431-.7529313245.086044722-.2524068446.1677784545-.5062580149.2438006733-.7615535108.0774446264-.2552517284.1505782634-.5105472243.2194227943-.768687604.0688226476-.2567398215.1333780723-.5163245268.1936006244-.7759092322.0602444353-.2595847053.116155998-.5191694106.1678003377-.7815989998.0516224565-.2610290309.1003782146-.5235023875.1419781679-.7873763023.043022361-.2624733566.0831780234-.5263472713.1176002889-.7902211861.0344222654-.2653182404.0645335415-.5292359226.0903557113-.7945541629.0258002867-.2653182404.0473114672-.5320808064.0645335415-.7987996049.0172001911-.2653182404.030111276-.5320808064.0387113716-.7988433724.0086000956-.2682068916.0129110849-.5349694576.0129110849-.8017320236,0-.2667187986-.0043109894-.5334813646-.0129110849-.8016882562-.0086000956-.266762566-.0215111805-.533525132-.0387113716-.7988433724-.0172220743-.2667187986-.0387332548-.5334813646-.0645335415-.7987996049-.0258221699-.2653182404-.0559334459-.5306802482-.0903557113-.7945541629s-.0745779279-.5277478295-.1176002889-.7916655117c-.0415999533-.2624295891-.0903557113-.5249029457-.1419781679-.7859319766-.0516443397-.2624295891-.1075559024-.5220142944-.1678003377-.7815989998-.0602225521-.2595847053-.1247779768-.5191694106-.1936006244-.7759092322-.0688445308-.2581403797-.1419781679-.5134358756-.2194227943-.768687604-.0760222187-.2552954959-.1577559513-.5091466662-.2438006733-.7615535108-.0860666052-.2524068446-.1749780256-.5034131311-.2696228431-.7529313245-.0932224099-.2495619608-.1921782167-.4962352704-.2940007221-.74290858s-.2079560002-.4905017354-.3183786012-.7328858355c-.1090001933-.2423403327-.2237337836-.4847244329-.3413340725-.7228193236-.1190226965-.2394954489-.2409339748-.476146014-.3671343592-.7113522535s-.2552674673-.4675238277-.3886455397-.6984408578c-.1333780723-.2308732626-.2710452508-.4589016414-.411601011-.6855294621-.1419781679-.2265840532-.2854006266-.4517675482-.4345345992-.6726180663-.1477334481-.2208505181-.2997341192-.4403004781-.4560676628-.6568617868-.1548892528-.2165613087-.3140676118-.4316782918-.4761345525-.6425060654-.1634893484-.2122283318-.3284011044-.4202112217-.497645733-.6267060185-.1706670362-.2065385642-.3427564802-.4087441516-.5191569134-.6109935064-.1764004333-.1993169361-.3542232742-.397233314-.5378013954-.5923048081-.1821338303-.1950277267-.3671343592-.3857662439-.5564458774-.575104203-.189289635-.187849866-.3800454441-.3742991738-.5750903594-.5564592722-.1950449153-.1821163309-.392956529-.3613877781-.5922905505-.5378143414-.2007783123-.1749384703-.4044233231-.3484763824-.6095126248-.517725085h-.0014224077c-.2050893017-.1692487027-.4144677095-.3356087541-.6252904082-.4976358286-.2122451064-.162070842-.4259345036-.3212530327-.6424905993-.4775903396-.2165560957-.1548929813-.43597889-.3069410788-.6582683828-.4560567576-.2208670851-.1477151206-.4445789856-.2925853575-.6711794677-.434566943-.2266004822-.14053726-.454623372-.2782296361-.6869572512-.4115890354-.2294671807-.1334031667-.4632234675-.2624733566-.6984240453-.3886986626-.2352005777-.124737213-.4718235631-.2480738678-.7098908393-.3656769875-.2395115671-.1190474454-.4804455418-.2323613557-.7228019243-.3427866147-.2438006733-.1104252591-.4876232297-.2165613087-.7342906015-.3184081489-.2452230809-.1018030728-.4933347436-.1993169361-.7428688139-.2939859156-.2495559535-.0932246539-.5005124315-.1835606566-.7529350835-.2696074498-.2524007688-.0846462351-.5062458285-.1663600514-.7600908882-.2438284258-.2552674673-.0774246069-.5119792256-.1506037719-.7686909838-.2194061925-.2581560491-.0688461881-.5162902149-.1334031667-.7758686717-.1936271685s-.5206012043-.1161587941-.7816020687-.167804377c-.2624451552-.0516455829-.5248903105-.098958189-.7873354657-.1419815856-.2624670384-.0430233966-.5263346013-.0832019094-.7916464551-.1161587941-.2638894461-.0344449778-.5292012999-.0645569786-.7945131536-.0903797701-.2653118538-.025779024-.5306455907-.047312606-.7973798521-.0645132112-.2667561446-.0186449308-.5335122892-.0301120009-.8002465507-.0387341872-.2667561446-.0085784189-.5335122892-.0129113957-.8016908415-.0129113957-.2667561446,0-.533490406.0043329769-.8002465507.0129113957-.2667561446.0086221863-.5335122892.0200892564-.8002465507.0387341872-.2667561446.0172006052-.5320679984.0387341872-.7973798521.0645132112-.2653118538.0258227915-.5306455907.0559347923-.7945131536.0903797701-.2653118538.0329568847-.5292012999.0731353975-.7916464551.1161587941-.2638894461.0430233966-.5263346013.0903360027-.7873354657.1419815856-.2610227476.0516455829-.522023612.1075803753-.7816020687.167804377s-.5177345058.1247809804-.7758686717.1936271685c-.2567117582.0688024206-.5134235164.1419815856-.768712867.2194061925-.2552674673.0774683744-.5076682362.1591821907-.7615132959.2438284258-.2509783612.0860467932-.5019567223.1763827959-.7514907926.2696074498-.2495340703.0946689795-.497645733.1921828429-.7443131048.2939859156-.2452449641.1018468402-.4904899283.2079828898-.7328463107.3184081489-.2423782656.1104252591-.4833122404.2237391694-.7228019243.3427866147-.2380672762.1176031197-.4747121448.2409397745-.7113351302.3656769875-.2337781701.126225306-.4675344569.2552954959-.6984240453.3886986626l-.4488899749-.7759092322-.4488899749-.7758654647-.4488899749-.7759092322-.4488680917-.7758654647c-.265333737.1520043301-.5277788922.3097421952-.7873573489.4718130372s-.5162902149.3269865678-.7701133914.4976795961l.4990681406.7457534638c.2452449641-.1649157258.4947790344-.3255422421.7457573956-.4818795491l.4746902616.7601091852c-.2423563824.1520043301-.4832903572.3068973114-.7213576334.4661232695-.2380672762.1591821907-.473267854.3226535909-.7056017331.4890574098l-.5234679028-.7285966261-.522023612-.7285528587-.5234460196-.7285528587c.256689875-.1835606566.5148459241-.3628321037.7787353702-.539258667.2610008644-.1749384703.5263127181-.3470758242.7945131536-.5134358756.2681785523-.1663600514.5378013954-.3298314516.8117133447-.4876130841.2724895417-.1577378651.5478457818-.3111865208.8274911282-.4603459671.2782229387-.1477151206.5578901682-.2940296831.8404022131-.4331226174.2839563357-.1391367018.5693569623-.2753847523.8561799966-.4058992678.2882673251-.130470748.5779570579-.2552517284.8690910815-.3771878251l.344200771.8289553733.3427564802.8275548151.3427564802.8289116058c-.2638894461.1104690265-.5263346013.2237391694-.7873354657.3413422891-.2595784567.1190474454-.5191569134.2409397745-.7758686717.3686094062l-.3972675184-.8045769074c.2667561446-.1319588411.5335122892-.2581403797.8031132492-.3800764763l-.3700010577-.8160439775c-.2796453464.126225306-.5550015865.2567398215-.8303578267.392987872-.2739338325.1348037249-.5449790833.2753409849-.8146019265.4187668961l.4230678051.7916655117.4230896883.7902211861.4230678051.7902211861c.2438006733-.1305145155.4890237542-.2566960541.7371354169-.3800327089.2481116627-.1219360966.497645733-.2395392164.7500465018-.3542536849.2509783612-.1147144685.5048234209-.2237391694.7601127714-.329875219.2552674673-.1060922822.5119792256-.2079391224.7715576823-.3054529857.2581341659-.0975138633.5177126226-.1907385172.7801577778-.2796739617.2610227476-.0874911189.5234679028-.1735379121.7887797566-.2524068446.2638894461-.0803132582.5306455907-.1563373069.7973798521-.2280283788l-.2323338792-.8662452348-.2308895883-.8662452348-.2323338792-.8662452348c-.2954231298.0788689326-.589423852.162070842-.8819802832.250962519-.2925783145.0889354445-.5836904549.183604424-.8734020709.2811182874l.2882673251.8490446297c.2796672296-.0946689795.5621792744-.1864493078.8447132025-.2710517754l.2610008644.8576230485c-.2739119493.083158142-.546401491.1706492608-.8174467418.2624295891-.271067134.0932246539-.5406680939.1878936334-.8088685294.2896967062l-.3154900194-.8389781177-.3169561935-.8404224434-.3155119026-.8375337921c.295445013-.1118695847.5923124337-.2180056343.8920465528-.3198524745.2982898283-.1018030728.5994682384-.1979163779.9020690561-.2896967062.3011565268-.0917803283.6052016354-.1778271215.9106691516-.2595847053s.6109350324-.1577378651.9192911304-.2294727044c.3068899239-.0716910719.6166684295-.1376486087.9250026442-.1993169361.3112227965-.0602677692.6209794189-.1176031197.9322022153-.167804377.3112009133-.0516455829.6238461174-.0975138633.9364913215-.1376923761l.116155998.889179375.1161778812.889179375.116155998.889179375c-.2839563357.0372898616-.5664902638.0789127-.8490023087.1247809804-.2825339281.0459120479-.5650459729.0975576308-.8461574934.1520480975l-.1735118516-.8791566305c.2896897328-.057379118.5822461641-.1104252591.8733801877-.1577816326l-.1448448664-.8848463982c-.30117841.0487569317-.6023349369.1032473984-.9020690561.1634714002-.2997341192.0588234436-.5994682384.1233366548-.8977799499.1921828429l.2036450108.8734230955.2022226032.8733793281.2036450108.8734230955c.2681785523-.0616683274.5392456863-.1204480035.8102909371-.1735379121.2710452508-.0530461411.5420905016-.1032473984.8160243341-.1477151206.2724895417-.0444677222.546401491-.0846024676.8203134403-.1204480035.2739338325-.0358893034.5478457818-.0674018625.823202022-.0946689795s.5507124803-.0487569317.8274911282-.0659575368c.2753562402-.0186449308.5521567712-.0315563265.828935419-.0401785128.276800531-.0085784189.5535791789-.0129113957.828935419-.0143557214V1.9719859186c-.3054675162,0-.6095126248.0043329769-.914980141.0143557214-.3069118071.0100665119-.6109350324.0243784658-.9164025487.0444677222l.0573558536.8949129101c.2954231298-.0200892564.5908681428-.0344012103.8877355635-.0430233966l.0286669852.8963572357c-.2868230343.0086221863-.5722017776.0229341402-.8590466951.041579071-.2853787434.0186449308-.57077937.0401785128-.8547357057.0688461881l-.0874890128-.8920242588-.086044722-.8935123519-.0874890128-.8920680263c.314089495-.0301120009.6281571068-.0559347923.9436690094-.0759802813.3140676118-.0200892564.6295795144-.0358455359.945091417-.0459120479.314089495-.0100227445.6296013976-.0157562795.9436690094-.0157562795.3155119026,0,.6310238053.0057335351.9465357079.0157562795.3140676118.0100665119.6295795144.0258227915.9436471262.0459120479.3155119026.020045489.6296013976.0458682804.9436690094.0759802813.3140676118.0301557683.6267128159.0660013043.93935802.1075803753l-.1147335903.889179375-.116155998.889179375-.1161778812.889179375c-.2839563357-.0372460941-.5679126715-.0702467463-.8532914149-.0975138633-.2854006266-.0286676753-.5708012532-.0502012573-.8561799966-.0688461881l.0588001444-.8949129101c.293978839.0186449308.589423852.0430233966.8848469818.0717348393l.086044722-.8935123519c-.3040232254-.0301120009-.6080683339-.0530461411-.9135358501-.0731353975s-.6095126248-.0344012103-.9164244319-.0444677222l-.0286669852.8963572357-.0286888684.8963572357-.0286888684.8963572357c.276800531.0086221863.5521567712.021533582.828935419.0401785128.276800531.0172006052.552134888.0386904197.8274911282.0659575368.2739338325.0272671171.5492900727.0587796762.823202022.0946689795.2753562402.0358455359.5478457818.0759802813.8203353235.1204480035.2724676585.0444677222.5449572001.0946689795.8160243341.1477151206.2710452508.0530899085.5420905016.1118695847.8102690539.1735379121.2696228431.063112653.5378013954.1290701898.80455754.2008050292l.2308895883-.8662452348.2323338792-.8662452348.2309114715-.8662452348c-.295445013-.0788689326-.5923124337-.1534486557-.8891798543-.2222948438-.2982898283-.0688461881-.5980239475-.1333593993-.8977580667-.1921828429l-.1735337348.8791566305c.2896897328.057379118.5793794655.1190474454.8676467906.1864493078l-.20220072.8733793281c-.2782229387-.0645132112-.5593125759-.124737213-.8404240963-.1806720053-.2810896372-.0544904667-.5621792744-.1061360496-.8446913193-.1520480975l.1448448664-.8848901656.1448448664-.8848463982.1462891572-.8848901656c.3112009133.0502012573.6209794189.1075366078.9307579245.167804377.3097566224.0616683274.6181127203.1276258642.9264469351.1993169361.3069118071.0717348393.613801731.1477151206.9192692472.2294727044.3040451086.0817575838.6080902171.167804377.9106910348.2595847053s.6023349369.1878936334.9020690561.2896967062c.2982898283.1018468402.5966015398.2079828898.8920246697.3198524745.295445013.1104252591.5880014443.2265840532.8805578756.3470320567l-.3441788878.8289553733-.3427564802.8275548151-.344200771.8289116058c-.2638894461-.1089809334-.5306237075-.2151169831-.7973798521-.3155194977-.2681785523-.1018030728-.5378013954-.1979163779-.8088466462-.2896967062l.2882454419-.8490008622c.2796672296.0960695377.5593125759.1950277267.8361131069.2997194507l.3155119026-.8404224434c-.2854006266-.1075366078-.5736679517-.2108277737-.8633576845-.308341637-.2896897328-.098958189-.5808237564-.1921828429-.8748244785-.2811182874l-.2595784567.8591111416-.2595784567.8576230485-.2595784567.8590673741c.2638894461.0788689326.527757009.1649157258.7887797566.2524068446.2624451552.0889354445.522023612.1821600984.780179661.2796739617.2595784567.0975138633.5162902149.1993607035.7715576823.3054529857.2552674673.104691724.509112527.2151607505.7600908882.329875219s.5019567223.2323175882.7486240941.3542536849c.2481116626.1218923292.4947790344.2495181934.7385797077.3800327089.2423563824.1305145155.484734648.2639176822.7242462151.4030106165l.4488680917-.7758654647.4488899749-.7759092322.4488899749-.7758654647c-.2638894461-.1534924231-.5320679984-.3026518694-.8016908415-.4474783388-.2696228431-.1434259112-.5406680939-.2839631712-.8145800433-.4187668961l-.3972675184.8031325818c.2638894461.1305145155.5277788922.266762566.7887797566.4072998259l-.4230678051.7887768604c-.2524007688-.1333593993-.5062458285-.2653182404-.7629575867-.391499779-.2567117582-.1276696317-.5162902149-.2495619608-.7773129625-.3686094062l.3714453485-.8160439775.3700010577-.8160439775.3700229409-.8174883032h.0014224077c.2868230343.1305145155.5722236608.266762566.8547575889.4058992678.2839563357.1390929343.5650459729.2839631712.8418246208.4331226174.2782229387.1491594463.5550234697.3026081019.8275130114.4603459671.2739119493.1577816326.5435347925.3212530327.8117133447.4876130841s.533490406.3384974053.7945131536.5134358756c.2624451552.1764265633.522023612.3556980105.7787353702.539258667.2552674673.1850049822.509112527.3728986156.7586465973.5650814585l-.546401491.7113522535-.5449572001.7099079279-.5478457818.7113522535c-.2266004822-.1735379121-.4560676628-.3456314986-.6883796588-.51199155-.2323338792-.1664038189-.4675344569-.329875219-.7056017331-.4890574098l.4990681406-.7457972313v.0014443256c.2452449641.1635151676.4890456374.3327201028.7299796122.5048136893l.522023612-.7285528587c-.2480897795-.1778271215-.4990681406-.3528093592-.7529132003-.5220142944-.2538450597-.1706930283-.5119792256-.3356087541-.7715576823-.4976795961l-.473267854.7615535108-.4747121448.7601091852-.4746902616.7615535108c.2352005777.146270795.4675344569.2954302413.6969797544.4503232226.2294671807.1534486557.4574900705.3112302882.6812238541.4718568046.2251561913.1620270745.4474456841.3269865678.6668684784.4947909448.2180003866.1692049352.4345564824.3398979635.6482239964.5162807594.2151336881.1749822377.4245120959.3542536849.6324680961.5363700158.2079560002.1821600984.4130234187.3686094062.613801731.5579035978.2036450108.1878936334.4015566246.3814770345.5966015398.5765485286l.6353347946-.6339276466.6338905038-.6338838791.6338686206-.6339276466c-.2165342126-.2165175413-.4359570068-.4287896405-.6596907905-.6381730886-.2222894928-.209383448-.4488899749-.4144776866-.6783571556-.6167270414l-.5922905505.6740623919c.2222894928.1965158197.441712287.3944321977.6582683828.596637785l-.613801731.6539731355c-.2079560002-.1950277267-.4216453974-.3872105695-.6353347946-.5765485286-.2151118049-.187849866-.4331121915-.3742991738-.6554016843-.5550149466l.5693569623-.6927073227.5693569623-.6941078809.5693569623-.6927073227c.2438006733.2007612617.484734648.4058555003.7213576334.6137946227.2366448686.2079828898.4704011554.4188106635.7012907438.6353719722.2294671807.2151169831.4560676628.4345231756.6797795633.658262345.2222894928.2222948438.441712287.4488788969.6582683828.679795927.2151336881.2294727044.4259563868.4632346183.6353347946.6998851834.2079560002.2380511233.4130234187.4775903396.6123793233.721374998.2007783123.2438284258.3958232276.4905017354.5879795611.7414642544l-.7098908393.5464365277-.7113351302.5463927603-.7113351302.5464365277c-.1749561424-.2265840532-.3527789834-.4517675482-.533490406-.6726180663-.1821338303-.2208505181-.36857865-.4388561525-.5564458774-.6539731355l.6740461662-.5923485756c.1950449153.2237391694.387223132.4489226644.5750903594.6769510432l.6926906482-.5693706679c-.1936225076-.2366505651-.3915341214-.4689681534-.5937348413-.6984408578-.2022226032-.2294727044-.4072900216-.4560567576-.6166903127-.679795927l-.6539573934.6138383902-.6539573934.6123940646-.6539792766.6137946227c.1878672274.2008050292.3743120471.4058992678.5564458774.6138383902s.3614009621.4187668961.5378013954.632483321c.1749780256.2136726575.3470674695.4302339662.5148678073.6496839261.1692227454.2194061925.3341345014.4417010363.4947571512.6654402056.160644533.225183495.319822892.4517675482.473267854.6812402526.1534668451.2308732626.3040451086.4617902927.4503342658.6969965322.1448448664.2352062395.2882454419.4718568046.4259345036.7113522535l.7758686717-.4488788969.7772910793-.45036699.7758686717-.4488788969c-.1534449619-.2638739148-.3112009133-.5263472713-.4718235631-.7859319766-.1620669407-.2595847053-.3284229876-.5162807594-.4990900238-.7701319297l-.7443131048.4990801542c.1649336392.245228984.325556289.4933466192.4818679495.7457534638l-.7615132959.4733011302c-.1506001466-.2423841002-.3069118071-.4833238747-.4660901661-.7199744398-.1592002422-.2380511233-.3212671829-.4732573628-.4890456374-.7056187185l.7285353213-.5234586201.7285353213-.5234586201.7285572045-.5220580619c.183556238.2552954959.3642676606.5148802012.5392238031.7773535578.1764004333.2624295891.3470674695.5277478295.5134235164.7945103955.1663560469.2682068916.3298453952.539258667.4876013465.8117547681.1592002422.2738966592.3112227965.5492814115.460356769.8275110476.1491558558.2782296361.2940007221.559304156.4345564823.841866769.1391114693.2825188455.2739119493.5679263423.4044233231.8561787229.1305113738.2868518224.2567117582.5765485286.3771787456.8676895604l-.828935419.3441871729-.8274911282.3441871729-.828935419.3427866147c-.1090001933-.2638739147-.2237337836-.5263472713-.3413340725-.7873763023-.1190226965-.2609852635-.2409339748-.5191694106-.3671343592-.7758654647l.8031132492-.3972770815c.1319556646.2653182404.2581560491.533525132.3800454441.8031325818l.817468625-.37145429c-.1262003844-.2782296361-.2581560491-.5550149466-.392956529-.8289553733-.13480048-.2738966592-.2753562402-.5463927603-.4202011066-.8160439775l-.7902021642.4230998729-.7902240474.4245004311-.7902021642.4230998729c.1290670829.2437846583.2567117582.4890574098.3786230364.737175045.1233336859.2480738678.2409339748.4976358286.3556456819.7485983476.1133111827.2524506121.2237337836.5063017824.3298672784.7615535108.1046892039.2538511703.207934117.51199155.3040232254.7701756971.0975333992.2581403797.1907558091.5191694106.2796672295.7801546741.0889114205.2624733566.1735337348.5249467131.2538450597.7902649535.0788670341.2638739147.1563116605.5291921551.226578599.7959547211l.866224383-.2309170301.866224383-.2308732626.866224383-.2323613557c-.0774446264-.2954302413-.1620669407-.5894161569-.2509783612-.8820015144s-.1821338303-.5851269475-.2796672295-.8748674211l-.8504247163.288296148c.0946448175.2810745199.1864229365.5621928073.2724676585.8461559784l-.8590466951.2595847053c-.0831780234-.2739404267-.1706670363-.5464365277-.2624451552-.8174883032s-.1878672274-.5406592252-.2896897328-.8074217912l.8404022131-.3169638233.8389798055-.3155194977.8389579223-.3155194977c.1118668918.2954302413.2180003866.5923048081.319822892.8920680263.1003782146.2983188925.1979116138.5994826688.2882454419.9006464451.0918000022.3026081019.1792671318.6066605295.2595784567.9107129571.0817556158.3054529857.1592002422.6123940646.2294671807.9192913759.0717112294.308341637.1391114693.616683274.1993559046.9264692366.0616668429.3097859626.1176002889.6210162509.1692227454.9322027716.0502000489.3112302882.0960891084.6238611347.1376671785.9365357485l-.8891579711.1161587941-.8891579711.1147582359-.8891798543.1161587941c-.0372889639-.2839631712-.0788670341-.5665257841-.1247560936-.8490446297s-.0975333992-.5636371329-.1534668451-.8447116528l.8805797588-.1735379121c.0559115627.2896967062.110422601.580837738.1577559513.8734230955l.8848469818-.1448702368c-.048755758-.3026081019-.1046892039-.6023713201-.1634893484-.9035350964-.0602225521-.2997194507-.1233336859-.5980383432-.1936006244-.8963572357l-.8734020709.2022055874-.8733801877.203649913-.8734020709.2022493548c.0631111338.2696074498.1204888706.539258667.1749780256.8103104425.0530667474.2710517754.1018225054.5435478765.1477115649.8160439775.0444666518.272496101.0846223143.5463927603.1204669874.820333187.0358665563.2739404267.0659778323.5492814115.0932224099.8246661638.0272445775.2753409849.048755758.5506819697.06740024.826066722.0172220743.2767853105.030111276.5521700628.0401556625.8289553733.0086000956.2767853105.0129110849.553570621.0129110849.8303559314h2.6904512679c0-.3054529857-.0057552802-.6109497389-.0157777835-.9164027247-.0100443864-.3054967532-.0243997622-.6109497389-.043022361-.9150021665l-.8949132514.0573353505c.018644482.2954740087.0329779746.59090425.043022361.8863344912l-.896335659.0286676753c-.0100443864-.2853637293-.024377879-.5722155517-.0415780701-.8576230485-.018644482-.2854074968-.0415999533-.5707712261-.0702888217-.8561787229l.8934689605-.0860467932.8920465528-.0874911189.8920246697-.0860467932c.0315555669.314075172.0559334459.6281503441.0774446264.9422255161.0200668896.314075172.0344222654.6295946697.0458890595.9451141674.0086000956.3141189395.0143553758.6296384372.0143553758.9451141674"/></svg>