<?xml version="1.0" encoding="UTF-8"?><svg id="Ebene_1" xmlns="http://www.w3.org/2000/svg" width="60" height="60" viewBox="0 0 60 60"><defs><style>.cls-1{fill:#fff;fill-rule:evenodd;}</style></defs><g id="_3:_Risen_from_the_Mire"><path class="cls-1" d="m30.0000411788,0C13.4340748712,0,0,13.4353925914,0,29.9999588212c0,16.5659663075,13.4340748712,30.0000411788,30.0000411788,30.0000411788,16.56588395,0,29.9999588212-13.4340748712,29.9999588212-30.0000411788C60,13.4353925914,46.5659251288,0,30.0000411788,0Zm0,59.0028152543C13.9846348337,59.0028152543.9985024659,46.0153651663.9985024659,29.9999588212.9985024659,13.9859525538,13.9846348337.9985024659,30.0000411788.9985024659c16.0153239876,0,29.0014563553,12.9874500879,29.0014563553,29.0014563553,0,16.0154063451-12.9861323677,29.002856433-29.0014563553,29.002856433Z"/><path class="cls-1" d="m55.8507462277,28.9677721332l-1.5247669626.0620152059c-.0566619677-1.4127607473-.2320834666-2.7957904331-.518111103-4.1357471405.5019690308-.1092884174,1.002537984-.2172591146,1.5031892946-.3251474543.5073222691-.1092884174,1.0146445381-.2199769124,1.5233668849-.3292653298.0863930293.4479425035.168668183.8986851623.2388367825,1.3520632615s.1268305673.9080739186.1808570946,1.3641698157c-.2240124305.025613186-.448024861.0513087295-.6720372915.0769219155-.223930073.025613186-.4479425035.0499086518-.671954934.0755218378-.029648704-.2630498908-.0606974858-.5261821391-.0944640654-.7879966673.2523434144-.03640202.5046868287-.0728863974.7556301654-.1079706972-.0485909316-.3507606402-.1038528216-.7002859178-.1591970692-1.0497288379-.2752388025.051226372-.5518776826.1025351015-.8271164851.1537614734-.2739210823.0499910093-.5505599624.1012173813-.8257987649.1511260331.0714863197.4533780992.1362193235.9081562761.1888457732,1.3642521732.0513087295.4560135396.0904285473.9148272345.1227950492,1.3722408518.5357356104-.0391198178,1.0713888633-.0795573558,1.6071244738-.1200772513.5356532529-.0405198955,1.0727065835-.0809574335,1.6083598364-.1200772513-.0795573558-.8420231946-.172703701-1.6853641094-.3035697863-2.5219517083-.1308660853-.8352698787-.3062875842-1.6610686436-.5087223468-2.4773962947-.7987855012.2064702806-1.59765336.4115404835-2.3950387835.6180107641-.4966157926.1268305673-.9918315075.2550612122-1.4870472224.3832094997-.3467251222-1.3546987019-.8055388172-2.6649243478-1.3682053337-3.9184880259.4439069854-.1997169647.8892140485-.3994339294,1.3318033138-.5991508941.4601314151-.2063879231.9202628303-.4141759239,1.3803942454-.6220462822.172703701.4102227633.341371884.8217632469.4979335128,1.2387393261.1577969915.4169760793.3035697863.8393053968.4466247833,1.2629524344-.2078703583.0701685996-.4156583591.1390194789-.6234463599.2091880785-.2064702806.0701685996-.4142582814.1389371214-.6220462822.2077880008-.0809574335-.2442723783-.1646326649-.488462399-.2482255388-.7313346996.2320834666-.0849929516.4641669332-.1713859808.6948503221-.2563789324-.1160417333-.3238297341-.2374367048-.6450240278-.3616318317-.966135964-.2509433367.1052528993-.503286751.209105721-.7542300877.3130409001-.2496256165.1039351791-.5019690308.2091880785-.752994725.3117231799.1592794267.4182937994.3117231799.8365875989.4533780992,1.2616347142.1403371991.4236470377.2685678441.8514119509.3913628933,1.2804945843.5005689531-.1456904373,1.0012202638-.2927809524,1.5017892169-.4398714674.5006513107-.147090515,1.0012202638-.2927809524,1.5031892946-.4398714674-.2455900984-.7853612269-.5019690308-1.5693223761-.7947499832-2.3397768935-.2927809524-.7691367972-.62476408-1.5193313668-.9796425959-2.2547839419-.7165103475.3575963137-1.4343384153.7151926274-2.1508487628,1.072788941-.4371536695.2171767571-.8729896188.4344358716-1.3102256459.6530127064-.6031864121-1.2157615805-1.3034723299-2.3747788358-2.0927867174-3.4664276469.4047871676-.2982165481.8108920554-.5950330185,1.2143615028-.8932495666.4088226856-.300934346.8150099309-.6004686142,1.2225148964-.9014029602.2523434144.3643496296.5019690308.7313346996.7408058133,1.1064731631s.4682024512.757030243.6949326796,1.1402397427c-.1889281307.1133239354-.3778562614.2253301507-.5667843922.3373363659-.1888457732.1119238577-.3777739039.2226123528-.5667020346.3346185681-.1281482874-.2212946326-.2590967303-.4425892652-.3912805358-.6625661777.209105721-.1321838055.4182937994-.2657676887.6273995204-.3980338517-.1807747371-.2914632322-.3642672721-.5802086665-.5504776049-.8676363806-.2254125082.1551615511-.4507426589.3103231022-.6746727318.4655670109-.2240124305.1551615511-.448024861.3103231022-.6733550117.4641669332.2401545027.3750561061.4762734873.7529123675.7002859178,1.1374395873.2253301507.3846095774.4385537472.7772901908.6450240278,1.1698884468.4601314151-.2482255388.9202628303-.4978511553,1.3789941677-.7474767717.4601314151-.2496256165.9202628303-.4993335905,1.3817119656-.748959207-.4007516496-.71642799-.8122921331-1.4289028195-1.2561991185-2.1197999811-.4425892652-.690814804-.9215805505-1.3546987019-1.4181963431-1.9984050095-.6287995981.5006513107-1.2575991962,1.0026203415-1.8849987166,1.5031892946l-1.1779594828.940522778c-.829834283-1.0578822315-1.7433437973-2.0469959411-2.7337752271-2.9537521396.3346185681-.3791739816.671954934-.7569478855,1.0079735797-1.134804147.3359362882-.3791739816.6732726541-.7596656834,1.0106090201-1.1401573852.3211942937.3035697863.6409885098.6098573705.951311612.9256160685s.6112574482.6409885098.9121094367.9688537619c-.161914867.1498083129-.3238297341.2995342683-.4857446011.4493425812-.161914867.1484082352-.3238297341.2982165481-.4857446011.4479425035-.1713859808-.1902458509-.3440896818-.3790916241-.518111103-.5667020346.1767392191-.172703701.3548785158-.3481251999.5316177349-.5208289009-.2348012645-.2469078186-.473638047-.4911801969-.7151926274-.7327347772-.1888457732.1997169647-.3777739039.3994339294-.5653843145.5978331739-.1862103328.198316887-.3750561061.3993515719-.5626665166.5963507387.3117231799.315758698.6194108418.6368706342.9175450324.9648182438.2982165481.3278652521.5869619824.6679194159.8703541785,1.0079735797.3980338517-.3400541638.7974677811-.6814260478,1.1955016327-1.0227979317.3994339294-.3414542415.7974677811-.6828261254,1.1969017104-1.0241980094-.5370533306-.6166106864-1.0862132154-1.2265504145-1.6610686436-1.8080768011-.5747730707-.5816087442-1.1779594829-1.1307686289-1.795970247-1.6557154054-.5113577871.6234463599-1.0241156519,1.2468103622-1.5355557965,1.8702567221l-.9593826481,1.1684883691c-1.0457756774-.8878963284-2.1656731148-1.6893996275-3.3517859913-2.3937210633.2510256942-.4371536695.5019690308-.8730719763.7515946473-1.3102256459.2510256942-.4371536695.5006513107-.8757074167.7515946473-1.3129434437.3804917018.2294480262.7596656834.462849213,1.1320863491.7084393114.3724206657.2442723783.7394880932.5006513107,1.1037553652.7583479632-.1268305673.1781392967-.2536611345.3575963137-.3804917018.5343355327-.1281482874.1794570169-.2550612122.356196236-.3832094997.5343355327-.2091880785-.1498083129-.4196115196-.2982165481-.6301173183-.4453070631.1376194012-.2050702029.2752388025-.4115404835.4128582037-.6152929663-.2847099163-.1929636488-.5721376304-.3818917795-.8622007849-.5681021123-.1417372768.2321658241-.2847099163.4642492907-.426447193.6949326796-.1416549193.2307657464-.2847099163.4641669332-.4263648355.6949326796.3724206657.2442723783.7435236112.492497917,1.1077908833.7529123675.3630319094.2590967303.7179104252.5317000924,1.0700711432.8056211747.319794216-.411622841.6395884321-.8244810447.9579825704-1.2360215283.319794216-.4142582814.6395884321-.8257987649.9594650056-1.2387393261-.6598483798-.4910978394-1.3291678734-.9742070001-2.0186649573-1.4248673015s-1.4006541932-.8622831424-2.1197999811-1.2481280824c-.3711029455.7097570316-.7421235335,1.4195140632-1.1119087589,2.1292710948l-.6935326019,1.3276854382c-1.1806772807-.6409061522-2.420734327-1.1860305189-3.7079822272-1.627302064.1497259554-.4709202491.3008519885-.9418404982.4506603013-1.4113606696.1538438309-.4817090831.3062875842-.9635005237.4601314151-1.4452096067.4182937994.1457727948.8365875989.2954987502,1.2508458803.458813695.4128582037.1632325872.823080967.3373363659,1.2333037304.514075585-.0877107494.2024347626-.1741037787.4034694474-.2618145281.6045041323-.0877107494.2024347626-.1740214212.4021517272-.2617321706.6045041323-.2348012645-.1038528216-.4709202491-.2050702029-.7070392337-.3062875842.0917462675-.2307657464.1821748148-.4601314151.2739210823-.6894970839-.3171587757-.1295483651-.635552914-.2550612122-.9567472077-.3791739816-.0903461898.2576966526-.1807747371.5154756627-.2712032844.7731723152-.0904285473.2550612122-.1821748148.514075585-.2725210046.7704545174.4142582814.161914867.8284342053.3279476096,1.2359391707.5074046266s.8109744129.371020588,1.2104083423.5680197548c.2266478709-.4709202491.4519780215-.9431582184.6773905297-1.4140784675.2253301507-.4723203268.4519780215-.9445582961.6787082499-1.4154785452-.7462414091-.345407402-1.4977536989-.6787082499-2.2642550557-.976924798-.7650189216-.2982165481-1.5423091124-.5545954805-2.3235524638-.782643429-.2145413167.7731723152-.4290826334,1.5477447082-.6436239501,2.3222347436l-.3912805358,1.4154785452c-1.2765414238-.3832094997-2.5975559036-.6666016957-3.9522546055-.8352698787.0458731337-.4735556895.0944640654-.9471937364.1403371991-1.4195140632.0499086518-.5060045489.0998173036-1.0106090201.1497259554-1.5166135689.4385537472.0566619677.8771074944.1173594535,1.3142611639.1902458509.437236027.0728863974.8717542562.1591970692,1.3075902055.2469078186-.0418376157.2172591146-.0850753091.4331181515-.128230645.6490595459-.0431553359.2158590369-.0877107494.4304003536-.1308660853.646341748-.2496256165-.0526264497-.5006513107-.1025351015-.7515946473-.1525261108.040437538-.2441900207.0822751537-.4897801192.1241127694-.7339701399-.3359362882-.0607798433-.6732726542-.117441811-1.0106090201-.1713859808-.0350842998.2712032844-.0715686772.5424065688-.1052528993.8136098533-.0350842998.2712032844-.0701685996.5424889263-.106652977.8136922108.4385537472.0728863974.8757897742.1497259554,1.3102256459.2401545027.4345182291.0917462675.8663186604.1956814466,1.296719014.304969864.1241951269-.5100400669.2455900984-1.0200801339.3683851476-1.5288024806.121477329-.5100400669.2442723783-1.0214802115.3670674275-1.5315202785-.7974677811-.1821748148-1.6003711579-.3535607956-2.4073100527-.4857446011-.808256615-.1335838832-1.6191486704-.2226947103-2.4288053631-.2833921961-.0485909316.804221097-.0970995057,1.6097599141-.1456904373,2.4126632909-.0270132637.4695201714-.0553442475.9391227003-.0836752314,1.4087252293-.7030037157-.0607798433-1.4154785452-.0944640654-2.1346243331-.0944640654-.6638838979,0-1.3210144798.0269309062-1.9727918235.0795573558-.0310487817-.4749557672-.0620975635-.9485114566-.0930639877-1.4221495036-.0337665796-.5195111807-.0688508794-1.0390223614-.102617459-1.5585335422.4467071408-.0242954658.8933319241-.0444730561,1.3425921478-.051226372.4493425812-.0081533936.8973674422-.0027177979,1.3467100233.0067533159-.0067533159.2253301507-.0135066318.4519780215-.0215776679.6773081722-.0054355957.2267302284-.0149067095.452060379-.0216600254.6773905297-.2590143728-.0067533159-.5167933829-.010788834-.7758077556-.0135066318,0-.2549788547,0-.5113577871.0013177202-.7651012791-.345407402.0014000777-.6908971615.0067533159-1.0363045636.0149067095.0094711138.2806743982.0188598701.5612664389.0297310615.8419408371.010788834.279356678.0201775902.5613487964.029648704.8407054744.4493425812-.0081533936.8986851623-.0121889117,1.3466276658,0,.4493425812.010788834.8986851623.0350842998,1.3453099456.066050724.0378020976-.5383710508.0756041953-1.0754243814.1133239354-1.6123953545.0364843775-.5384534083.0742041176-1.0768244591.1120062152-1.6151955099-.8257987649-.0350842998-1.6556330479-.0593797656-2.4841496107-.0431553359-.8271164851.0161420722-1.6515975298.076839558-2.4692429011.1645503074.0849929516.8217632469.1713036233,1.6435264937.2563789324,2.4652897406.0499086518.4722379693.0984995834.9472760939.1484082352,1.4208317834-1.3763587274.1646326649-2.7176331549.4425892652-4.014352169.8257987649-.1321838055-.4722379693-.2631322483-.9431582184-.3953160538-1.4140784675-.1403371991-.5006513107-.2806743982-1.0012202638-.4196938771-1.5017892169.4318004313-.1187595312.8650009402-.2334835443,1.3021546098-.3347009256s.8771074944-.1902458509,1.318296682-.2765565226c.0405198955.2226123528.0796397133.4452247056.1187595312.6679194159.040437538.2226123528.0782396356.4452247056.1173594535.6679194159-.2549788547.0471908539-.5086399892.0970995057-.7623834813.1484082352-.051226372-.2496256165-.1038528216-.499251233-.1551615511-.7475591293-.3373363659.0728863974-.6746727318.1511260331-1.0106090201.2320834666.0674508017.2726033621.1349016034.5451243667.202352405.8177277288.0674508017.2712032844.1349839609.5438066465.2010346849.8163276511.4385537472-.1038528216.8771074944-.2010346849,1.3183790395-.2847099163.4411891876-.0836752314.885096173-.1537614734,1.3290855159-.2185768348-.0728863974-.5330178126-.147090515-1.0673533453-.2212946326-1.6002888003-.0742041176-.5330178126-.1484082352-1.0686710655-.2212946326-1.6030889557-.8150099309.1390194789-1.6327376598.2914632322-2.4395941971.4803913629-.8056211747.1902458509-1.5989710802.4223293175-2.3816145092.6827437679.2523434143.7840435067.5060045489,1.5693223761.7569478855,2.354683603l.4493425812,1.3952185974c-1.3047900501.4411891876-2.5596714484.99174915-3.753855361,1.638090898-.2280479485-.437236027-.4547781769-.8743896965-.6814260478-1.3089079257-.2388367825-.4601314151-.4803913629-.9215805505-.7192281454-1.3803942454.3981162092-.2077880008.7988678587-.4101404058,1.2049727465-.6017863344.4075049655-.1915635711.819045449-.371020588,1.2333037304-.5478421646.0849929516.2091880785.168668183.4182937994.2523434143.6274818779.0849929516.209105721.168668183.4196115196.2523434144.6287995981-.2388367825.0998173036-.477673565.202352405-.7137925497.3062875842-.102617459-.2334011868-.2051525604-.4668847311-.3063699417-.6989681976-.3143586203.1416549193-.6287172406.290145512-.9418404982.4398714674.1227950492.2523434143.2442723783.5046868287.3656673498.7570302431.1227950492.2509433367.2442723783.503286751.3657497073.7556301654.4061048878-.1929636488.8163276511-.3805740593,1.2305859325-.5559955582.4142582814-.1740214212.833869801-.3359362882,1.2548813983-.492497917-.1808570946-.5073222691-.3629495519-1.0133268179-.5451243667-1.5193313668s-.3643496296-1.0133268179-.5451243667-1.5207314445c-.7691367972.3076876619-1.5369558742.6274818779-2.2871504438.9836781139-.7502769271.3548785158-1.4775761086.7502769271-2.1886508604,1.1671706489.4075049655.7151926274.8150099309,1.4303028972,1.2225148964,2.1440954469l.7300169794,1.2791768641c-1.2117260624.7179104252-2.3573190434,1.5382735944-3.4233546685,2.4490653109-.315758698-.3845272198-.6301173183-.7690544397-.9444759386-1.153664017-.3239120916-.3967161315-.6490595459-.7920321853-.9742893576-1.1887483168.3508429978-.290145512.7030037157-.5761731484,1.0646355474-.8528120286s.7313346996-.5438066465,1.1024376451-.808256615c.1241127694.1862103328.2469078186.3724206657.3711029455.5573132784.1227950492.1862103328.2455077409.3724206657.3697028678.5586309985-.2159413944.1497259554-.4290826334.3022520661-.6423062299.4560135396-.1456904373-.2050702029-.290145512-.4101404058-.4345182291-.6152929663-.2819921184.2091880785-.5612664389.422411675-.8379053191.6382707119.168668183.2199769124.3373363659.4398714674.5060045489.6584483021.1673504628.2186591923.3373363659.4385537472.5046868287.657130582.3615494742-.2779566003.7258991038-.5518776826,1.0983197695-.8136098533.3724206657-.2631322483.7529123675-.514075585,1.134804147-.7596656834-.2766388802-.4547781769-.5531954028-.9094739963-.829834283-1.3628520955-.2779566003-.4533780992-.5545954805-.9081562761-.8312343607-1.3628520955-.6935326019.4696025289-1.3844297635.951311612-2.0509491017,1.4640694768-.6652839756.5127578648-1.3034723299,1.0591999517-1.9187652962,1.6245842661.5383710508.6072219302,1.0780598218,1.2157615805,1.61651323,1.8229835107.3291829723.3697028678.6584483021.7408058133.9863135543,1.1118264013-1.0187624137.940522778-1.9564850363,1.9673562278-2.802543749,3.0683937952-.3939983336-.3130409001-.7879966673-.6260818002-1.1820773584-.9378049802-.3993515719-.3170764182-.8001032214-.6354705565-1.200854871-.9526293322.2847099163-.3548785158.5720552729-.7083569539.870271821-1.0538467135.2996166258-.3467251222.6072219302-.6840614881.9175450324-1.0200801339.1605971469.1551615511.319794216.3104054598.4790736427.4655670109.1591970692.1551615511.3183941383.3103231022.477673565.4654846534-.1808570946.1916459286-.3589140339.3859272975-.5370533306.5788909463-.1848926127-.168668183-.3697028678-.3373363659-.5545954805-.5060045489-.2334011868.2631322483-.462849213.528899937-.6908971615.7974677811.2105057987.1781392967.4210115973.356196236.631517396.532935455.2105057987.1768215766.4210115973.3562785935.631517396.5344178902.2982165481-.3468074797.6004686142-.6908971615.9121094367-1.0241980094.3117231799-.3333008479.6342351938-.6584483021.9593826481-.9782425182-.3642672721-.3846095774-.7313346996-.767819077-1.0956019716-1.1510285767-.3656673498-.3845272198-.7313346996-.7691367972-1.0970844068-1.153664017-.5855619047.6045041323-1.164452851,1.2184793784-1.7136127358,1.8580678104-.5492422423.6395884321-1.0633178272,1.3061077703-1.5530979464,1.9862160979.6544127841.477673565,1.3102256459.9566648502,1.9633207098,1.4343384152l1.2170793007.8892140485c-.7543124452,1.0646355474-1.4235495813,2.1940040987-2.0024405276,3.3773991772l-.1052528993.1983992445c-.4574136173-.2240124305-.9162273122-.4493425812-1.3736409295-.6733550117-.4587313374-.2253301507-.9175450324-.4493425812-1.3763587274-.6746727318.2064702806-.4061872453.4169760793-.8109744129.6396707896-1.2103259848.2212122751-.3994339294.4560135396-.7921145428.690814804-1.1847951563.1902458509.1161240908.3778562614.2348012645.5667020346.3508429978.1889281307.117441811.3765385413.2348012645.5640665943.3535607956-.1376194012.2240124305-.2726033621.4506603013-.4075049655.6773905297-.2159413944-.1255128471-.4345182291-.2510256942-.6490595459-.3764561837-.1754214989.3048875065-.3467251222.6125751684-.5153933052.9215805505.2428723006.1281482874.4870623213.2576966526.7299346219.3859272975.2428723006.1295483651.4871446788.2576966526.7300169794.3872450177.2212946326-.4007516496.448024861-.7974677811.6854615658-1.1887483168.2388367825-.3913628933.488462399-.7758901131.7421235335-1.1550640947-.4371536695-.2968988279-.8757074167-.5937152983-1.3128610862-.8906141262-.437236027-.2968164704-.8757897742-.5937152983-1.3142611639-.8905317687-.452060379.7110747518-.8946496443,1.4316206174-1.3021546098,2.1697086329-.4088226857.7380880155-.7772078333,1.4951182585-1.1185797173,2.2602195377.7408058133.3278652521,1.4829293469.6557305043,2.2237351602.9836781139.4682024512.2063879231.9364049025.4128582037,1.4046073537.6206462045-.2509433367.5869619824-.4897801192,1.1833950786-.7002859178,1.7906170087-.2428723006.7043214359-.4453070631,1.4208317834-.631517396,2.1386598511-.5005689531-.1213949715-.9998201861-.2414722229-1.4990714191-.3629495519-.5006513107-.1200772513-.9999025436-.2401545027-1.5004714968-.360231754.1092884174-.4399538249.2226123528-.8784252146.3481251999-1.3142611639.1268305673-.4358359493.2644499685-.8690364583.4047871676-1.3008368896.2105057987.0728863974.4223293175.147090515.6328351161.2199769124.2118235188.0742041176.4223293175.1484082352.6342351938.2226123528-.0836752314.2483078963-.1646326649.4979335128-.2442723783.7462414091-.2401545027-.0756041953-.4817090831-.1511260331-.7205458656-.2280479485-.1012173813.334618568-.198316887.6706372138-.2927809524,1.0079735797.2671677664.0728040399.5356532529.147090515.8028210193.2198945549.2671677664.0728863974.5343355327.1457727948.8015032991.2199769124.1255128471-.437236027.2550612122-.8716718987.3994339294-1.3034723299.1416549193-.4304827111.2982165481-.8568475466.4601314151-1.281894662-.4952157149-.1956814466-.99174915-.3899628156-1.4883649426-.5856442622-.4965334351-.1942813689-.99174915-.3899628156-1.4896826628-.5855619047-.2779566003.7879966673-.5451243667,1.5827466505-.7758077556,2.3896855453-.2294480262.8055388172-.4156583591,1.6205487481-.5748554283,2.4368763992.8001855789.1605971469,1.6002888003.3211942937,2.4004743793.4803913629l1.5368735167.3076876619c-.1605147893.8068565373-.2792743205,1.627302064-.3575139562,2.4598541448-.0540265274.5464420869-.0891108271,1.0929665313-.1134062929,1.6394086182-.5153933052-.0121065541-1.02815117-.025613186-1.5409090348-.0378020976-.514075585-.0134242743-1.0282335275-.025613186-1.5423091124-.0377197401.0175421499-.4533780992.0378020976-.9054384783.0714863197-1.3588165775.0337665796-.452060379.0796397133-.9054384783.128230645-1.3574164998.2226123528.0269309062.4439069854.05526189.6652016181.0822751537s.4425892652.0566619677.6652016181.0836752314c-.0309664242.2604144505-.0579796879.5208289009-.0849929516.782643429-.2509433367-.0242954658-.5019690308-.0472732114-.7515946473-.0715686772-.0309664242.3481251999-.0566619677.6976504775-.0809574335,1.0470933975.2779566003.0149067095.5545954805.0310487817.8312343607.0458731337.2766388802.0149067095.5531954028.0297310615.829834283.0458731337.0323665019-.4533780992.0701685996-.9067561984.121477329-1.35873422.051226372-.4507426589.1173594535-.9014029602.187528053-1.3507455414-.5248644189-.0863106717-1.0498111954-.172703701-1.5746756144-.2590143728-.5262644966-.0863930293-1.0511289156-.1727860585-1.5773934122-.2590967303-.1106884951.829834283-.2091880785,1.663704084-.2684854865,2.5002916829-.0607798433.8352698787-.0756041953,1.6732575553-.0620975635,2.5058096361.8150099309-.0121889117,1.6300198619-.0242954658,2.446347513-.0350842998l1.5463446305-.0229777456c.0162244297,1.4006541932.1498083129,2.772895045.3926806135,4.1060984364-.4979335128.0943817078-.9957846681.187528053-1.4937181808.2819921184-.5046868287.0957817855-1.0092912999.1929636488-1.5139781286.2874277141-.0769219155-.4453070631-.1511260331-.8933319241-.2105057987-1.3426745053-.0606974858-.4506603013-.1079706972-.9026383229-.1524437533-1.3560164221.2212946326-.0189422276.4452247056-.0392021753.6665193382-.0580620454.2226947103-.0202599478.4453070631-.0391198178.6679194159-.0579796879.0229777456.2604144504.0499910093.5221466211.0769219155.7825610715-.2496256165.0283309839-.499251233.0593797656-.7488768494.0877107494.0405198955.3468074797.0877107494.6936149594.1363016811,1.0417401593.2739210823-.0432376934.5491598848-.0863930293.8217632469-.1295483651.2739210823-.0445554136.5478421646-.0877107494.8217632469-.1295483651-.0607798433-.452060379-.117441811-.9027206804-.1605971469-1.3547810594-.0418376157-.4533780992-.0701685996-.9080739186-.0930639877-1.3601342976-.5317000924.0242954658-1.0633178272.0513087295-1.5949355621.0769219155-.5317000924.0270132637-1.0633178272.0526264497-1.5963356398.0782396356.0620975635.8352698787.1377017587,1.6718574776.2510256942,2.5030918382.1133239354.829834283.2712032844,1.6515975298.4533780992,2.4625719427.7960677034-.1821748148,1.5909000441-.3656673498,2.3856500272-.5492422423l1.4721405129-.3386540861c.3116408224,1.3925007996.7407234558,2.7418462632,1.2804945843,4.033212039-.4668847311.1955990891-.9350871823.3912805358-1.4006541932.5869619824-.4695201714.1955990891-.9391227003.3939983336-1.4100429494.5896797803-.168668183-.4237293952-.3346185681-.8500942307-.4897801192-1.281894662-.1538438309-.4318004313-.2954987502-.8676363806-.4358359493-1.3048724076.2118235188-.0647330038.4236470377-.1294660076.635552914-.1928812913.2118235188-.0648153613.4236470377-.128230645.635552914-.1929636488.0782396356.2522610568.1591970692.5046044712.2414722229.7556301654-.2361189846.0795573558-.473638047.1605147893-.7097570316.2388367825.1147240131.334618568.2334835443.6665193382.3548785158.9998201861.2563789324-.0984995834.5141579425-.1969991668.7705368749-.2954987502.2549788547-.0971818632.5126755073-.1969991668.7690544397-.29418103-.1551615511-.4304003536-.3062875842-.8649185827-.4425892652-1.3020722522-.1376194012-.4385537472-.2630498908-.8811430124-.3804917018-1.3224145575-.5113577871.132266163-1.0214802115.2658500462-1.5315202785.3994339294s-1.021397854.2671677664-1.5315202785.3994339294c.2375190623.8109744129.488462399,1.6218664683.7745723929,2.416698809.2860276364.7960677034.6139752461,1.5746756144.9634181661,2.3383768158.7327347772-.3427719617,1.4667049172-.6827437679,2.1981219742-1.0255157296.4574136173-.213141239.9161449547-.4263648355,1.3736409295-.6409061522.4897801192,1.0591999517,1.0551644336,2.0766446452,1.6866818296,3.0454160496.1213949715.1929636488.2428723006.3859272975.3656673498.5761731484-.4182937994.29418103-.8366699564.5869619824-1.2535636781.8784252146-.4182937994.29418103-.8365875989.5869619824-1.2535636781.8811430124-.2509433367-.3804917018-.499251233-.7637012015-.7367702953-1.1550640947-.2388367825-.3912805358-.4654846534-.7893143874-.690814804-1.1887483168.1929636488-.1079706972.3872450177-.2172591146.5802086665-.3251474543.1929636488-.1079706972.3859272975-.2159413944.5802086665-.3239120916.1268305673.2307657464.2576966526.4615314928.3886450954.6895794414-.2145413167.1295483651-.4290826334.2590143728-.6423062299.3872450177.1781392967.3035697863.3616318317.6045041323.5478421646.9040384006.2293656687-.1511260331.4601314151-.3022520661.690814804-.4519780215.2280479485-.1511260331.458813695-.3036521438.6895794414-.4533780992-.2388367825-.3913628933-.473638047-.7840435067-.6963327573-1.1847951563-.2226123528-.4007516496-.4331181515-.808256615-.6381883544-1.2170793007-.4709202491.2388367825-.9418404982.477673565-1.4114430271.7178280677-.4695201714.2402368602-.9404404205.4803913629-1.4113606696.7205458656.396633774.7448413314.8041387395,1.4869648649,1.2454102845,2.207593088.4398714674.7205458656.9175450324,1.4140784675,1.4127607473,2.0887511993.6450240278-.4911801969,1.2899656981-.9836781139,1.9349897259-1.4748583108l1.2333037304-.9404404205c.3575139562.4749557672.7326524197.9377226226,1.1226152353,1.3857474836l.0756041953.0904285473c.4830268033.5721376304.995784668,1.1158619194,1.5180136466,1.6475620118-.3481251999.3764561837-.6963327573.7529123675-1.0430578795,1.1306862714-.3481251999.3765385413-.6949326796.7543124452-1.0430578795,1.1307686289-.3225120139-.319794216-.6423062299-.6423062299-.9526293322-.976924798-.3103231022-.3333008479-.6125751684-.675990452-.9135095144-1.0200801339.1659503851-.147090515.3333008479-.29418103.499251233-.4425892652.1659503851-.147090515.3333008479-.29418103.499251233-.4412715451.1713859808.1997169647.3440896818.3967161315.5195111807.5937152983-.183492535.172703701-.3656673498.3454897595-.5478421646.5167933828.2361189846.2604144504.4749557672.5167933828.7165103475.7718545951.1942813689-.1969991668.3872450177-.3953984113.5815263867-.5923975781.1929636488-.1969991668.3859272975-.3953160538.5802086665-.5909975004-.3116408224-.3333008479-.6206462045-.6706372138-.9188627526-1.0160446158s-.5856442622-.7002859178-.8689541008-1.0591999517c-.4102227633.3359362882-.8204455267.6705548563-1.2279504922,1.006573502-.4101404058.3360186457-.8203631692.671954934-1.2305859325,1.0079735797.5370533306.646341748,1.0862132154,1.2886479779,1.6623863638,1.9025408665.5748554283.6126575259,1.1806772807,1.1928661924,1.800005765,1.7500971132.5289822945-.6206462045,1.0578822315-1.2399746888,1.5855468058-1.8607032508.345407402-.4047871676.6922148817-.8122921331,1.0376222837-1.2170793007,1.0578822315.9256160685,2.1954041763,1.7608859472,3.4044124409,2.4949384446-.2671677664.4425892652-.5330178126.8837784528-.7988678587,1.3250499979-.2684854865.4466247833-.5369709731.8932495666-.8055388172,1.3398743499-.3885627379-.2361189846-.7758901131-.477673565-1.1563818149-.7300169794s-.7543124452-.5153933052-1.1253330332-.7812433513c.1349016034-.1821748148.2698855642-.3643496296.4061048878-.5451243667.1349839609-.1821748148.2712856419-.3630319094.4061872453-.5451243667.2132235965.1551615511.4277649132.3076053044.6436239501.4587313374-.147090515.2091880785-.29418103.4210115973-.4398714674.6287995981.290145512.1983992445.5829264644.3926806135.8784252146.5842441845.1511260331-.2361189846.304969864-.4735556895.4560958971-.7097570316.1511260331-.2361189846.304969864-.4722379693.4574136173-.7083569539-.3818917795-.2523434143-.7596656834-.5074046266-1.1307686289-.7758901131-.3697028678-.2671677664-.7326524197-.5465244444-1.0902487334-.8285165628-.3400541638.4196938771-.6787082499.8406231169-1.0174446935,1.2603169941-.3399718063.4210115973-.6787082499.8419408371-1.0200801339,1.2643525121.6733550117.5046044712,1.3560987796,1.002537984,2.0591024953,1.465387197.7043214359.4641669332,1.4303028972.8892140485,2.1656731148,1.2872479002.3994339294-.7245813836.7988678587-1.4491627673,1.1969017104-2.1751442286.2455900984-.4453070631.4911801969-.8919318464.7367702953-1.3385566297,1.2076081869.6706372138,2.4773962947,1.2400570463,3.7997284947,1.7001884614-.161914867.4696025289-.3238297341.9391227003-.4844268809,1.4087252293-.1699859031.492497917-.3386540861.9849958341-.5087223468,1.4774937511-.4290826334-.1524437533-.8581652668-.3076053044-1.2832123822-.4749557672-.4250471154-.1699859031-.8460587127-.3494429201-1.2656702323-.5330178126.0944640654-.2063879231.1889281307-.4115404835.2833921961-.6166106864.0943817078-.2064702806.1902458509-.4115404835.2847099163-.6180107641.2401545027.1079706972.4817090831.2132235965.7245813836.3170764182-.0998996611.2348012645-.1983992445.4709202491-.2982165481.7044037934.3251474543.1349016034.6516949862.2644499685.980960316.3912805358.0998996611-.2631322483.1997169647-.5262644966.2982165481-.7879966673.0998173036-.2618145281.198316887-.5262644966.2982165481-.7879966673-.4250471154-.1673504628-.8487765105-.3400541638-1.26707031-.5249467765-.4182937994-.1862103328-.8311520031-.3832094997-1.2413747665-.5869619824-.2428723006.4817090831-.4871446788.9634181661-.7313346996,1.443809529-.2428723006.4831091608-.4871446788.9634181661-.7313346996,1.4465273269.7637012015.356196236,1.5355557965.7002859178,2.3208346659,1.0092912999.7839611492.3090053821,1.5841467281.5734553506,2.3869677474.8122921331.2388367825-.7920321853.477673565-1.5827466505.7151926274-2.3748611933l.4250471154-1.4100429494c1.3155788841.4007516496,2.6798310573.6922148817,4.0790851728.8649185827-.0566619677.4749557672-.1147240131.9499938918-.172703701,1.424949659-.0620975635.5153933052-.1241951269,1.032186688-.1862103328,1.5490624284-.4533780992-.0593797656-.9054384783-.1227950492-1.3560987796-.1997169647-.4507426589-.0769219155-.9000028825-.1660327426-1.3493454637-.2590967303.0499086518-.2212946326.0984995834-.4425892652.1484082352-.6625661777.0499086518-.2212946326.0984995834-.4411891876.1484082352-.6624838202.2577790101.0553442475.5167933828.1092884174.7758901131.1605971469-.0485909316.2509433367-.0957817855.5005689531-.1443727172.7501945696.345407402.0648153613.6935326019.1241127694,1.0416578018.1808570946.0418376157-.2780389578.0850753091-.5559955582.1268305673-.8325520808.0418376157-.2780389578.0836752314-.5559955582.1269129248-.8325520808-.452060379-.0756041953-.9027206804-.157879349-1.3507455414-.2523434144-.4479425035-.0944640654-.8932495666-.2037524827-1.3358388318-.3170764182-.1376194012.5208289009-.2766388802,1.042975522-.4128582037,1.5638867804-.1377017587.5208289009-.27532116,1.0430578795-.4142582814,1.5652045006.8216808894.1902458509,1.648879732.3683851476,2.482749533.5074046266.8325520808.1402548416,1.6691396797.234718907,2.5057272786.3008519885.0674508017-.8217632469.1349839609-1.6461619341.2010346849-2.4679251809l.117441811-1.4195140632c.6787082499.0579796879,1.3641698157.0877107494,2.0577847751.0877107494.7515122898,0,1.4937181808-.0350842998,2.2276883207-.1025351015.0418376157.4722379693.0823575112.9431582184.1241951269,1.4127607473.0444730561.5127578648.0904285473,1.0254333721.1363016811,1.5381912369-.4601314151.0378020976-.9202628303.0688508794-1.3817943231.0891108271-.4614491353.0188598701-.9242983483.0242954658-1.3870652038.029648704.0026354404-.2240124305.0053532382-.4493425812.0080710361-.671954934.0027177979-.2240124305.0067533159-.448024861.0094711138-.671954934.2671677664,0,.532935455-.0027177979.8001032214-.0067533159.004035518.2523434144.0094711138.5060045489.0121889117.7569478855.3575963137-.0093887563.7124748295-.0242954658,1.0686710655-.0418376157-.0162244297-.2779566003-.0310487817-.5559132007-.0472732114-.8325520808-.0161420722-.2765565226-.0323665019-.554513123-.0471908539-.8311520031-.462849213.0202599478-.9256160685.0350842998-1.3884652815.03640202-.4614491353.0014000777-.9242983483-.0121065541-1.3857474836-.029648704-.0284133414.532935455-.0580620454,1.0659532676-.0850753091,1.5989710802-.0269309062.5330178126-.05526189,1.0673533453-.0835928739,1.6002888003.8514119509.0135066318,1.7055416997.014824352,2.5596714484-.0242954658.8514119509-.03640202,1.6987883837-.1200772513,2.5408115784-.2293656687-.1052528993-.8109744129-.209105721-1.6205487481-.3130409001-2.4302054408-.0606974858-.4668023735-.1200772513-.9323693844-.1794570169-1.3978540378,1.4167962654-.1848926127,2.7958727906-.4925802746,4.1249583065-.910874074.1416549193.4560958971.2847099163.9135095144.4277649132,1.3682876913.1537614734.4911801969.3076053044.9836781139.4614491353,1.4748583108-.4425892652.1281482874-.8864962507.2536611345-1.3345211117.3656673498-.4493425812.1119238577-.9013206027.2118235188-1.3533809817.3103231022-.0445554136-.2199769124-.0904285473-.4398714674-.1349016034-.6584483021-.0445554136-.2186591923-.0891108271-.4385537472-.1336662407-.657130582.260496808-.0540265274.5222289786-.1106884951.782643429-.168668183.0566619677.2455077409.1160417333.4910978394.1741037787.7366879378.3467251222-.0822751537.6922148817-.168668183,1.0363045636-.2576966526-.0742041176-.2671677664-.1484905927-.5357356104-.2240124305-.8029033768-.0742041176-.2671677664-.1498083129-.5343355327-.2226123528-.8028210193-.4493425812.1133239354-.90008524.2226123528-1.3520632615.3170764182-.4533780992.0944640654-.9094739963.1767392191-1.3655698934.2523434144.0863930293.5262644966.1713859808,1.0524466358.2577790101,1.5773934122.0876283919.5262644966.1740214212,1.0538467135.2604144504,1.5800288526.8365875989-.1591970692,1.6744929179-.3319007702,2.5030094807-.5410064911.8271164851-.2091880785,1.6394909757-.4615314928,2.4395941971-.738170373-.2752388025-.7704545174-.5504776049-1.5409090348-.8243986872-2.3113635521l-.4844268809-1.3520632616c1.3304032361-.4789912852,2.6055445822-1.0673533453,3.8172706446-1.7581681493.2469078186.4331181515.492497917.8662363029.7394880932,1.296719014.2549788547.4492602237.5113577871.8986028048.7677367195,1.347945386-.4061872453.2145413167-.8150099309.4264471931-1.2305859325.6260818002-.4142582814.2011170424-.8365875989.3899628156-1.2589169164.5761731484-.091828625-.2050702029-.1821748148-.4101404058-.2726033621-.6138928886-.0917462675-.2051525604-.1821748148-.4102227633-.2726033621-.6152929663.2455900984-.1052528993.488462399-.2132235965.7300169794-.3225120139.1106884951.2280479485.2199769124.4560958971.3292653298.6827437679.3225120139-.1484082352.6423062299-.3035697863.9607003683-.4601314151-.1308660853-.2469078186-.2604144504-.4938156372-.3912805358-.7394057356-.1295483651-.2455900984-.2604144504-.492497917-.3899628156-.7380880155-.4155760016.2010346849-.833869801.3980338517-1.2575991962.5829264644-.4237293952.183492535-.8528120286.356196236-1.2832123822.5221466211.1969991668.4952157149.3939983336.9931492277.5909975004,1.4883649426.1969991668.4965334351.3939983336.9930668702.5909975005,1.4896826628.7866789471-.3239120916,1.5706400963-.6612484575,2.3370590956-1.0336691232.7651012791-.3724206657,1.5086248904-.7825610715,2.233206274-1.2143615028-.4345182291-.6976504775-.8689541008-1.3939008772-1.3021546098-2.090151277-.2657676887-.4263648355-.5316177349-.8528120286-.7974677811-1.2778591439,1.1698884467-.7313346996,2.2750438897-1.5571334645,3.3018773395-2.4706429788l.0418376157-.0350842998c.3494429201.3873273752.7002859178.7745723929,1.0498111954,1.1604996905.3507606402.3872450177.7002859178.7744900354,1.0511289156,1.1617350531-.3427719617.2982165481-.6894970839.5937152983-1.0457756774.8798252923-.3548785158.2860276364-.7178280677.5626665166-1.0834954175.8365875989-.1349839609-.1808570946-.2712032844-.3643496296-.4047871676-.5465244444-.1349839609-.1821748148-.2685678441-.3643496296-.4048695251-.5464420869.2132235965-.1565616288.422411675-.3144409778.6329174737-.4750381247.1577969915.2011170424.3170764182.4034694474.4735556895.6031864121.2766388802-.2158590369.5505599624-.4371536695.8231633246-.6598483798-.1821748148-.213141239-.3657497073-.4290826334-.5478421646-.6436239501-.1821748148-.2132235965-.3656673498-.4277649132-.5465244444-.6423062299-.3548785158.2874277141-.7137925497.5694198325-1.0807776196.8420231946-.3670674275.2726033621-.742205891.5330178126-1.119979795.789396745.3035697863.4466247833.6072219302.8932495666.9107917165,1.3385566297.304969864.4466247833.609939728.8932495666.9148272345,1.3398743499.6854615658-.488462399,1.3655698934-.987713632,2.0199826775-1.5180136466s1.2778591439-1.094366609,1.8783277582-1.6731751978c-.5788909463-.5937152983-1.1577818926-1.1861128765-1.7365904814-1.7784280971l-1.0903310909-1.1146265567c.9944669479-.9593826481,1.906658742-2.0023581701,2.7270219112-3.1196201672.422411675.3062875842.8433409148.6112574482,1.2630347919.9148272345.4236470377.3062875842.848694153.6125751684,1.2724235482.9188627526-.2739210823.3630319094-.5505599624.7246637411-.8379876766,1.0781421793-.2873453566.3521607179-.5855619047.6976504775-.8864962507,1.0403400816-.1699859031-.1497259554-.3400541638-.2995342683-.5100400669-.4506603013-.1699859031-.1498083129-.3400541638-.300934346-.5100400669-.452060379.1754214989-.1955990891.3481251999-.3939983336.5195111807-.5937152983.1969991668.1646326649.3953160538.3279476096.5895974228.4911801969.2254125082-.2684854865.448024861-.539688771.6680017734-.8150099309-.2240124305-.1713036233-.448024861-.3440896818-.6706372138-.5153933052-.2240124305-.1713859808-.4466247833-.3440896818-.6706372138-.5154756627-.2861099939.3535607956-.5775732261.7043214359-.8798252923,1.0470933975-.3022520661.341371884-.6152929663.6746727318-.9309693067,1.002537984.3898804581.3738207434.7812433513.7475591293,1.1725238871,1.119979795.3913628933.3737383859.782643429.7475591293,1.1739239648,1.1226152353.5681021123-.6193284843,1.1294509087-1.2494458026,1.6583508457-1.9025408665.5289822945-.6530950639,1.0214802115-1.3318033138,1.4883649426-2.0240181955-.6908971615-.4601314151-1.3817119656-.9202628303-2.0726091271-1.3803942454l-1.2899656981-.8581652668c.7704545174-1.138839665,1.4464449694-2.3451301317,2.0185825998-3.6094826438.4668847311.2063879231.9324517419.4128582037,1.3979363953.6193284843.477673565.2132235965.9580649279.4250471154,1.4357384929.6368706342-.1916459286.4115404835-.3859272975.8217632469-.5937152983,1.2265504145-.2077880008.4034694474-.4264471931.804221097-.6477418257,1.2022549487-.198316887-.1119238577-.396633774-.223930073-.5937152983-.3359362882-.198316887-.1133239354-.3953160538-.2253301507-.5936329408-.3373363659.1308660853-.2280479485.2576966526-.458813695.3832094997-.6881793637.227965591.1200772513.4546958194.2388367825.6800259701.3589140339.1646326649-.3090053821.3238297341-.620728562.4817090831-.9350871823-.2549788547-.121477329-.5100400669-.2441900207-.7637012015-.3656673498s-.5100400669-.2442723783-.7623834813-.3670674275c-.2077880008.4061872453-.4196938771.8096566927-.6423062299,1.2063728242-.2240124305.3967161315-.4601314151.7866789471-.7016859955,1.1725238871.4615314928.2861099939.921662908.5708199102,1.3817943231.8555298265.4614491353.2833921961.9228982706.5694198325,1.3844297635.8541297488.4263648355-.7218635858.8419408371-1.454598363,1.2238326166-2.2021574923.3804917018-.7488768494.7192281454-1.5152958488,1.0308689678-2.288468164-.7717722376-.3076053044-1.5449445528-.6139752461-2.3154814277-.9215805504l-1.4140784675-.5626665166c.5275822168-1.2994368119.9458760163-2.6555355915,1.2440925644-4.0575075048.4965334351.1079706972.9931492277.2145413167,1.4883649426.3211119362.5073222691.1092884174,1.0133268179.2172591146,1.520649087.3252298118-.0998173036.4466247833-.2063879231.8932495666-.3238297341,1.337156552-.1187595312.4439893429-.2496256165.8851785305-.3818917795,1.3251323554-.2145413167-.0688508794-.4290826334-.1377017587-.6436239501-.2078703583-.2158590369-.0687685219-.4290826334-.1376194012-.6436239501-.2077880008.0796397133-.2523434144.1551615511-.5060045489.2307657464-.7596656834.2441900207.0701685996.488462399.1403371991.7313346996.2118235188.0957817855-.341371884.187528053-.6827437679.2752388025-1.0268334498-.2712032844-.0661330815-.5438066465-.1335838832-.8150099309-.2010346849-.2698032067-.0661330815-.5424065688-.1335838832-.8136098533-.2010346849-.117441811.4452247056-.2388367825.8878139709-.3751384636,1.3277677957-.1349016034.4384713897-.2847099163.874307339-.4385537472,1.3061077703.5046868287.1848926127,1.0092912999.3697028678,1.5126604084.5532777603.5060045489.183492535,1.0106090201.3683851476,1.5152958488.5531954028.2644499685-.8028210193.518111103-1.6151131524.7340524974-2.4342409589.2158590369-.819045449.3872450177-1.648879732.5303000147-2.4773962947-.8096566927-.1416549193-1.6205487481-.2819921184-2.4302054408-.4236470377-.4979335128-.0863930293-.9957846681-.172703701-1.4924004607-.2590967303.2320834666-1.3480277435.3535607956-2.7337752271.3535607956-4.1492537723v-.0161420722h1.5274847604c.5195111807-.0014000777,1.0389400039-.0014000777,1.5571334645-.0027177979-.0080710361.4574136173-.0189422276.9162273122-.0431553359,1.3749586497-.0256955435.458813695-.0620975635.9162273122-.102617459,1.3750410072-.2253301507-.0229777456-.4492602237-.0445554136-.6732726541-.0661330815-.2240124305-.0229777456-.448024861-.0458731337-.671954934-.0688508794.025613186-.2631322483.0485085741-.5275822168.070086242-.7907144651.253743492.0175421499.5074046266.0337665796.7597480409.0526264497.0242954658-.3535607956.0431553359-.7070392337.0593797656-1.0606000294-.2806743982-.0080710361-.5600310762-.0161420722-.8393053967-.0242954658-.279356678-.0093887563-.5586309985-.0175421499-.8379876766-.025613186-.0242954658.458813695-.0526264497.9175450324-.0957817855,1.3749586497-.0431553359.458813695-.0998173036.914909592-.161914867,1.3696054114.5316177349.0742041176,1.0646355474.1484082352,1.5949355621.2212946326.532935455.0728863974,1.0646355474.147090515,1.5975710025.2212946326.0944640654-.8406231169.1768215766-1.6866818296.2199769124-2.5327405423.0431553359-.8459763552.0405198955-1.6920350678.010788834-2.5326581848-.8217632469.0323665019-1.6448442139.066050724-2.4666074608.0984995834Zm-2.6757131817,3.8577081826v.0014000777c-.0135066318.1092884174-.0270132637.2198945549-.0418376157.33058305-.010788834.0674508017-.0189422276.1363016811-.0297310615.2050702029-.0188598701.1268305673-.0377197401.2536611345-.0579796879.3791739816-.010788834.0701685996-.0229777456.1403371991-.0350842998.2091880785-.0189422276.1160417333-.0391198178.2320834666-.0606974858.3467251222-.2388367825,1.281894662-.580291024,2.5287050242-1.0201624914,3.7269244548v.0013177202h-.0013177202v.004035518c-.0606974858.1646326649-.1241127694.3279476096-.187528053.4911801969-.0121889117.0310487817-.0242954658.0634152836-.0364843775.0931463452-.4519780215,1.1361218672-.9904314298,2.2277706783-1.6070421163,3.2681107599h-.0014000777c-.2752388025.4654846534-.5667020346.9215805505-.8729896188,1.3641698157l-.004035518.0054355957-.014824352.0228953881-.0297310615.0431553359-.0013177202.0014000777-.014824352.0215776679c-2.1427777267,3.0697115154-5.0033835211,5.6011343375-8.3390274402,7.3499137305-.1497259554.0782396357-.3008519885.1551615511-.4533780992.2306833889l-.0080710361.004035518c-.1524437533.0756041953-.304969864.1498083129-.4574136173.2212946326l-.0094711138.004035518c-.341371884.1605971469-.6881793637.3117231799-1.0403400816.4560958971l-.0849929516.0364843775c-.128230645.051226372-.2576966526.1025351015-.3886450954.1524437533-.0579796879.0229777456-.1173594535.0445554136-.1767392191.0674508017-.1120062152.0418376157-.2226123528.0823575112-.334618568.1227950492-.0782396356.0270132637-.1565616288.0553442475-.2348012645.0823575112-.0917462675.0323665019-.183492535.0634152836-.2752388025.0930639877-.0931463452.0310487817-.1876104105.0620975635-.2806743982.0917462675-.0796397133.0256955435-.1591970692.0499086518-.2402368602.0742041176-.1146416556.0350842998-.2293656687.0701685996-.345407402.102617459-.0674508017.0201775902-.1349016034.0391198178-.202352405.0579796879-.117441811.0323665019-.2362013422.0647330038-.3562785935.0971818632-.0620152059.0161420722-.1241127694.0310487817-.1862103328.0471908539-.1335838832.0337665796-.2671677664.0674508017-.4007516496.0984995834-.0499086518.0121889117-.0984995834.0229777456-.1484082352.0337665796-.1403371991.0323665019-.2819921184.0634152836-.4237293952.0930639877-.0418376157.0081533936-.0835928739.0162244297-.1254304896.0242954658-.1525261108.0310487817-.3036521438.0606974858-.4574959748.0877107494l-.1052528993.0202599478c-.1645503074.0283309839-.33058305.0566619677-.4965334351.0822751537-.025613186.0027177979-.0526264497.0067533159-.0795573558.010788834-.1660327426.0256955435-.3319831277.0485909316-.4993335905.0701685996l-.0674508017.0094711138c-.172703701.0202599478-.345407402.0405198955-.5195111807.0593797656l-.0579796879.0053532382c-.183492535.0189422276-.3683851476.0350842998-.5545954805.0499910093l-.0323665019.0013177202c-.1848926127.014824352-.3697028678.025613186-.5545954805.0350842998l-.0418376157.0027177979c-.1862103328.0093887563-.3737383859.0161420722-.5613487964.0215776679h-.0269309062c-.1969991668.0053532382-.3939983336.0080710361-.5909975005.0080710361-.1997169647,0-.3994339294-.0027177979-.5964330962-.0080710361h-.0135066318c-.1929636488-.0054355957-.3846095774-.0121889117-.5761731484-.0215776679l-.0337665796-.0014000777c-.1848102552-.010788834-.3697028678-.0215776679-.554513123-.03640202l-.0432376934-.0027177979c-.1807747371-.0135066318-.3616318317-.029648704-.5410888487-.0485909316l-.0526264497-.0053532382c-.1754214989-.0175421499-.3508429978-.0378020976-.5248644189-.0593797656l-.0728863974-.0094711138c-.168668183-.0215776679-.3359362882-.0444730561-.503286751-.0701685996l-.0904285473-.0134242743c-.1591970692-.0256955435-.3183941383-.0513087295-.477673565-.0796397133-.03640202-.0067533159-.0728040399-.0135066318-.1106061376-.0202599478-.1511260331-.0270132637-.300934346-.0553442475-.4506603013-.0863106717-.0432376934-.0081533936-.0877107494-.0175421499-.1309484428-.0270132637-.1403371991-.0283309839-.2806743982-.0593797656-.4196115196-.0917462675-.0580620454-.0121889117-.1147240131-.0256955435-.172703701-.0391198178-.1241951269-.0297310615-.2496256165-.0593797656-.3738207434-.091828625-.0687685219-.0174597924-.1362193235-.0336842221-.2037524827-.0525440922-.1120062152-.0297310615-.223930073-.0593797656-.3359362882-.0904285473-.0756041953-.0215776679-.1511260331-.0431553359-.2267302284-.0648153613-.1012173813-.029648704-.2037524827-.0593797656-.304969864-.0903461898-.0917462675-.0283309839-.1848102552-.0580620454-.2765565226-.0863930293-.0836752314-.0270132637-.1646326649-.0539441698-.2483078963-.0796397133-.1025351015-.0350842998-.2064702806-.0701685996-.3103231022-.1065706195-.0728863974-.0242954658-.1457727948-.0499086518-.2172591146-.0769219155-.1092884174-.0391198178-.2185768348-.0782396357-.3278652521-.1187595312-.0634152836-.0242954658-.1255128471-.0485085741-.1889281307-.0728040399-.1133239354-.0432376934-.2240124305-.0877107494-.3360186457-.132266163l-.0027177979-.0013177202h-.004035518l-.0026354404-.0014000777-.0027177979-.0013177202-.0027177979-.0014000777-.004035518-.0013177202-.0027177979-.0013177202c-.0526264497-.0215776679-.1052528993-.0432376934-.157879349-.0648153613l-.0027177979-.0013177202-.0026354404-.0013177202h-.0027177979l-.0027177979-.0027177979c-.1200772513-.0485909316-.2388367825-.0984995834-.3575963137-.1498083129-.0593797656-.025613186-.1173594535-.051226372-.1767392191-.0782396357-.1025351015-.0458731337-.2064702806-.0917462675-.3090053821-.1390194789-.0849929516-.0391198178-.1713859808-.0782396356-.2549788547-.1186771737-.0701685996-.0337665796-.1403371991-.0675331592-.2105057987-.1012173813-.1147240131-.0566619677-.2294480262-.1120062152-.3427719617-.1700682606-.0431553359-.0228953881-.0863106717-.0444730561-.1295483651-.066050724-.1349016034-.0701685996-.2698855642-.1417372768-.4034694474-.2132235965l-.0714863197-.0391198178c-7.2580851055-3.9590079214-12.1832289909-11.6596822922-12.1832289909-20.5087497993,0-4.9763702574,1.5584511846-9.5897909629,4.2139867761-13.3787306237.0809574335-.1160417333.161914867-.2293656687.2455900984-.3427719617l.004035518-.0053532382c.7137925497-.980960316,1.5018715744-1.9052586644,2.3560013232-2.7607884908l.0391198178-.040437538c.1133239354-.1120062152.2266478709-.2212946326.3400541638-.3319831277.029648704-.0269309062.0592974081-.0553442475.0890284696-.0836752314.0930639877-.0877107494.1889281307-.1767392191.2847099163-.2644499685.0513087295-.0485909316.1052528993-.0970995057.157879349-.1443727172.7556301654-.6800259701,1.5558157443-1.3102256459,2.3937210633-1.8891165922.1147240131-.0782396357.2307657464-.1564792713.3468074797-.2320834666l.0378020976-.025613186c.1551615511-.1025351015.3116408224-.2037524827.4695201714-.3022520661l.0701685996-.0431553359c.1646326649-.1025351015.3319831277-.2037524827.5006513107-.3022520661l.0228953881-.0135066318c.1106884951-.0647330038.2226123528-.1295483651.3360186457-.1929636488.0336842221-.0202599478.0687685219-.0391198178.1025351015-.0579796879.1335838832-.0742864751.2684854865-.147090515.4034694474-.2186591923.0444730561-.0242954658.0890284696-.0471908539.1349016034-.0714863197.1052528993-.0553442475.2118235188-.1106884951.319794216-.1646326649.0742041176-.0378020976.1498083129-.0742041176.2253301507-.1120062152.0984995834-.0471908539.1969991668-.0944640654.2954987502-.1416549193.0634152836-.0297310615.1255128471-.0593797656.1889281307-.0877107494.0931463452-.0431553359.187528053-.0863930293.2819921184-.1281482874.0850753091-.0378020976.1700682606-.0756041953.2563789324-.1120062152.0931463452-.0405198955.1862103328-.0796397133.2806743982-.1187595312.0931463452-.0391198178.1876104105-.0782396357.2819921184-.1160417333l.2186591923-.0849929516c.1011350238-.0405198955.2037524827-.0783219932.3062875842-.117441811.0728863974-.0269309062.1456904373-.0539441698.2198945549-.0795573558.1093707749-.0405198955.2199769124-.0796397133.3306654075-.117441811.066050724-.0228953881.1321838055-.0445554136.198316887-.0674508017.1241127694-.0418376157.2496256165-.0822751537.3751384636-.121477329.051226372-.0161420722.1012173813-.0323665019.1511260331-.0471908539.1321838055-.0405198955.2644499685-.0796397133.3980338517-.1187595312.0526264497-.014824352.1052528993-.029648704.1565616288-.0445554136.1349016034-.0377197401.2684854865-.0728040399.4033870899-.1092884174.0405198955-.010788834.0823575112-.0215776679.1227950492-.0309664242.1538438309-.0392021753.3090053821-.0769219155.462849213-.1134062929.0378020976-.0093887563.0742041176-.0175421499.1120062152-.025613186.1498083129-.0337665796.300934346-.0674508017.4533780992-.0984995834.0337665796-.0067533159.0674508017-.0135066318.0998173036-.0215776679.1592794267-.0310487817.3184764959-.0620975635.477673565-.0904285473l.0849929516-.0162244297c.1700682607-.029648704.3414542415-.0579796879.5141579425-.0849929516l.0634152836-.0093887563c.1699859031-.0256955435.341371884-.0499910093.514075585-.0715686772l.0458731337-.0053532382c.1781392968-.0229777456.3589140339-.0445554136.5383710508-.0620975635l.0620975635-.0067533159c.183492535-.0188598701.36698507-.0350842998.5505599624-.0485909316l.0269309062-.0013177202c.1835748925-.014824352.3670674275-.025613186.5518776826-.03640202l.0432376934-.0014000777c.1862103328-.0094711138.3737383859-.0161420722.5626665166-.0215776679l.040437538-.0013177202c.1929636488-.0041178756.3859272975-.0067533159.580291024-.0067533159.1996346072,0,.3993515719.0026354404.5977508164.0067533159l.010788834.0013177202c.1915635711.004035518.381809422.0121065541.5707375527.0215776679l.0485909316.0027177979c.1794570169.0080710361.3575963137.0202599478.5343355327.0337665796l.0714863197.0053532382c.1741037787.0135066318.3468074797.0283309839.5195111807.0458731337.025613186.0027177979.0526264497.0054355957.0782396356.0080710361.1484905927.0149067095.2968988279.0324488594.4425892652.0513087295.0823575112.0094711138.1619972246.0202599478.2429546581.0310487817l.0161420722.0013177202c.0728863974.010788834.147090515.0202599478.2212946326.0310487817l.014824352.0027177979.0350842998.0053532382.010788834.0014000777c.0593797656.0080710361.1187595312.0161420722.1781392967.025613186.3400541638.0526264497.6787082499.1133239354,1.0147268956.1808570946.0701685996.0134242743.1389371214.0283309839.209105721.0417552582.1147240131.0242954658.2280479485.0499910093.3427719617.0756041953.0755218378.0175421499.1524437532.0350842998.2280479485.0526264497.1079706972.025613186.2145413167.051226372.3225120139.0782396357.0809574335.0202599478.161914867.0418376157.2428723006.0634152836.1052528993.0270132637.2105057987.0553442475.315758698.0849929516.0782396357.0216600254.1577969915.0445554136.234718907.0675331592.1079706972.029648704.2145413167.0620152059.3211942937.0943817078.0755218378.0229777456.1484082352.0459554913.2226123528.0688508794,6.0464414006,1.913412058,11.026847176,6.2204628218,13.8307910027,11.8108083252l.0027177979.0054355957.0094711138.0175421499v.0013177202l.0026354404.0054355957.0014000777.0013177202c.0323665019.0661330815.0661330815.1335838832.0984995834.1997169647l.004035518.0067533159c.0242954658.0499086518.0485909316.1012173813.0728863974.1524437533.3872450177.808256615.7286169017,1.6435264937,1.0227979317,2.5003740404.0188598701.05526189.0377197401.1092884174.05526189.1646326649.0392021753.1160417333.0769219155.2320834666.1134062929.3481251999.0242954658.0755218378.0471908539.1511260331.0701685996.2280479485.0283309839.0917462675.05526189.183492535.0822751537.2752388025.0350842998.1173594535.0674508017.2348012645.0998996611.3535607956l.0080710361.0309664242c.0094711138.0350842998.0188598701.0701685996.0283309839.1052528993.0445554136.1646326649.0863106717.33058305.1281482874.4966157926.2685678441,1.1023552876.4601314151,2.2345239942.5667843922,3.3922235293v.0027177979c.004035518.0471908539.0080710361.0957817855.0121065541.1443727172.010788834.1227950492.0202599478.2469078186.0297310615.3697028678.0093887563.1255128471.0175421499.2523434144.0242131083.3778562614.0014000777.040437538.0041178756.0809574335.0054355957.1200772513.0094711138.1821748148.0162244297.3629495519.0215776679.5464420869v.0054355957c.0054355957.198316887.0067533159.3993515719.0067533159.5990685365,0,.9567472077-.0579796879,1.8999054261-.1699859031,2.8255214946Z"/><path class="cls-1" d="m38.7491266672,43.7716994884c-1.2157615805-.7448413314-2.2979392778-.8339521585-3.0360272933-.7610657611-1.5368735167-.3360186457-2.1346243331-1.1726062446-2.5137983147-2.4720430565l.0499086518-10.8338835273,2.593438028-.0418376157c1.403371991.4102227633,2.2709260141,1.0713888633,2.5435293762,2.9011256899.5545954805.0378020976,1.1185797173.0471908539,1.7298371655-.0796397133.3117231799-.833869801.5222289786-1.6691396797.6760728095-2.5043272009,1.8728921624-.4169760793,2.9010433324-1.5086248904,2.9995429158-3.3382793594l-.0026354404-.0418376157.0026354404-.0189422276-.0093887563-.1349016034.0093887563-.1335838832-.0026354404-.0188598701.0026354404-.0432376934c-.0984995834-1.8296544691-1.1266507534-2.9172677621-2.9995429158-3.3382793594-.1538438309-.833869801-.3643496296-1.6691396797-.6760728095-2.5030094807-.6112574482-.1255128471-1.175241685-.1173594535-1.7298371655-.0796397133-.2726033621,1.8297368266-1.1401573852,2.4909029266-2.5435293762,2.8997256122l-2.593438028-.0417552582-.0499086518-2.9955897553c.4102227633-1.4019719133,1.0713888633-2.2682082163,2.9011256899-2.5435293762.0391198178-.5545954805.0471908539-1.1185797173-.0783219932-1.7285194453-.8351875212-.3103231022-1.6691396797-.5208289009-2.5043272009-.6746727318-.4210115973-1.8755276028-1.5086248904-2.9037611303-3.3396794371-3.0009429935h-.0283309839l-.1511260331.0094711138-.1498083129-.0094711138h-.0283309839c-1.8283367489.0971818632-2.91998556,1.1254153907-3.3395970796,3.0009429935-.8352698787.1538438309-1.6691396797.3643496296-2.5030094807.6746727318-.1268305673.609939728-.117441811,1.1739239648-.0796397133,1.7285194453,1.8297368266.27532116,2.4895852064,1.1415574629,2.9011256899,2.5435293762l-.0499910093,2.9955897553-2.593438028.0417552582c-1.4019719133-.4088226857-2.2682082163-1.0699887857-2.5434470187-2.8997256122-.5545954805-.0377197401-1.119979795-.0458731337-1.7285194453.0796397133-.3104054598.833869801-.5235466988,1.6691396797-.6773905297,2.5030094807-1.8728921624.4210115973-2.9011256899,1.5086248904-2.9982251956,3.3382793594l.0013177202.0432376934-.0013177202.0188598701.0067533159.1335838832-.0067533159.1349016034.0013177202.0189422276-.0013177202.0418376157c.0970995057,1.8296544691,1.1253330332,2.9213032802,2.9982251956,3.3382793594.1538438309.8351875212.36698507,1.6704573999.6773905297,2.5043272009.6085396503.1268305673,1.1739239648.117441811,1.7285194453.0796397133.2752388025-1.8297368266,1.1414751054-2.4909029266,2.5434470187-2.9011256899l2.593438028.0418376157.0499910093,10.8338835273c-.4021517272,1.3710054891-1.0430578795,2.2264529581-2.7783306407,2.5219517083-1.8891165922.0904285473-3.3571392295,1.3047900501-5.6928806049.9067561984-1.8135123969-.3103231022-2.776930563.7448413314-3.6796512434,1.7771103769,3.9643611596,3.8645438561,9.3779674441,6.2501938833,15.3515224472,6.2501938833,6.7062074229,0,12.705375612-3.0050608691,16.7399053712-7.7371587482-.7987855012-.4237293952-1.8822809187-.6962503998-3.2248730665-.6962503998-2.2426773878,0-2.5232694285,1.5814289303-4.7659468163.2105057987Zm-7.7370763907,2.5448470964c-.3738207434.5586309985-1.1307686289.7083569539-1.6893996275.334618568-.5586309985-.3751384636-.7084393114-1.1307686289-.3346185681-1.6893996275.1564792713-.2348012645.381809422-.3912805358.6287172406-.473638047v-17.6884991853h-8.932660381c-.1605147893.4843445234-.6125751684.8365875989-1.1509462192.8365875989-.671954934,0-1.2171616582-.5465244444-1.2171616582-1.2184793784s.5452067242-1.2184793784,1.2171616582-1.2184793784c.5383710508,0,.9904314298.3521607179,1.1509462192.8352698787h8.932660381v-9.0702797822c-.1011350238-.0337665796-.2010346849-.0756041953-.2940986725-.1390194789-.5586309985-.3737383859-.7084393114-1.1307686289-.3346185681-1.6893996275.3750561061-.5586309985,1.1306862714-.7083569539,1.68931727-.3346185681.5586309985.3751384636.7084393114,1.1307686289.3347009256,1.6893996275-.1565616288.2348012645-.3818917795.3912805358-.6301996758.473638047v9.0702797822h8.8288075593c.0336842221-.1012173813.0755218378-.2010346849.1389371214-.29418103.3738207434-.5599487187,1.1307686289-.7083569539,1.6893996275-.334618568s.7084393114,1.1307686289.3346185681,1.6893996275c-.3737383859.5586309985-1.1307686289.7083569539-1.6907173476.3346185681-.2334011868-.1565616288-.3899628156-.3818917795-.4722379693-.6301173183h-8.8288075593v17.6884991853c.1025351015.0337665796.2024347626.0756041953.2954987502.1390194789.5586309985.3737383859.7084393114,1.1307686289.3347009256,1.6893996275Z"/></g></svg>