<?xml version="1.0" encoding="UTF-8"?><svg id="Ebene_1" xmlns="http://www.w3.org/2000/svg" width="60" height="60" viewBox="0 0 60 60"><defs><style>.cls-1{fill:#fff;}</style></defs><path id="_6:_What_Lies_Beneath" class="cls-1" d="m59.9672258096,31.7723503283c-.2014774392-3.9977286565-.2014774392-3.1149513851-.6064820582-6.4360266812s-.3042056129.9868777884-.9127374116-3.735400241c-.6063614852-4.7224002131,1.6198979029-3.3210752961-3.0876327129-7.8373515982-4.7075306158-4.5141991792-10.5785904287-11.9870767842-17.666593266-12.6097249469-7.0859530968-.6225259789-9.6679027576-.6225259789-12.9076985634-1.0909783054-3.2397958058-.4663752035-8.7572150866,1.7656767265-9.9207442837,3.2711021606-1.1655789377,1.5053032503-4.1524126444,1.919750379-5.1144644023,3.839500758-.768532135,1.5374375649-.657846145,1.8677001205-2.4792214871,3.2690250376-1.8234250827,1.4013249171-3.8482070316,3.5813265885-3.8482070316,3.5813265885l-2.125701528,6.3818992997s-.2014774392,6.2278256472-.4543189653,7.7853013397c-.2547706936,1.5573535088-.2547706936,3.3731255546-.405004619,5.2928759336-.15204252,1.919750379-.9620517579,1.4013249171.1007990061,3.7355224247,1.062850764,2.336152447,2.1769450418,3.7894054388,2.1769450418,3.7894054388,0,0,1.0114866771,1.1410736246,2.1769450418,4.4100986622,1.1635291971,3.2691472213,1.6693328222,5.7094001852,5.2646983277,7.8873247337,3.593315765,2.1801238552,1.7700112553.6246031019,4.5553675229,2.2842243722,2.7834271,1.6614540258,6.5289059579,3.1649245206,6.5289059579,3.1649245206,0,0,1.2148932839,1.7655545428,4.9603721418,1.0909783054,3.7475285984-.6745762374,2.7854768406-.6225259789,6.6831187914-.7786767544,3.8975213778-.1561507755,6.9358397444.0520502585,6.9358397444.0520502585,0,0,5.819695726-1.1931238831,8.5043735605-2.9588006096,2.6826280939-1.7635996035,1.5171697292-2.127951413,3.6941147711-5.1887754166s.9106876711-2.7505995756,4.2018475637-4.8265007301c3.2910393197-2.0759011545,3.1389967997-3.2690250376,3.1389967997-7.5771003058,0-4.3059981452.809888665-2.8005727111.6064820582-6.7962242446Zm-8.037635579.4926447001c-.1362474604,1.0950103677-.0730672221,3.491155014-.9323908063,4.1458153074-.4879588249.3683838717-1.398646496.2161429748-1.762053439.7506966859-.2706863262.3963639403-.1363680334,1.5935198856-.5531888038,1.8697772435-.2113644231.1380675871-.5136408684-.0420311947-.8218253894-.0761204485-.5965950743-.0640242616-1.8668313532-.02407019-2.4100126002.2101559733-.5551179713.2382582255-.363527516.3022824871-.5058036251.972948846-.1777245634.8428231997-.5806794418,2.728484325-1.4913671128,2.8726610973-.3260293211.0520502585-.699323248-.1420996494-1.0233028286-.1781438425-.7487581673-.0861395123-1.5843288756-.0080641246-2.3310373023,0-3.0719582263.0379991324-6.1990183016.2521871679-9.2571106359.2141880355-1.4875087777-.0180831884-1.3906886797-1.5954748249-1.9280824239-2.6284158702-.4780718411-.9228535268-2.111715063-1.4032798563-3.0758165614-1.1290996215-.6242062853.1781438425-1.0805749911.762670689-1.46773481,1.2731542101-.3101136886.4084601271-.7092102318,1.7676316658-1.2900102466,1.6515571457l.1363680334-.0700112632c-1.5942158595,0-3.1488837836-.126093584-4.7134386915-.2762573579-.3043261859-.0300571915-.6479591612.0239480063-.8475074328-.2182200978-.4405736462-.5405407126-.4168207704-1.9378335674-.5728421985-2.6344028718-.2628490829-1.1871368815-.4801215816-3.0168378697-1.5666046485-3.7214712986-.6182982096-.4003960025-1.4342155233-.3443136818-2.1434257551-.3523778063-.0710174816-.5625337796.0988698385-1.5054254341-.2231805745-2.0038127683-.4839799168-.7467868073-1.2089852082-.2202972208-1.9577433755-.3543327456-1.3275084415-.2363032862-1.35704882-3.2329808445-1.7936435581-4.5062572383-.5768211066-1.6835692765-1.2603492951-1.4352919872-2.9434274362-1.7616446642-1.453989491-.2822443594-.5630757876-2.2740831246-.3102342616-3.4011056231.6262560259-2.7945857096,2.2303588692-5.310959122,3.9786669892-7.5009798573,1.5605759998-1.9538396328,3.1725160864-3.9296723326,5.0591214074-5.5712104144l.4385239057-.4423050135c.5334148361-.4464592595.5828497553-.3623968702,1.1714870134-.4445043202.3990965433-.0540051978.5373937442-.0459410732.8138675731.2843214824.5492098956.6525831705.5373937442,2.1740146699.6776201127,2.9927676797.322050413,1.8777191844.8850056276,2.9087052904,1.2109143758,4.8004756009.349661624,2.0338699598.4998955493,3.551269397,1.0233028286,5.5330890984.2430751152.9188214645.5037538845,3.2990822291,1.2405753274,3.9616844634.2075060879-1.8015987359,1.021373661-3.8616160087.9502356065-5.681297933-.1046573413-2.6904851926.6401219179-5.4270336421.8435285247-8.1015127693.1205729738-1.5954748249.5847789229-4.5321601838.6894362641-6.1236029465.0593219031-.8728803913-.0217031353-.7988370658.8454576922-.8948734582.7902352702-.0900493909,2.0209236137-.5945459104,2.7933140839-.4343630726.5354645766.1120424578.6539878099.3643518095.8119384055.9007382761.7447792591,2.5383664794,1.0292109043,6.7843724252,1.4855796101,9.3948272908.4346655705,2.4861940372.9620517579,5.0106315741,1.1734161809,7.5309148651.1600003362,1.9058214366.2429545422,3.7635024933.6380721773,5.6392667383.1561420011.7426325613.1698873201,1.6554670243.4702345978,2.3101273177.3021558723-1.1129713724.2823819046-2.1099904083.4206791056-3.205000776.0948909304-.7366455598.5156906089-1.4352919872.6222771177-2.1940527976.1323891252-.9348275299.1580711686-1.9037443136.2627285099-2.8466359681.3338665644-3.0147607467.5650049552-6.0315986163.9739884823-9.0483143023.2370464665-1.7336645957.5056830521-4.4881740499.7111393994-6.2258707079.0631802383-.5184254619.0197739677-1.6254098327.5273861874-1.9397885067.6479591612.6506282312,2.3410448592.3984410633,3.1785447351.8628613274.7329631077.4063830041.924553563,1.3271594079,1.0963700507,2.1780467322.1323891252.6685892359.5314856685,2.4101957724.7171680481,3.074752946.3140925967,1.1210354969.5115911278,1.9858517636.657846145,3.139021575.2014774392,1.5954748249.7012524156,3.1107971391,1.1675081052,4.6362607008.2034066068.660647295-.1917110283,1.7275554104.5965950743,1.839720052.8454576922-1.5734817579.7625034863-3.158937519,1.0844333263-4.9045761179.1719370606-.9309176513.7190972157-2.1140224706.8041011622-3.0668110052.0394273624-.4464592595.4246580137-1.8958023728.8633024924-2.2742053083.5867080905-.5064514588,2.5285358334,1.8477841765,2.9295615442,2.2541671807,1.6475091139,1.6654860881,2.8762682898,3.9416463357,3.7553658417,6.1156610056.979775985,2.4202148363,1.7108099251,5.0626818326,1.6178481623,7.705148829-.0177242271.5024193965.1165940657,1.9517625098-.2627285099,2.2380389315-.1974985311.1501637739-1.0785252506.1301256462-1.329437609.1281707069-.2153433312,0-.6973940804-.1021455777-.8355707084.0200381277-.2864813857.2521871679-.0336398597,2.2680961231-.0889828547,2.7105233203Zm-15.5073724514,19.0836285767c-2.167058058.6426862903-4.2591197262,1.737696658-6.6514080993,1.9038664973-1.2801232628.0879722679-1.9003506399-.2363032862-2.9987704312-.580616968-2.1196728793-.6626022343-4.545601112-1.2070528255-6.8766384143-1.4713361802-1.1576211214-.1301256462-3.1804739027-.3223206148-3.6802488791-1.0950103677-.3456827159-.5365086503.1600003362-.9909098507.8889845358-1.2011880076.501704144-.1440545887.9837548932-.1420996494,1.4696639776-.3082694887.6222771177-.2141880355,1.1023986994-.474439328,1.8708102614-.5864817858,2.8882050142-.4264211318,5.8118584827.3022824871,8.6959640159-.5505597765,1.7859268878-.5305216488,3.2871809845-.948878656,5.3081045982-.9448465937.9897835419.0019549393,4.5218482361.6506282312,5.594585984.7246715566l.3555696997.02407019c1.329437609.0740433255,5.2112845003.1340355248,5.5727622757,1.2330779547.3793225756,1.1430285639-1.7778484986,1.4593621771-2.9632014039,1.6075710118-2.3310373023.2922634233-4.3795721271.5905138481-6.5861781204,1.2450519579Z"/></svg>