<?xml version="1.0" encoding="UTF-8"?><svg id="Ebene_1" xmlns="http://www.w3.org/2000/svg" width="60" height="60" viewBox="0 0 60 60"><defs><style>.cls-1{fill:#fff;}</style></defs><g id="_7:_Frozen_in_Time"><path class="cls-1" d="m40.2422554314,25.5905143392l3.7324500825,1.1984890502c.327694244.1047622308.6817097724-.0747486505.7852708085-.4001049905.1073540596-.3253563399-.0734467281-.6749061362-.401026032-.7796683671l-3.7663574139-1.2078468965.8304422704-3.8423088774c.0714927463-.332774145-.1431004328-.6637223687-.4783807238-.7348191767-.3389583744-.0729227293-.6703307018.1402535748-.7419383883.4749677611l-.8229711634,3.8086434546c-.0678146629.0205416139-.1393074092.0317253814-.2052830304.0691567667l-1.5687025752.899380328.5725166711-2.6569436361c.0734467281-.3347141863-.141261391-.6637223687-.4782657837-.736645098-.3371193327-.0710968081-.670445642.142079496-.7420533284.4767936823l-.8097530512,3.7524963767-4.8209328922,2.7635317881v-5.5269494562l2.8681004806-2.5728371392c.2560865576-.2299519554.2768907169-.6225250208.0451714619-.8749586315-.2316043149-.254373652-.6251592399-.2749152658-.8812457975-.0449633104l-2.032026145,1.8230682324v-1.8005865772c0-.0747486505-.0244822427-.1402535748-.0413784384-.2112362628l2.909478919-2.6101544045c.2560865576-.2300660755.2768907169-.6226391409.0451714619-.8750727515-.2316043149-.2542595319-.6251592399-.2749152658-.8812457975-.0448491903l-2.9377541853,2.6344619809-2.9359151436-2.6344619809c-.2542475159-.2300660755-.6497564228-.2094103416-.8794067558.0448491903-.231719255.2524336106-.2128690775.645006676.0432174801.8750727515l2.9114329008,2.6119803257c-.0168961957.0691567668-.0433324202.134661691-.0433324202.2094103416v1.8005865772l-2.0319112049-1.8230682324c-.2542475159-.2299519554-.6497564228-.2094103416-.8794067558.0449633104-.231719255.2524336106-.2128690775.645006676.0432174801.8749586315l2.8681004806,2.5728371392v5.5269494562l-4.8209328922-2.7635317881-.8097530512-3.7524963767c-.0734467281-.3347141863-.4049339956-.5478904904-.7419383883-.4767936823-.3371193327.0729227293-.5498734701.4001049905-.4783807238.736645098l.5743557128,2.6569436361-1.5705416169-.899380328c-.0658606811-.0374313853-.1356293258-.0486151529-.2052830304-.0691567667l-.8210171816-3.8086434546c-.0734467281-.3347141863-.4049339956-.5478904904-.7420533284-.4749677611-.3370043926.0710968081-.5517125118.4001049905-.4801048254.7348191767l.8304422704,3.8423088774-3.7663574139,1.2078468965c-.327694244.1047622308-.5084950317.4543120271-.4011409721.7796683671.1055150179.3253563399.4557375228.5048672213.7852708085.3982790692l3.7324500825-1.1966631289c.0527575089.0505551942.0979289708.1047622308.1619506102.1440195374l1.570656557.899380328-2.6063818579.8338754037c-.327694244.1046481107-.5065410499.4543120271-.4011409721.7796683671.1055150179.3271822612.4595305463.5048672213.7872247903.4001049905l3.6778535318-1.1797733575,4.8189789104,2.7634176681-4.8189789104,2.7635317881-3.6778535318-1.1797733575c-.3295332857-.1047622308-.6817097724.0747486505-.7872247903.4001049905-.1054000778.3253563399.0734467281.6749061362.4011409721.7796683671l2.6063818579.835815445-1.570656557.8992662079c-.0640216394.0374313853-.1091931013.0934643432-.1619506102.142079496l-3.7342891242-1.1984890502c-.327694244-.1046481107-.6779167489.0748627706-.7834317668.4001049905-.1073540596.3253563399.0734467281.6750202563.4011409721.7797824871l3.7663574139,1.2078468965-.8304422704,3.8423088774c-.0716076864.3347141863.1431004328.6637223687.4801048254.7348191767.3371193327.0729227293.6686066002-.1402535748.7400993466-.4749677611l.8229711634-3.8086434546c.0696537046-.0205416139.1394223493-.0298994602.2052830304-.0691567668l1.5705416169-.899380328-.5743557128,2.6587695573c-.0714927463.332774145.141261391.6637223687.4783807238.7348191767.3370043926.0729227293.6684916601-.1402535748.7419383883-.4749677611l.811707033-3.7524963767,4.8189789104-2.7635317881v5.5269494562l-2.8681004806,2.5728371392c-.2560865576.2281260342-.274936735.6206990996-.0432174801.8749586315.229650333.254373652.6251592399.2730893446.8794067558.0449633104l2.0319112049-1.8230682324v1.798760656c0,.0747486505.0264362245.142079496.0433324202.2112362628l-2.9114329008,2.6120944458c-.2560865576.2280119141-.274936735.6206990996-.0432174801.8731327102.229650333.2560854531.6251592399.2748011458.8794067558.0448491903l2.9359151436-2.6326360597,2.9377541853,2.6326360597c.2560865576.2299519554.6496414826.2112362628.8812457975-.0448491903.231719255-.2524336106.2109150957-.6451207961-.0451714619-.8731327102l-2.909478919-2.6120944458c.0168961957-.0691567667.0413784384-.1364876123.0413784384-.2112362628v-1.798760656l2.032026145,1.8230682324c.2560865576.2281260342.6496414826.2094103416.8812457975-.0449633104.231719255-.2542595319.2109150957-.6468325973-.0451714619-.8749586315l-2.8681004806-2.5728371392v-5.5269494562l4.8209328922,2.7615917468.8097530512,3.7526104968c.0716076864.3365401075.4049339956.5478904904.7420533284.4767936823.3370043926-.0710968081.5517125118-.4020450318.4782657837-.736645098l-.5725166711-2.6569436361,1.5687025752.899380328c.0659756212.0373172652.1374683675.0486151529.2052830304.0691567668l.8229711634,3.8086434546c.0716076864.3347141863.4029800138.5478904904.7419383883.4749677611.335280291-.0710968081.5498734701-.4001049905.4783807238-.7348191767l-.8286032287-3.8423088774,3.7645183722-1.2078468965c.3275793039-.1047622308.5083800916-.4544261472.401026032-.7797824871-.1035610361-.3252422199-.4575765645-.5047531012-.7852708085-.4001049905l-3.7324500825,1.1984890502c-.0508035271-.0504410741-.0979289708-.1046481107-.1637896519-.142079496l-1.5668635335-.8992662079,2.6025888343-.835815445c.3295332857-.1047622308.5103340734-.4543120271.4029800138-.7796683671-.1054000778-.3253563399-.4575765645-.5048672213-.7852708085-.4001049905l-3.6778535318,1.1797733575-4.8209328922-2.7635317881,4.8209328922-2.7634176681,3.6778535318,1.1797733575c.327694244.1047622308.6798707307-.0729227293.7852708085-.4001049905.1073540596-.3253563399-.0734467281-.6750202563-.4029800138-.7796683671l-2.6025888343-.8338754037,1.5668635335-.899380328c.0658606811-.0392573065.1129861248-.0934643432.1637896519-.1440195374Z"/><path class="cls-1" d="m30.4230370624,4.341698335c-14.4025700608,0-26.0764619903,11.5904915152-26.0764619903,25.8903077818,0,14.2978762254,11.6738919295,25.8903077818,26.0764619903,25.8903077818,14.400616079,0,26.0763470502-11.5924315565,26.0763470502-25.8903077818,0-14.2998162667-11.6757309712-25.8903077818-26.0763470502-25.8903077818Zm22.5773403242,24.1552261289l.1055150179,4.8930124277-6.1861914787,5.6223538407,1.5723806586,1.7687470757-8.491200377,6.3496410924-3.9848585566-2.0809796067-7.3406499097,1.6659248862-1.6759416947,4.1638992548-8.4931543588-4.6855421274-2.0150150093,1.0096203225-3.3332630922-2.5708970979,1.8869717305-8.2230362788-1.8869717305-.1047622308-1.9923718083-4.4761317859-2.61948503-1.1442820135,3.564867407-6.3496410924,2.2014478622-1.041459824-1.6780106166-5.5175916099,5.0620772359-.233717918,2.6684495154-6.0692480628,7.9206376877-1.7948805733,2.1524833768,3.5898752668,5.158052225-.2805071496,2.8304001257-2.9148550104,5.0111587687,2.4268775606,2.0676575781,8.7186597738,3.3011948024-.1121800358,2.4123629579,6.7665217342,1.7814567126.6245791822Z"/><path class="cls-1" d="m60,29.0707202118l-1.2956048819-2.8569961313-.5743557128-3.8572586075-.5763096946-4.1414175996-3.884975604-5.5719127666-.7909028737-3.5711595741-6.043091046-4.285437137-2.2297231284.4281785294-1.3672125683-.7142775629.6478024409-.8581829801-9.9996743364-3.6422563822-8.4177536489.213062184-1.6553674156,2.2867381058-3.5253280103-.4281785294-6.6192858005,4.427516633-1.5819206875-.070982688s-3.237173163,2.3577207938-3.5253280103,2.9299188606c-.2881548473.5702580255-2.2297231284,4.9996005797-2.2297231284,4.9996005797,0,0-1.6552524755,1.4285551257-1.9434073228,2.0697958392-.2881548473.6432948749-2.2296081883,4.3584739863-2.2296081883,4.3584739863l.5761947545,1.8566195351-1.5121520428,4.5715361704-1.2222730939,1.2152647015s2.6609784085,13.2864299816,2.7344251366,13.6416857818c.0716076864.3570817214,3.1656804167,2.7858993233,3.4518812822,3.0719983567.2881548473.2860990334,0,2.0716217604,0,2.3577207938s2.3746626029,2.4288176019,2.6628174502,2.641993906c.2881548473.2150022253,3.0940727303,1.9295422644,3.0940727303,1.9295422644l3.3802735958,5.999977176,8.9206166154-.3570817214,4.7494401459,2.2847980645,5.1071337577-1.3574583176,6.6194007406.6431807548,1.6534134338-2.3557807525,3.4537203239-2.5017403312,8.9940633435-6.2842502882,1.2221581538-3.8572586075,2.4462702893-1.2153788216-.5761947545-3.3561573488,2.0865077556-10.6444360756Zm-29.5771928178,28.427539457c-15.1671516501,0-27.462409796-12.2075387723-27.462409796-27.2664817921C2.9603973863,15.1729489769,15.2556555322,2.9654102046,30.4228071822,2.9654102046s27.462409796,12.2075387723,27.462409796,27.2663676721c0,15.0589430198-12.2952581459,27.2664817921-27.462409796,27.2664817921Z"/></g></svg>