<?xml version="1.0" encoding="UTF-8"?><svg id="Ebene_1" xmlns="http://www.w3.org/2000/svg" width="60" height="60" viewBox="0 0 60 60"><defs><style>.cls-1{fill:#fff;fill-rule:evenodd;}</style></defs><path id="_8:_Vengeful_Sands" class="cls-1" d="m29.999349922,0c16.5671020157,0,30.000650078,13.4335229025,30.000650078,29.9993672238,0,16.5657652242-13.4335480623,30.0006327762-30.000650078,30.0006327762C13.4335530059,60,0,46.565132448,0,29.9993672238,0,13.4335229025,13.4335530059,0,29.999349922,0M7.6096697661,34.8098111954c-.2410429921.178838381-.5702049229.4367737904-.9512099567.6609347687-.3797048778.2241609783-.7464526875.3511908058-1.0458099012.3188401212-.2980620013-.0272884748-.5313287751-.2125337151-.6064906458-.4820963876-.0764620267-.270907322.0246189237-.5494870558.2643667033-.7283254368.2397477796-.1840587849.6168622325-.2682971201,1.0587719128-.2760486289.4419096804-.0064859563.8566050685.0401812904,1.1546670698.0661251157.3006524262.0336953341.4833811966.0453225972.4989286896.0971311508.0142572241.053153203-.1347762483.1594596091-.373223872.343439297m1.7624578716-16.752434211c.4639381791-.0881140896,1.3373908967-1.2324107983,2.8510345015-1.3477342656.470419185-.036305536-1.750796016-.7827441923-3.1750155825-.3317329368-.4509811111.1411881956-.7684861298.5377806956-.6777718226,1.0016847667.0894190947.4639831682.5378097809.7685067272,1.0017529036.6777824357m.8164287648-2.7356498216c.4004431077.1865898898.7982908469.3122750678,1.0821005676.4094853156.2864001457.0919898439.4587573293.1555047577.4937478398.1140579148.0349855669-.0415259399-.0583191652-.1995618025-.2008716318-.4665142731-.146438104-.2605456113-.3421239424-.6298496366-.5987144275-.9901366006-.2553002162-.360286964-.5391049934-.6233636802-.825505139-.7166190766-.2838097208-.0972102478-.5715050789-.0220680709-.7516384808.1930758461-.1788332459.215143917-.1995714758.5119159673-.0531284283.773648034.142547523.2656869181.453571536.4963338527.8540097001.6830028396m2.3663580925.8358182983c-.1088571686-1.513600734.8941909474-2.5464497299.9136290213-3.0181844068.0207332863-.4730002294-.3460145234-.8721238343-.8190241332-.8915817033-.4717143974-.0207234214-.8164337083.3511908058-.8903003665.8177050788-.2358571987,1.4760296456.8293907764,3.5637957082.7956954784,3.0920610313m-3.6013728263,18.4202741503c.2371573547-.4081406662-1.6341576855,1.0017638637-2.0682960912,2.4312053596-.1386618857.452276808.0090714307.9369043005.4419146239,1.1261834893.4341334621.1892000918.938247945-.0090961583,1.1274527777-.4432597467.1879096202-.432818939-.260481066-1.8000110736.4989286896-3.1141291022m-.2656619158-.5857134947c-1.3101815481-.7658965253-1.5952864813-2.1771457046-1.9723959906-2.4609458423-.3784146089-.2838001376-.9149242338-.2060477588-1.1987339545.1710077752-.2838047772.3784792805-.1723571837.8734684838.1710619712,1.1987945613,1.0833957801,1.0288941444,3.4069871439,1.3308865986,3.0000679739,1.0911435057m11.9510093306,16.4712442754c-.050542947-.0208025184-.1736573397.1153234673-.3835905151.3329984892-.2060574252.217754119-.4989336331.5157917217-.7646004925.8669825275-.2669620718.3525354552-.4341334621.7023816115-.436723887,1.0030294162-.0077712747.2993822522.1503237413.5520972577.4095145384.6583245667.25918091.1063064061.5481714805.0389157379.7542289057-.1801039335.2099331754-.2164094695.3369332055-.5818377404.3952573143-1.0198770832.0570190092-.4380393429.0583142217-.8553552643.0660854964-1.1546584195.0012952125-.3019924541.0103715867-.485972142-.0401713602-.5066955634M46.9306043789,15.4862489816c-.0609046466.469124475,1.1196765594-1.5563922263.9654671807-3.0415180302-.0479525221-.4703900274-.3719336031-.8617621236-.8449432129-.8682480799-.473019497-.0052204039-.8604956495.3731797796-.8669815988.8449144566-.0051808498.4730002294.9382578321,1.5603470778.746457631,3.0648516535m.938247945-.2734384269c.033695298.0427914923.2073526377-.016847667.4976384207-.1036171071.2851049332-.092068941.6855430973-.2086579607,1.0898668988-.3862307893.4043336886-.178838381.7205336078-.4017338069.8682669242-.6648105231.1529240533-.2578563123.1373716168-.5546283626-.0375809353-.773648034-.1736474526-.2202852239-.4600475982-.3006478047-.7451525315-.2099235132-.290285783.0867694401-.5779811411.3447048494-.842352788.6997714096-.2630665473.3538010077-.4665335476.7179637261-.6181525014.9771646879-.1503336284.2617320667-.2462287854.4185814739-.2125334875.4612938692M29.4628353535,6.4717979546c.1231143927.2760486289.1905049887.4471355011.244933573.4457908516.0544285843-.0012655525.1101523811-.1774937316.2138286999-.4612938692.0971903695-.2838001376.2410380485-.6751722338.3395335175-1.1054600679.0984855819-.4302087371.1075619562-.8177050788-.0155524365-1.0937537077-.115343118-.2760486289-.3628572288-.4406495448-.6427813122-.4315533865-.2812192959.0090961583-.5157812821.1905447412-.6129716516.4743448789-.1036763188.2838001376-.0686858084.6686862775.0596094341,1.0924090582.1270000301.4225363253.2980669449.8034676137.4134001757,1.0795162426m-3.0000580868.1335157838c.3758093533.2864103396,1.811695719.1774937316,2.9054581423,1.2298005964.34082873.32659163-.5818667785-1.8272204513-1.8661341904-2.5905067747-.4069142264-.2410877423-.9136191342-.215143917-1.2000192799.1606460645-.2864001457.3758690786-.2151239124.9123842217.160695328,1.2000601137m3.5378678677,1.1093358223c1.0574767004-1.0886124008,2.4946582785-1.0289732415,2.8601059322-1.3283554937s.419876238-.8385075973.1205239678-1.2039358681c-.2993621573-.3654282709-.8073622776-.3757899816-1.2039148044-.1205438712-1.2583433887.8074224651-2.1058770265,2.9923196785-1.7767150957,2.652835233m17.4029688543,8.2083732114c1.5045721741.19829625,2.3132296642,1.3891811085,2.7719820499,1.5045836728.4587622729.1139788178.9226955085-.1646009159,1.0380386265-.6220981278.1153332309-.4600283167-.1788381895-.8721238343-.6220480259-1.0393349522-1.3982955433-.5274189849-3.6558014106.0946000459-3.1879726506.1568494072m7.0848219969,17.531302649c.3667428661-.2981166998.5170764946-.7827441923.2630665473-1.1819468943-.2527048477-.3991236049-.7814382543-.5170572742-1.180581206-.2643422687s-.7931050535,1.6367548071-2.1590103984,2.2989551283c-.4250669749.2060477588,1.9140768254.0881140896,3.076525057-.8526659653m-3.1840870132,1.4876569087c.6557334367,1.3685367841.0997807944,2.6968131807.2540000601,3.1426831294.1542192658.4470564041.6414860997.684189295,1.0885716863.5300291868.4470954737-.1542392052.6311244001-.6259738822.5300385062-1.0873468484-.3200954436-1.4591819785-2.0760673659-3.0116984505-1.8726102527-2.5853654678m3.5534203043.234601786c-.2293712493-.1944204956-.6038952773-.2955064978-1.0458099012-.3227158756-.4393143119-.0272093777-.856600125.0013446495-1.1559622823.0142374651-.3019525822.019457869-.484676409.0233336234-.5028192705.0752212739-.016847649.0518085536.129590455.1646009159.3589715914.360286964.2319715614.1892000918.5494765801.4600283167.9188098711.7023816115.3706383906.2410086453.7309051945.3835414903,1.0315526771.3641627184.2993621573-.0129719126.5391049934-.1879345393.6285240881-.4536214574.0868286698-.2669524706-.0012952125-.5507526082-.2332667738-.7399527m1.7741246708-9.6235772422c-.2488192103,1.2583546236-1.7767150957.6933645503-1.6821151511-.3887618942.0570288963-.3201056736.2553051597-.4250674302.3589715914-.4470564041.3110289565-.0673906681.6557433238.0491983516.616867176.4716555799-.0596193212.6324598385-.8643812868.2501839006-.5222573444-.1774937316-.0959050441-.0117063602-.1697717023.019457869-.2190194368.0647804662-.0699711337.0673906681-.0881139952.1762281791-.0907143072.2669524706-.031094986.8954574577,1.1144957096.7425629019,1.250572114-.1865898898.0634950715-.4341635885.0777522956-.8034676137-.1594001156-1.1067256203-.6324097255-.8048122632-1.5110482364-.5805721879-2.4104200336-.2838001376-.1891998891.5883236967-.7788478294,2.6657280486-.9006670097,6.0908666661-.1334760923,3.7011081494-3.5456490296,4.004366156-4.324496859,3.8916528906,1.2842575248.9408591519,2.0307151558,1.6043250255,2.1538196614,3.3033291939.1101622682,1.5278381991-.7373713696,2.6656489516-1.0691336125,4.0238240249-.3563811665,1.4617921805-.4898572589,2.6048233368-.5365145685,3.1335078741.7192383953.5805721879,1.4527340147,1.0238319346,2.3235913638.5171363712.3563811665-.2073924083.4859716215-.5819168374.5948287901-1.0380693997.2319715614-.974554486-.8475336378-1.5771156478-1.1689242939-.6764377862-.0323901984.0906451945-.0583142217.2060477588-.0155425494.3006478047.0297997735.0647804662.0933047321.1243405285.1930855265.1516290033-.1723522401-.561193416.7775625041-.6233636802.5883527279.0284749302-.1270000301.4354291409-.5170764946.4147057195-.7982859033.2267711802-.0933146192-.0635149137-.2501144228-.2462290492-.1801334019-.5857134947.3304571433-1.1132115766,2.0721817285-1.0730302863,1.8233625182.2759695318-.3797048778,2.055336281-1.8337341049,1.9050519272-3.0013631864,1.2246592895.8073622776.8604965711,1.1598578068,2.0281269033-.4820859841,2.8523179384-1.146885908.5741653286-1.636753054-.9796957928-.7231240327-1.5667539371.2864001457-.1516290033.4924575709-.0595600623.5728002913.0090961583.2436383605.2047822063.3641524412.5481424063.0051808498.776258236-.5365046813.3395635426-.7283048825-.5300291868-.1788381895-.5209330285-.0505330598-.0829727827-.1192188682-.1231540731-.1866094642-.1347813363-.095895157-.0143165621-.1918002011.0388366409-.2656668593.0919898439-.7257144576.5235432305.0959050441,1.3361070025.9123338089.8747340362.3822953027-.2164094695.6842478849-.4315533865.777552617-.8047331662.1995714758-.7995918593-.225485612-1.315383581-.80865749-1.7637846346-.0038856374.053153203-.0051808498.0829727827-.0051808498.0829727827,0,0-.6129716516.1023515547-1.5952864813.684189295-.3278667184.1931549432-.6959047969.4393839923-1.0963528482.7529246126-.1943807389.1516290033-.3563712794.2890205415-.4976285336.4121746146-2.0605248165,1.8116383367-6.5470122159,3.4056807486-8.0049270804.4548079129-.0259141361.0117063602.0933047321.362897166.2138286999.7114777698.4121049633,1.0212217327.3991429517,3.1400729275-2.3741343107,4.1016555008-4.6096017922,1.5991046216-5.1733355964,2.1343542123-5.2433067301,2.2405815214.1075619562.8722029313.3395236304,1.6458509654,1.2738859381,1.8882042602.3991528388.1023515547.7542289057-.0712664225,1.1520766449-.3188401212.8514291623-.5300291868.5093052199-1.7170382909-.3537808545-1.3036772208-.0868286698.0427914923-.1866193513.1063064061-.2216098617.2034375569-.0246189237.0673906681-.0220284988.1529736528.0298096606.2436979443.2721429216-.5196674761.9900861044.1036171071.3978477392.4340844914-.3965525268.2203643209-.6583238616-.0686562206-.72700967-.4017338069-.0220284988-.1101030634-.0038856374-.3511908058.2851049332-.5430010994,1.017295453-.5572385645,2.2263911072.6972403047,1.101533698,1.4787189445-1.7171056616,1.1948397099-2.6436868074.0634358167-2.9948871241-1.2389758517-.0323901984,1.1779920428-.6038952773,2.2575082854-2.3495054999,1.6860322558-1.2194672409-.3991236049-.4743048223-1.8480229698.5883527279-1.622517342.3110190694.0946000459.3913617898.3045235591.4017333766.4095644127.0285045611.3161508222-.129590455.6466182066-.5429906307.5558939151-.6207528134-.1360468887-.1451428915-.8889715013.2397428361-.4963338527.0220284988-.0946000459.0012952124-.1723524247-.0388761478-.2255056278-.0583142217-.0790179313-.1645809654-.108837511-.2540000601-.1230749761-.8838193607-.1386570907-.8721624486,1.0172668813.033695298,1.2634959305.4224666629.1154025643.789209529.1749626267,1.118381347-.0245991758.7555241182-.4574972118.7723717672-1.189619306.6427714251-1.9788494546-2.4920579665-1.5784602972-5.0450304667-1.1158217786-7.2804979482-3.0816993206-.8073622776-.7102122173-1.8829818394-1.9374817088-1.5278958854-3.3253972648-.5378097809.955096617-.8928858479,1.1015843135-2.5983247103,1.1132115766-.6998003214.0077515088-2.267867567-.7853543942-3.3512584035-1.2725920887-1.3620197075-.6130019695-3.1154012048-.4911925459-3.483444227-.4574972118-.4069241135.4445252992-.6414860997.9460795558-.4056239575,1.6070143245.1308856674.3628180689.4522763235.5481424063.8540097001.7257152349.8579052246.3784001835,1.5965816938-.5119159673.8229147141-.9615825733-.0790524516-.0440570448-.1801334019-.0881140896-.27473829-.0635149137-.0647952275.0155030176-.1308856674.0635149137-.1736523961.1502843538.5468812116-.0634358167.4419096804.8216599302-.1257048176.5365151431-.3784096653-.1904656442-.2928762079-.5455322044-.0712762333-.773648034.0738666582-.0751421769.2682572842-.1879345393.5689097104-.0647804662.9680576056.4937236508.6337098815,2.0890316151-.5650191295,1.6302688508-1.7158055056-.6570590143-1.4786530944-1.8545089261-.762005124-2.7914132266-1.0937624233.7917612535-2.5257582081,1.0860021989-3.1063297741-.9227459324-.3797048778-1.3179146859,1.3490576959-1.5291828486,1.7870767953-.4548079129.1049715313.3317329368-.0336903544.5286845373-.1205190243.5999509598-.2617762784.2164885665-.647962162.2747830764-.8164337083-.1464085994-.2527048477-.6298496366.698505109-.6609347687.5818717221-.0855038876.097195313-.0375710885.1529191098-.1024306517.176242821-.1698213198.0349905104-.0984758003-.0025904249-.2099235132-.0440569976-.2980376027-.4082193259-.8643723255-1.4229292976-.1581149596-1.0963528482.7892301486.1529191098.4431806497.3200905001.8022020613.6933193156.9732098365.8216145581.3758690786,1.4592100769.0026102019,2.056629292-.5455322044.0868286698-.5819168374.1956858385-1.982804306-.5118907012-3.1271010148-.647962162-1.047086461-1.5952815377-2.8160124024-1.7987386509-3.6337965783-1.0885766299-4.3827663395,1.6432291162-5.6955397186,1.1715147188-5.6449967175-.5118907012.0816281332-2.0229389376-.8203152808-3.1413202845-4.2545500566-.598719371-1.8389268115-2.1421627494-3.1646721033-2.1421627494-3.1646721033,0,0,.0051808498-.0064859563.015547493-.0207234214-.6674002359-.1581149596-1.2920337431-.142532845-1.7741197272.4703900274-.2371524112.3032580066-.2228951871.6739066813-.159395172,1.1080702698.1347762483.9278872393,1.2816670999,1.080781795,1.2505671704.1853243374-.0025953685-.089458739-.0194430175-.1995618025-.0907192508-.2669524706-.049242791-.0454016943-.1231094492-.0752212739-.2203047622-.0648595632.3447143673.4290222816-.4613477542.80995357-.5209621319.178838381-.0401713602-.4237227807.3058382196-.539046248.6168622325-.4730002294.1023761628.0233336234.3019476386.1282953799.3576714354.4484010536.0959001006,1.080781795-1.4319957848,1.6458509654-1.6808100516.3874963418-.3550859541-1.8026212755.7840336228-2.2380504164,1.9581387665-2.1292129055-1.2518623829-.5040853615-2.2626817736-1.5616126302-.8695621366-3.1218806109.9136240778-1.0212217327,2.0112721384.3291227349,1.3348004718,1.2725920887-.2254905555.2630767162-.4652383352.251449453-.5728002913.2164094695-.3226858685-.1075719585-.5766859287-.4029993593-.3097238569-.7697722797.3978477392-.5481424063.9317669392.2397430929.3822953027.4484010536.0829430325.0609047118.1671763339.0751421769.2371573547.0582945099.1023761628-.0233336234.1775380335-.1140579148.2293761929-.1956860481.5144811261-.8060778157-.6220430823-1.2894397558-1.2518623829-.5093057654-.2941763639.3655073679-.5092953327.6972403047-.4548667484,1.1054600679.1244046616.9369833975.8358668386,1.2673716848,1.6652625586,1.4786398475.4095095948-.5637245209,1.6471196972-2.3508427788,3.0298677474-5.1279394433,2.3793201041-4.7768277346,5.6087593274-3.5534339975,5.4843546658-3.6791982725-.812548071-.7412182524-.5546574299-2.5062684395.1568047471-4.0562538065,1.6121291867-3.5106425052,2.3611722991-5.5477864697,2.2756437853-5.735721009.0038856374,0,.0103666432,0,.0155524365.0012655525-.3615669599-.5598487665-.8138432834-.9628481258-1.5667769767-.865637878-.3822953027.0479327992-.631114513.3226367785-.890295423.6764377862-.5546574299.756800367.1555095347,1.6691845887.760704968,1.0095153725.0609095901-.0660460187.1257048176-.1555047577.1218191803-.253980558-.0025953685-.0661251157-.033695298-.1399226431-.1101573246-.2008273549-.0557237968.5468768538-.8967764288.253980558-.4963382647-.2384775404.2669620718-.3292018319.5961240026-.1684766703.7697813423.0958655983.0583142217.0881140896.1270000301.3032580066-.0583191652.5715551267-.6907239471.8384285002-2.1758531038.1684766703-1.4708719326-.9032880635,1.0108193908-1.5344032525,2.1292007377-1.0458209085,2.8886154368-.1438774945-.5378097809-1.2388967547-.5170764946-2.7006889351,1.5706527269-2.8354702714,1.3672005573-.0881140896,1.2026195919,1.6445063159.0596193212,1.8428025659-.3460194669.0298195797-.5093002763-.1464085994-.5611334922-.2474946016-.1542192658-.3019924541-.1283001861-.6920199008.3187903441-.7658965253.6686954483-.1114477129.4963432082.8241910351-.0414665727.5870581442.0155524365.1023515547.067390596.1710868723.1282952425.2086579607.0881238823.0544187555.2060574252.0427123953.3006573698.0207234214.9317718828-.2138783646.4600475982-1.3542202219-.535219356-1.2402414041-.4652333916.0544187555-.8527144876.1400017401-1.1002384855.469124475-.567614498.7529246126-.2928762079,1.4864704533.14773826,2.2186716445,1.049690595.0012655525,4.7327112414-.1568494072,7.2623600303-.6298496365,2.0242292065-.379665736,3.5339822304.6830028396,4.3154204847,1.6458509654.4613526978.5261534324.8371719382,1.5317930505.8890100976,1.5291828486.2060475381-.9784302404,1.653600703-3.0428626796,4.2946871984-3.390177731,1.3075911232-.1736179772,2.6722012556.2747830764,3.5793443275.4017338069,2.2691627795.3214503231,3.6558014106.1490978984,3.8838873346.1154025643.4561619609-.8734684838.8138383399-1.7353097044.095895157-2.524460756-.2773237714-.3046026561-.6699906608-.3551456572-1.1391146333-.3655073679-1.0017529036-.0233336234-1.3659053449,1.1572686214-.4172858131,1.2842984489.0945999446.0116272632.2125334875.0142374651.2967618453-.0479327992.0570288963-.0440570448.1023811064-.1166681168.1075619562-.2203643209-.5131809701.2864103396-.7710666676-.6297705395-.0945999445-.5805721879.4522763235.0324297816.5131908572.4173159214.3874860396.7322011912-.0414764598.1049617566-.1879145638.2967720503-.535219356.2993822522-1.1572574947-.0919898439-1.4799433633-1.8026212755-.1101523811-1.840192364,2.09032459-.0583736069,2.2458390682,1.3956670648,1.8246577306,2.6786208642.6738861853-.9693340821,1.7417245853-1.5576577788,2.8886203804-.1230749761.8021715407,1.0017638637-.6155719636,1.8052314775-1.3801625689,1.0341145483-.2086478501-.2501048036-.160695328-.4703900274-.1114475935-.5637245209.1490285289-.2799243832.4613428107-.469124475.7581145431-.1658664684.4458002613.4536214574-.3667428661.8229254827-.4717143974.2838001376-.0699810209.0661251157-.0959050441.1426119421-.0920095196.2100026102.0051808498.0971311508.0777522956.1813694859.1451428915.2410086453.6635145985.6012956093,1.2868479497-.3732588767.664809811-1.0756404882-.2915908826-.3278571824-.5637338042-.577961986-.9486195318-.5909338986-1.0017529036-.036305536-1.4021910677.7451731038-1.7507910724,1.6043250255.2060475381.6194879258.8216096146,2.1720043978,2.1473435992,3.4135113544,3.0532013458,2.8561936928,1.9322196868,4.978920642,1.5460387468,5.9768087513.050542947.0635149137,3.1996394498-.3836205874,4.4346492401,1.4591819785,2.3987631215,3.5728918665,3.9396111314,4.6342948895,4.3426496075,4.870083131,1.0458099012-.2254265307,2.0695913036-.4651696236,2.2212102574-1.6069352274.0544285843-.4082197632-.160695328-.7412182524-.4548667484-1.1053809708-.6298193006-.7814786399-1.766343509-.2967720503-1.250572114.5093057654.050542947.0802834838.1257048176.1723524247.228085924.1956860481.0686858084.0155030176.1542093787.0025311049.2371524112-.0596391594-.549466693-.2073924083-.0155524365-.9952779074.3822953027-.4471355011.2669620718.3667729203.0116667992.6622794182-.3097238569.7698513767-.1075619562.0349608865-.3473047922.0465881497-.5728002913-.217754119-.6764667231-.9421247044.4211813376-2.2938138214,1.3348004718-1.2713265363,1.3931245806,1.5603470778.3823051898,2.616529697-.8695621366,3.1218806109,1.1741051437-.1101030634,2.3145248766.32659163,1.9581437101,2.1292129055m-4.7702971203-1.5369343574s-1.5214198231-.684268392-4.1404778197-4.5850174409c-1.1507814325-1.7157727384-4.0808683856-1.2998014665-4.1288209076-1.3594406258.3589715914-.9291527917,1.4021910677-2.9053920444-1.4384767906-5.5646341367-1.5810193701-1.4787189445-2.0773625783-3.4329692233-2.0773625783-3.4329692233,0,0-1.329619622.2255056278-3.6480301359-.1023515547-.8462384254-.1191992217-2.1149435137-.5365151431-3.3318203296-.3757899816-2.459657881.3252469805-3.6130396255,2.4907654219-3.8048299395,3.4018049942-.0479525221.0025311049-.3797048778-1.1261834893-.8099527025-1.6147658332-.7270195571-.8968021071-2.3456297497-1.9386681642-4.2298969144-1.586211806-2.6268391584.4911925459-6.5910692135.6181432764-6.996693171.5793066354-.0051857934-.0117063602-.0142572241-.0155821146-.0272142922-.0117063602-.0142572241.0052204039-.0038905809.0090961583.0272142922.0117063602.0816428765.1762281791-.61556702,2.0734495005-2.1175438257,5.3418178079-.6622144425,1.4423343115-.6622144425,2.9974609854.0933096757,3.6868706843.1166333869.1179336692-3.1296584289-.9317629937-5.3456878365,3.5145973566-1.5771386763,3.1684687606-2.9534106643,4.9543214661-2.9534106643,4.9543214661,0,0,1.4371766346,1.2336763508,1.9944244894,2.9455733348,1.0419242639,3.1983674373,2.4492961814,4.0368750346,2.9236059473,3.9603882082.4406144679-.0466672467-2.1032866016,1.1767264904-1.0898718424,5.2562348233.1905000451.7620207709,1.0717289809,2.4078717363,1.6756292018,3.3836917747.8527194312,1.3801640472.4289526123,3.1646721033.4289526123,3.1646721033,0,0,1.8842721083-.2216298734,3.3097918309.4185814739,1.0069288099.4548870099,2.4674340993,1.1934950604,3.1192818986,1.1870882011,1.588810419-.0117063602,2.138277112-.2436979443,2.6398011701-1.1314038932-.5235525568.9266216868.4496858986,2.5284156074,1.2026195919,3.1892712791,2.138277112,1.8817183038,4.5888685059,1.3736780909,6.9707740913,2.9961954329,0,0,.0090763743-.41336107,4.8908210881-2.1058792821,2.5814770613-.8954574577,2.6696009436-3.3072049483,2.2860104284-4.2584258109-.112742806-.323981428-.4211813376-.9175255286-.3978477392-.9278872393,1.2324193654,3.2385487277,5.6580021183,1.9672221915,7.5772696806.2812690327.129590455-.1153234673.2812094087-.2423532948.4613428107-.3836205874.3732288155-.2915516464.7166479704-.522277678,1.0211909775-.7023816115.9149242338-.5403908975,1.4864293127-.6363355929,1.4864293127-.6363355929,0,0,.0583142217-1.3205248879.5209621319-3.2164806568.3084286445-1.2647614829,1.0976480606-2.3235543041.9952669542-3.7465098436-.1153332309-1.5823360516-.729609982-2.3222887516-1.9244484121-3.1983674373.7244192451.1050408536,3.820382376-.0544187555,3.9434967688-3.5002807945.1373716168-3.8100247574.8941909474-5.8329312568.8941909474-5.8329312568M16.6331924556,7.8533066513c-.0155524365.0064859563-.0051857934.0103617107.0298047171.0142374651-.0064810058-.0142374651-.016847649-.0181923165-.0298047171-.0142374651m4.0666012744,41.7637846346c-1.4112575549.5572385645-2.6968102922-.089458739-3.1529771966.0336953341-.4574621169.1230749761-.728309826.5921994511-.6051954333,1.0483520134.1231094492.4562316594.5818667785.6739066813,1.0484003261.6052504607,1.4786481508-.2190196714,3.1490965028-1.8609948824,2.7097723038-1.6872978082m18.582264735-.1464876965c-.3810000902,1.4682781368-1.6613719777,2.1253371511-1.83114368,2.5672522483-.1697618152.4406495448.0492477345.9356387481.4911524713,1.1054600679.4406194115.1710077752.8851244603-.0712664225,1.1054292224-.4898478964.6959146841-1.3232141868.3537907416-3.6402825346.2345619863-3.1828644198m3.6246965376-.7827441923c-.4691239725-.0634358167-1.6626671901.740031797-3.1335440663.3655073679-.4574571733-.1166681168,1.4073719175,1.3024116684,2.9015725049,1.3308865986.473019497.0090961583.8993717972-.2643422687.9641719683-.7322011912.0634950715-.469124475-.2643716469-.9006778615-.7322004069-.9641927753m-21.5810276094,1.0795162426c-.1749525521-.4379602458-.2215999746,1.9050519272.6363052499,3.1283665673.2708477091.3874963418.743857319.5715551267,1.1598479196.3460494989.4159906006-.2242400753.5702098664-.7439075514.3460095798-1.1585341739-.2241903995-.416050369-1.5784289452-.9071638179-2.1421627494-2.3158818923m19.9313224309,1.2518686673c-.3200954436-.3045235591-.6570385363-.5520181607-.8941909474-.7347322961-.2423431481-.178838381-.3861908271-.2942409454-.4328382496-.2656869181-.0453620972.0284749302-.0077811618.2086579607.0427617851.505430011.0544285843.2954274008.1231143927.7062573659.2501144228,1.1299801466.1270000301.4225363253.3110190694.7646309728.552067005.9434693539.2384476236.1827141354.535219356.2034375569.7736669796.0570289574.2384476236-.1464876965.3537808545-.4199261234.2993522702-.7140879717-.0505330598-.2980376027-.2721429216-.6155330744-.5909332657-.921401283m8.3444507109-21.1857435516c.1282952425-3.5391965324.8293907764-5.4156944324.8293907764-5.4156944324,0,0-1.4125527673-.6363355929-3.8437060873-4.2596913634-1.070438712-1.5926977623-3.791877815-1.2078116225-3.8359348126-1.262230378.3343427806-.8631067731,1.3036955987-2.6981578302-1.3348103589-5.1681998307-1.4682765641-1.3723334414-1.9296292619-3.1879266296-1.9296292619-3.1879266296,0,0-1.2350097903.2099235132-3.3875441264-.0946000459-.7853337788-.1114477129-1.9646197723-.4976785022-3.0959631309-.3486597009-2.2834200035.3006478047-3.3538488284,2.3132716904-3.5326870179,3.1581861469-.0440668847.0026102019-.3524955292-1.044476259-.7516384808-1.4993632689-.6751813977-.832021641-2.1784484723-1.8013557231-3.9279443322-1.4734985407-2.6320298953.4938027478-6.7102979689.5922785481-6.5236885047.5287636344.1866193513-.0647804662-.4496809551,1.7248688967-1.9412911175,4.9711691332-.614266864,1.3399827568-.6155620765,2.7836617178.0868286698,3.4237939681.1075619562.108916608-2.9067582983-.865637878-4.9646877463,3.2631479035-1.4656861392,2.9430422299-2.7421723893,4.6018651079-2.7421723893,4.6018651079,0,0,1.3348004718,1.1455622612,1.8518769664,2.7357289187.9667574496,2.9702516076,2.2743436293,3.7491200456,2.7149580972,3.677774526.4095145384-.0427123953-1.9529579167,1.0924881552-1.0121146032,4.8817894912.176242821.7062573659.9952669542,2.2354402145,1.5551101775,3.1413384799.7931050535,1.2816091499.3991429517,2.940432028.3991429517,2.940432028,0,0,1.74949586-.2073133112,3.0739296886.3887618942.9356575201.4211916758,2.2924864907,1.1080702698,2.8963916551,1.100239664,1.4747625135-.0103617107,1.9866482711-.2255056278,2.4518866063-1.0496966629-.4859716215.8604965711.4185810255,2.3482325769,1.1170861345,2.9625000989,1.9853530587,1.7469369676,4.262297,1.2752022906,6.4744407702,2.7823170683,0,0,.0077712747-.3835414903,4.5409159838-1.9555158313,2.3987532344-.8320216409,2.479105842-3.0713376098,2.1227246755-3.9551678043-.1036763188-.3006478047-.3900764645-.8514004129-.3680380786-.8617621236,1.1442954831,3.0078226961,5.2549735293,1.8272204513,7.0355742623.2617320667.1218092932-.1075719585.2617713349-.2255056278.4302379376-.3576767621.3460194669-.270828225.6635145985-.4833619401.9473243193-.650573058.8501240627-.502740712,1.3801625689-.5909338986,1.3801625689-.5909338986,0,0,.0531333719-1.2285350439.4833811966-2.9870992747.2876953581-1.1741162885,1.0198858779-2.1589533881.9239907209-3.479557373-.1062667437-1.4695436892-.6764766102-2.1576878357-1.7870767953-2.9715171601.6738762982.0984758003,3.5482394545-.0492774486,3.6635726854-3.2501759909m-12.5756428377-14.7152902465c-.3486098918-.1075719585,1.45401934-.2928171989,2.4518866063.2890205415.3161999192.1839796879.4885620464.5365151431.3421239424.8721238343-.146438104.3343431387-.5365145685.4873167915-.8708672362.340829095-.3356379931-.1464085994-.7995811158-1.1572686214-1.9231433125-1.5019734709m-2.7836488491-.505350914c-.3369430926-.1412672926-.4950479958-.5300291868-.3524955292-.8669825275.1412572542-.3369533407.5157812821-.4548870099.8669717117-.3525354552,1.1093148598.3227158756,2.2173345072,1.7572986783,1.898534276,1.5771947448-1.02248619-.5754308811-2.0760673659-.215143917-2.4130104585-.3576767621m3.0078392486-.1010860022c-.3382383051.1360468887.9460291069-1.1430311563,2.0877341651-1.3192593354.3615620163-.0544187555.7166479704.1101030634.8138383399.4626385187.0972002566.3538010077-.1088571686.7179637261-.4626479103.8138293244-.3524856421.0972102478-1.3490478087-.3965925-2.4389245947.0427914923m-2.1525343361-1.8946902165c-.1762378775-.3213712261-.0583142217-.7231050329.261781222-.899333212.3213906561-.1749626267.6881335222-.0350399835.8993717972.2630767162.6686954483.9421247044.6453717371,2.7551076906.5067049078,2.415544148-.4432098364-1.0859231019-1.4929053749-1.4591819785-1.6678579271-1.7792876522m3.079115482.3045235591c-.2047523256.2734384269-.4302379376.505430011-.5883428408.6752513308-.1619905405.1683975733-.2552952726.2747039794-.2954765199.2578563123-.0388761478-.0155821146-.0323901984-.1568494072-.0323901984-.3901065437.0051808498-.231912487.0038856374-.5546283626.04535221-.8941919052.0427617851-.3394844456.1386668293-.6220190307.3006573698-.7904957011.1581049031-.1697422228.3810000902-.2241609783.5818667785-.1437983975.2021619007.0816281332.3252762934.2759695318.3200954436.5079611159,0,.2332571365-.1270000301.5040853615-.3317622428.7775237884m-16.5606160663,2.2056997319c-.3058382196.2009064519.6998003214-1.3075529752,1.7844863704-1.7080212296.3421239424-.125685178.7244291322-.0336953341.8890100976.2928962959.1645809654.3252469805.0349905104.7243705854-.2915809955.8889715013-.3252762935.1658664684-1.4021910677-.1205438712-2.3819154726.5261534324m-2.1628960357,1.8246893464c-.323981081.1697422228-.7231240327.0440570448-.8928858479-.2799243832-.1697717023-.323981428-.0220383859-.6881441464.2799141963-.8929263528.955095594-.650573058,2.7668012001-.5909338986,2.4259724701-.4600283167-1.0950576357.4224572283-1.4877245251,1.4644023824-1.8130008186,1.6328790527m1.8376197423-2.3845381129c-.1114475935.3485806038-.2786189838-1.4565717766.3136193814-2.4493185791.1866094642-.3136197173.5404002058-.4820172906.873447774-.3329984892.3343526677.1502843538.4833811966.54165645.3343526677.8759995887-.1503336284.3330775863-1.166333869.7879645962-1.5214198231,1.9063174797m-2.8315914841.4536214574c-.3589715914-.0687353176-.5948287901-.4147057195-.5261429817-.7737271311.0686858084-.3589423145.4095046513-.5533628102.7749621921-.5261534324,1.1520766449.0842383352,2.5348296388,1.2570890712,2.186219747,1.1469069107-1.1209717719-.3498461563-2.0760673659.2228954258-2.4350389573.1529736528m2.1952961212-2.1797559066c.0803427205.3329984892.1166284433.6531041629.146438104.882485545.0272192357.2319915841.0492477345.3732588767.0116667992.3927167456-.0375809353.0207234214-.1438476791-.0738766245-.3226858685-.2229745228-.1762477646-.1515499063-.4263621874-.3550665601-.6596289612-.6051713637-.2345619863-.2488392511-.3926668894-.5028198091-.4185810256-.7348113931-.0311048731-.2293813821.0699810209-.4366946934.2604761224-.5403908975.1905049887-.1023515546.4185909127-.0738766245.5948287901.0764868264.1788381895.1490188014.307133432.4198470263.3874860396.7516590602m-6.558669128,13.9700380457c.0051808498.3654282709-.7231289762-1.2945810626-.4743097659-2.4233747538.0790524516-.3576767621.3615620163-.6285049871.7257194011-.5921994511.3641524412.0375710885.6285191445.3615525165.5909382092.7257152349-.0362857229.3641627184-.857900281,1.1157426815-.8423478445,2.28985897m.370633447,2.8043851393c-.033695298.3641627184-.3550859541.6337253909-.7192383953.6012956093-.3641573848-.0323506846-.5909431528-.3524563582-.6000145835-.7178846291-.032395142-1.1547375165.9952718978-2.6488803816.9214052396-2.289938067-.2358621423,1.1495171126.4289476687,2.0423643684.3978477392,2.4065270868m-1.0173003966-2.8328600694c.2332667738.2811899357-1.376271988-.5507526082-1.8933484826-1.5849462536-.163285753-.3278571824-.1140380184-.7166190766.1918002011-.9161808791.307133432-.1996408995.7166430268-.1140579148.9175146587.1917311967.1995714758.3058682085.0336903544,1.407373425.7840336228,2.309395936m-1.1456005827,2.6294225126c-.2514046917.2643422687-.6699906608.2760486289-.9356525766.0245991758-.2656668593-.251370356-.244933573-.6440871016-.0246238673-.9356387481.6920241031-.9252770373,2.4259675266-1.4566508736,2.1460483867-1.2207835352-.9006670097.7542692621-.9343623077,1.8661361893-1.1857719429,2.1318231074m-.6505525869-3.0246703631c.3226858685.1114477129.6129716516.2539805579.8216145581.3524563582.2099430626.1023515547.34082873.1607251616.3369430926.2021720044-.0025904249.0427914923-.1399620417.0803625808-.3628572288.1516290033-.2216049182.0660460187-.5287383502.1658664684-.8643812868.2293813821-.3356478802.0621702643-.6350050939.0582945099-.8449432129-.0454016943-.2099430626-.0984758003-.3291668744-.2941618483-.3136144378-.5105713178.0155524365-.215143917.1619905405-.3926376486.3848906711-.4587627643.2215999746-.0712664225.5183667635-.0323506846.8423478445.0790970283m33.6862512622-.1490978984c-.1179236558-.3447048494,1.0924672108,1.0043740657,1.2091055413,2.1538911783.0362857229.3641627184-.1477432035.7101331203-.5041144829.7892301486-.357676379.0777523788-.7101719081-.1477532489-.7892194162-.5041644585-.0790573951-.3576767621.4665335476-1.3282763967.0842283578-2.4389568684m-1.2285337281-2.5477943794c-.0829331454-.3563321126.1386668293-.7127433222.4937527833-.7956370079.3563712794-.0829727827.6712858732.1490188014.7956954784.4937236508.3913716769,1.0872677513-.1166383305,2.8264532102-.1594001156,2.4635560442-.1360764044-1.1663647797-1.0471051137-1.8064970299-1.1300481461-2.1616426871m1.8518769664,2.3729108497c-.3097238569-.1944204956,1.4799433633.0919898439,2.2937915903.9135706771.2578856975.2592009618.3330475682.6440871016.1036664317.9292318888-.2267808244.2864103396-.6427714251.3329984892-.9291715707.1049617566-.2864001457-.2281158297-.4743147094-1.3244797393-1.4682864512-1.9477643225m.2656668593-2.8562727898c.1555144782-.3304673843.5507619054-.4717346769.8812289358-.3161508222.3304571433.1567703101.4341334621.5351704936.3161999192.8812199926-.3680380786,1.0963639096-1.8479814419,2.1421057211-1.6561911279,1.8324408552.6181623885-.9991536618.3032477947-2.0656979917.4587622729-2.3975100256m1.5641816082,2.669603803c-.3421239424-.0038757544-.6609241736-.0505430011-.8916005225-.0777523788-.2306763489-.0310851321-.3719237159-.0453225972-.3822953027-.0867694401-.0103715867-.0401812904.1075619562-.1192783187.2967618453-.2565907599.1905049887-.1335157838.4509909982-.323981428.7490480559-.488582344.2993621573-.1646009159.5870575154-.254059655.8164287648-.2216298734.2306763489.0272093777.405628901.1762281791.4587622729.3862307893.0518381594.2111890656-.0311048731.4237227807-.2215999746.5572385645-.1892097762.1360468887-.4833811966.1930758461-.825505139.1878554423m-5.4376973561,13.1044001677c.1995714758-.307133761-.1166383305,1.4786398475-.9512099567,2.2782317068-.2630764344.2527150055-.6492573745.3214503231-.9317718828.089458739-.2825145083-.2332571365-.3213906561-.650573058-.0894190947-.9317629937.2332667738-.2825345852,1.3335052593-.4510112555,1.9724009342-1.4359274522m1.2492670144-2.5386982211c.2293811364-.2850656901.6466669495-.3304673843.9304766703-.1010860022.2851049332.2281158297.2967618453.6207534783.1023712193.9304974412-.6155620765.9784302404-2.298962553,1.6497267198-2.039781643,1.3931359599.8345716262-.8255356846.7788478294-1.9374026118,1.0069337534-2.2225473989m-.72700967,2.921053256c-.0375809353-.3641627184.8384572635,1.2220490876.6946095845,2.3689559983-.0466474225.3628180689-.3032477947.6595901192-.6686954483.6557143648s-.6596289612-.3032580066-.6544382243-.6686862775c.0025904249-.3655073679.7503333813-1.189698403.6285240881-2.3559840857m2.4117152461-1.5512509195c.3576664919-.0803625808.7114572335.142532845.7931050535.4989440547.0803427205.3563321126-.1542192658.6699518299-.4989336331.7917612535-1.0911719984.3848861398-2.8264106343-.1360468887-2.4635534055-.1748835296,1.1676290815-.1282953799,1.8130008186-1.0354591978,2.1693819851-1.1158217786m-1.137829308,2.8769171142c-.2060475381-.2720937774-.3680380786-.5520181607-.487266834-.7503144107-.1179236558-.2008273549-.1943807389-.3213712261-.1671713903-.3550665601.0246189237-.0324297816.1594001156.0116272632.3848857276.0764868264.2216098617.0673115711.5326289311.1541601082.8462384254.2889414445.3149145938.1335157838.5598481668.3045235591.6777718226.505430011.1205239678.1995618025.1114475935.4289431846-.0220284988.6000300569-.1334859794.1710077752-.3537907416.2358673385-.5753907162.1684766703-.2242002866-.0648595632-.4496858986-.2618111638-.6570385363-.5339840382m-14.5428629221,4.4152752181c.3654575408.0038757544-1.310171661.6958956552-2.4324485324.4224572283-.3563811665-.0868485371-.6207429263-.3757899816-.5766859287-.7386871475.0453620972-.362897166.3758192404-.6207534783.7386764692-.575351784.3628572288.0440570448,1.0963528482.882485545,2.2704579919.8915817033m2.8134585097-.3084784105c.3628572288.0401812904.6246285636.3667729203.5844572034.7309356387-.0401713602.3628180689-.3654476537.5831823898-.7308953074.5844479423-1.154676957.0077515088-2.6268391584-1.0523068648-2.2691726666-.9706787316,1.1443053702.2605456113,2.0514484422-.3848861398,2.4156107705-.3447048494m-2.8549250824.955096617c.2864001457-.2280367327-.5805715661,1.3633163802-1.6263814673,1.8583846805-.3304670304.1555047577-.7179431829.0984758003-.9123338089-.2125337151-.1930954136-.3097439629-.0984855819-.7179637261.2125334875-.9110395722.3097238569-.1944204956,1.4073719175-.0051413068,2.3261817887-.7348113931m2.6035154472,1.2013256662c.25918091.2579354094.2617713349.6765168833.0038856374.9369833975-.256590485.2592009618-.647962162.2293813821-.9356575201.0038757544-.909743384-.7127433222-1.4034862802-2.4570700879-1.1754003562-2.1720043978.7347809447.9162599761,1.8466862294.974554486,2.107172239,1.2311452459m-3.0389441217.5857925918c.1179236558-.3213712261.2682572842-.6065160132.3706285035-.8151739739.1075619562-.2073133112.1684764899-.3356086912.2099430626-.3317329368s.0764570831.1412672926.1425524666.3654282709c.062199859.2228954258.1555144782.5326393887.211238275.8695927294s.04535221.6363355929-.0635049586.8436489041c-.1023712193.2086579607-.3006474826.323981428-.5170666075.3032580066-.2151239124-.0207234214-.388781252-.1710868723-.4496858986-.3952478505-.067390596-.2228954258-.0220383859-.5196674761.095895157-.8397731497m-10.7315470332-7.4956298892c.2747333465.2410086453-1.4462530089-.3292018319-2.1175438257-1.2700609838-.2125285439-.2966929532-.2254905555-.6894096989.0466573096-.9356387481.2708477091-.2448843997.6894287347-.2241609783.9343573641.0466672467.2462287854.270828225.2540050037,1.3840398016,1.136529152,2.1590324851m2.3313626385,1.6030594731c.2488192103.268218023.2332667738.6867994969-.033695298.9356387481-.2682572842.2488392511-.6583238616.2034375569-.9369527326-.0336953341-.8786385109-.7503144107-1.2998099614-2.5128334928-1.0833908365-2.2185925475.6959146841.9447349063,1.8052196567,1.0483520134,2.0540388671,1.3166491335m-2.7849440616-1.1416865068c.3654575408.0155030176-1.3309098909.6531041629-2.4454006569.3447048494-.3511953732-.0972102478-.6077908018-.3939822981-.552067005-.7555348146.0570239528-.3615525165.3952573143-.6091262151.7555241182-.5520972577.3615620163.055763405,1.069138556.9162599761,2.2419435437.9629272228m1.1857719429,2.6112301961c.0285144482.3641627184-.2449236859.6830028396-.6090860142.7127433222-.3641524412.0272884748-.6401810002-.2501048036-.7114572335-.6090471181-.2228951871-1.1339349981.5429906307-2.7771757615.5300286191-2.4117474906-.0427617851,1.172850736.7620100676,1.9438885681.7905146286,2.3080512865m-2.6825580116-1.5421547612c.2993572137-.1658664684.598719371-.2838001376.8125431274-.3745244291.2164191248-.0867694401.3460145234-.145143047.3758192404-.1139788178.0298047171.0297404827-.0349905104.1580358626-.1308856674.3705695777-.0984905255.2086579607-.2293811365.5041644585-.4082193259.7957161049-.1788381895.2916307434-.3822953027.5105713178-.5987144275.5974198549-.2138286999.0907242915-.4393192554.0479327992-.5896479403-.108837511-.1503286849-.1568494072-.1827238268-.3836205874-.0842333014-.5935441005.097195313-.2112681627.323981081-.4069542107.6233382947-.5728206791m8.9859417542-24.3621220151c-4.2558209377,1.4034976706-7.6524364948,5.1564934705-8.6256749503,9.5302427488-.9732384555,4.3750939277.5105954888,9.2140919266,3.7711395851,12.2893052908-1.7041436499-2.6514905835-2.3935723846-5.9379721104-1.8998294884-9.0507565631.0660953835,4.5344744398,2.8950964427,8.9172407793,7.0005837519,10.8456263298,4.1041920968,1.9270409011,9.2840037555,1.3036772208,12.8153955609-1.5408892088-3.5508298794,1.2557444217-7.7794315813.3213712261-10.4697658113-2.3145372428,1.9374005366,1.6976595189,4.6705064388,2.4441772723,7.2014504402,1.965956639,2.5296389019-.4782206333,4.8026873187-2.1706597483,5.9871640491-4.4579876134.7594097555-1.4670125843,1.0600671253-3.1594516994.8954861599-4.8000822609-.1762477646-1.7715361434-.9278763583-3.1258354624-1.8492865415-4.6044753099.8060670651,2.5063475365.3719336031,5.3807335458-1.1391146333,7.5371558291,1.4034862802-2.742214875.614266864-6.4226787-1.7896672202-8.349719601-2.4052391838-1.9256962516-6.1698977631-1.8920009175-8.5401464365.0764868264,1.5758484074-.5105713178,3.338306279-.4173159214,4.8506497278.2553252074,1.5136386613.6738275843,2.7629056757,1.9205549448,3.4380870734,3.4316245739-.9654671807-1.6393650091-2.8121632973-2.7241016555-4.713278111-2.7694242527-1.9037151258-.0453225972-3.7996490897.9498762132-4.8415733536,2.5425739755-1.0432194763,1.5914322099-1.1987339545,3.7271310717-.3965525268,5.4532655208-.0246288108-1.6146867362.5546475428-3.2333283239,1.5978670191-4.4657391222-1.0380287394,1.7287446511-.580571566,4.2117585642,1.0276769269,5.428666345,1.6095338183,1.2168286837,4.1508395193.9641136782,5.4623162798-.5689449247-1.5615911833.955096617-3.8113158889.5468768538-4.9374685106-.8954574577-1.1261625088-1.4424134085-.9758288804-3.7245208698.3278667184-5.0074746692,1.2933338991-1.2713265363,3.4976965075-1.4138593813,5.0152306932-.4238018778,1.5188195111.9901366006,2.2782292666,2.9651103008,1.943886486,4.7482737074-.3330574553,1.7818978541-1.6821151511,3.3045947464-3.3629252027,3.9837218316-1.6808199387.6790479882-3.6415540737.5442666519-5.2808975526-.2293813821-1.2648194509-.5974198549-2.3546863497-1.5616126302-3.0998487683-2.7460906294-.7347908318-1.1688958846-1.1300481461-2.5335569143-1.2635242385-3.9085005576-.2993621573-3.0739478118.7373812567-6.2554675821,2.7888296989-8.564784421-1.2181720284,1.803965925-1.8777911025,3.9785014277-1.8674294029,6.1556471323.743857319-2.5516701338,2.5218676271-4.7845792434,4.8415733536-6.0791603059,2.3197057264-1.2959257121,5.1525924229-1.6393650091,7.7146412974-.9357178451-2.2536103429-1.9567813837-5.2083261068-3.0518797409-8.1863556948-3.1503555411-1.4942005874-.0505430011-2.9948871241.1502843538-4.4165063786.6194088288"/></svg>