<?xml version="1.0" encoding="UTF-8"?><svg id="Ebene_1" xmlns="http://www.w3.org/2000/svg" width="60" height="60" viewBox="0 0 60 60"><defs><style>.cls-1{fill:#fff;fill-rule:evenodd;}</style></defs><path id="_9:_Clockwork_Destiny" class="cls-1" d="m30.0006525498,0c16.565798281,0,29.9993474502,13.4348498411,29.9993474502,30.0006723239,0,16.5657433858-13.4335491691,29.9993276761-29.9993474502,29.9993276761C13.4348443817,60,0,46.5664157097,0,30.0006723239,0,13.4348498411,13.4348443817,0,30.0006525498,0m27.5383941539,35.0741863234c.251409656-2.3948966665.1827238419-1.7404487168.4341334979-4.1366109341l-2.5089157093-1.7145049258c-.1593902416-1.5213502372-.2164191426-2.0604748716-.3758093843-3.5819042057l2.096800825-2.1978662286c-.7438573803-2.291200599-.5404002503-1.6665721898-1.2855528432-3.956507238l-2.988401421-.5455314852c-.7646005555-1.3244779933-1.0367434995-1.7948674006-1.8013440549-3.1193453939l1.0211910617-2.8613312276c-1.6108291634-1.7897261005-1.1702196028-1.3011444007-2.7823439788-3.0907914043l-2.9521156951.7166181319c-1.2389054169-.8993320265-1.6769344395-1.2181717273-2.9145347567-2.1175037538l-.2306763679-3.0298867728c-2.1991819398-.9797735982-1.5991722504-.7114768319-3.7996494028-1.6911713332l-2.405239382,1.8557720321c-1.495495923-.3188397009-2.0268296855-.4315528176-3.5236208211-.7490478708l-1.4423625468-2.6735551299h-4.1599162363l-1.4423625468,2.6735551299c-1.4967911356.3174950531-2.028124898.4302081699-3.5236208211.7490478708l-2.4052294949-1.8557720321c-2.2004870395.9796945013-1.600467463.7113977349-3.8009545024,1.6911713332l-.2293712682,3.0298867728c-1.2376102043.8993320265-1.6769344395,1.2181717273-2.9145347567,2.1175037538l-2.9521156951-.7166181319c-1.6108390506,1.7896470036-1.1715148154,1.3010653037-2.7836490785,3.0907914043l1.0211910617,2.8613312276c-.7646005555,1.3244779933-1.0354482869,1.7948674006-1.8000389552,3.1193453939l-2.9896966335.5455314852c-.7438672674,2.2899350482-.5404002503,1.665306639-1.2855627303,3.956507238l2.0981059247,2.1978662286c-.1594001287,1.5214293341-.2164191426,2.0605539685-.3771144839,3.5819042057l-2.5076106097,1.7145049258c.251409656,2.3961622172.1827238419,1.7417142676.4341334979,4.1366109341l2.8108584293,1.156001545c.4717144363,1.4553043056.6401810529,1.9710953474,1.1119053763,3.4251341022l-1.5939914002,2.5866276104c1.2052101161,2.0864186627.8760481582,1.5162089372,2.0799630617,3.6027066967l3.0376392724-.0881930703c1.0237814868,1.1378883494,1.3853435329,1.5408871775,2.4091250197,2.6774308792l-.4043238348,3.0104289294c1.9490674964,1.416388619,1.4164385214,1.028971885,3.3655159049,2.4440949532l2.7382869776-1.3127716485c1.3983055456.62075266,1.893343695.8423822412,3.2916492406,1.4644004519l.855304983,2.9145634575c2.3559916434.5014744985,1.7119150657.3640831414,4.0679067091.8656367368l1.9672202464-2.3157997424h3.6013731231l1.9685055719,2.3157997424c2.3546964308-.5015535954,1.7119150657-.3641622383,4.0679067091-.8656367368l.8553148701-2.9145634575c1.3970004459-.6220182107,1.893343695-.8436477919,3.2903441409-1.4644004519l2.7395920773,1.3127716485c1.9477722838-1.4151230682,1.4164385214-1.0277063342,3.3642108052-2.4440949532l-.4030286222-3.0104289294c1.0224862742-1.1365437017,1.3853435329-1.5395425298,2.4091250197-2.6774308792l3.0376491595.0881930703c1.2039149035-2.0864977596.8747430585-1.5162880341,2.078657962-3.6027066967l-1.5939815131-2.5866276104c.4730096488-1.4540387549.6401810529-1.9698297966,1.1132005889-3.4251341022l2.8108584293-1.156001545Zm-27.5383941539,18.8272035414c-13.1989970507,0-23.900735305-10.7017347274-23.900735305-23.9020621886,0-13.1989828136,10.7017382544-23.8993728932,23.900735305-23.8993728932,13.1989871636,0,23.900735305,10.7003900797,23.900735305,23.8993728932,0,13.2003274613-10.7017481415,23.9020621886-23.900735305,23.9020621886m5.378078478-28.4597851464c.0583241136-1.5240395326.0596193262-1.5525144253.1166383401-3.0765539579l-2.1110580502-.8708571338c-.3110289821-.965457055-.4561718856-1.4189988175-.7684861931-2.3844558725l1.2078005412-1.9387447054c-.9356575972-1.203934281-.9538004601-1.2272678736-1.8894580574-2.4324677054l-2.1771534392.6920189885c-.8592005078-.5403901851-1.26222913-.7943704083-2.1201344253-1.3347605934l-.3213906826-2.2601155079c-1.4916003983-.3213708024-1.5201148488-.3278567502-3.0104299216-.6492275526l-1.223352979,1.9283039115c-1.0056386238.1386569079-1.4773530601.2034372887-2.4829916839.3421732935l-1.698953053-1.5253050834c-1.349057807.7113977349-1.3736767327.7257142782-2.7227345398,1.4384566608l.30194272,2.2626466094c-.681647629.7529236201-1.0004478865,1.1054586106-1.6821054026,1.8571166798l-2.2821249791-.0752211748c-.5753907637,1.4125919667-.5857524641,1.4385357577-1.1611432278,2.8510486275l1.6859910403,1.5395425298c-.0375809384,1.0147344387-.0557238014,1.490344243-.0933047398,2.503734034l-1.7974485301,1.4099817682c.466533586,1.4514285564.4756099611,1.4786378982.9421435471,2.9300664546l2.282115092.0959445689c.6220480771.8021219068.9149243092,1.1779904899,1.5369723863,1.9788468459l-.4717144363,2.2341717168c1.292028906.8125627008,1.3166577188.8280656979,2.6073914122,1.6393628479l1.8091153303-1.3931341233c.9926766111.2137989857,1.4579149846.3136193039,2.4492963832.5274182896l1.0756196504,2.0151523341c1.5110483609-.2085785887,1.5395529243-.2125334349,3.0506012851-.4211120237l.4898572992-2.2302959675c.8980766588-.4729996058,1.3179628185-.6958947378,2.2160394773-1.1702389914l2.1188293256.8527439382c1.0237814868-1.1314024016,1.0432195623-1.1521257957,2.067001049-2.2821835497l-1.0587720001-2.0241693834c.3823052213-.9395923608.5624386381-1.3801622278.9447339722-2.3210201394l2.1706674893-.7088666334Zm-12.0572721242,3.2761154973c-2.9002874185,0-5.2510883246-2.3508396798-5.2510883246-5.251086594,0-2.9003260112,2.3508009061-5.251086594,5.2510883246-5.251086594,2.9002775314,0,5.2510784375,2.3507605828,5.2510784375,5.251086594,0,2.9002469142-2.3508009061,5.251086594-5.2510784375,5.251086594m26.5586696684-.1010858689c.2229050926-.981039149.1671714041-.7309346752.3913717092-1.7119738242l-3.0052490713-1.2310645259c-.1373716281-.6013739136-.1879145792-.8190486486-.3239811077-1.4203434652l2.1732678015-2.4117443113c-.6285241399-.7866189097-.4678287986-.5870573703-1.0963529385-1.37367628l-2.8341920296,1.5823339657c-.5559526882-.2669521187-.756819393-.3641622383-1.3127720811-.6324590047l-.5300286628-3.2021598733h-1.7572771666l-.5313238753,3.2021598733c-.5546574756.2682967664-.756819393.365506886-1.3114768686.6324590047l-2.8354872422-1.5823339657c-.6272289273.7866189097-.4678287986.5870573703-1.0950577259,1.37367628l2.1732678015,2.4117443113c-.137361741.6012948166-.1879046921.8189695516-.3239811077,1.4203434652l-3.0052490714,1.2310645259c.2242003051.981039149.1671812912.7309346752.3913717092,1.7119738242l3.2411062895-.1944202393c.3835905467.4807511044.5235526.6557135004.9084482464,1.1378092525l-.912333884,3.1167351954c.9071431467.4366941177.6764667788.3252465517,1.5823246.7619406694l1.8687247693-2.6552837404h1.4566197721l1.8674196696,2.6552837404c.9071530338-.4366941177.6764766659-.3252465517,1.5836198126-.7619406694l-.9123239969-3.1167351954c.3848857593-.4820957521.5235526-.6570581481.9084383593-1.1378092525l3.2411062895.1944202393Zm-7.4165749636-.3174950531c-1.3659054574,0-2.4726200964-1.1067241613-2.4726200964-2.4726489428,0-1.3645801338,1.106714639-2.4713042951,2.4726200964-2.4713042951s2.4726200964,1.1067241613,2.4726200964,2.4713042951c0,1.3659247815-1.106714639,2.4726489428-2.4726200964,2.4726489428m-5.249793112,14.6037441847l.9758388479-1.9957735877c-.1438476909-.4146260759-.2242003051-.6466173541-.3667527835-1.0613225269l-1.9996104475-.9680672535c-.1490285411-.1827138946-.2760285817-.339483998-.4237619103-.5222769895l-.5352194001-2.1564194404c-.3758192714-.2254262336-.5857623512-.3524558936-.9628768352-.5779612241l-2.1538198389.5442659344c-.2319715805-.0440569867-.4302478602-.0828935764-.6609242281-.1282952108l-1.7961533176-1.3075512515c-.4328382853.0686561301-.6751715662.1075718167-1.1093149512.1762279468l-1.301105281,1.8013533484c-.2047523425.1140577645-.3822953342.2125334349-.5870476767.3265911994l-2.2173346898.1528943542c-.2876953818.3317324995-.448380836.5170565925-.7360762178.8475235412l.1619905538,2.217324072c-.0842382519.2190193827-.1568097036.4069536742-.2410479555.6272386077l-1.5991722504,1.5421527282c-.0077712754.4393043162-.011656913.6829228423-.0194380755,1.1223062554l1.5486292993,1.5939612135c.0764570894.222895132.1425524784.4133605251.2190095678.6362556571l-.2345620056,2.2083070226c.2760384688.3420941965.4315430727.5326386866.7075815415.8721226846l2.2108487399.2267708813c.2008667048.1205437123.3745141717.2242397797.5766859762.3460490427l1.2401907423,1.8428001366c.4302478602.0842382241.6712958157.1309054093,1.1028388884.2137989857l1.8376198937-1.2479121708c.2319715805-.0363054881.4315430727-.068735227.6648098658-.1050407151l2.1343817634.6142667122c.3836004338-.2125334349.5987243639-.3317324995.9823149107-.5455314852l.6064956393-2.1369615971c.1542093914-.1775725945.2864001693-.3304669487.4406095606-.5080395432l2.0307153232-.901942225c.1568097036-.4095638727.2449335932-.6389449525.4017334097-1.0484297283l-.9097335718-2.0267795819c.0038856377-.2358670275.0064760628-.4380387654.011656913-.6739057929m-6.5845838067,3.8021891392c-2.0644106239.3292013979-4.005706845-1.0781701718-4.3348688029-3.1438654403-.329171845-2.0644297178,1.0782100756-4.0057055248,3.1439060249-4.3349069227,2.0657058365-.329122301,4.0057068449,1.0782492687,4.3348688029,3.1439445372s-1.0795052881,4.0057055248-3.1439060249,4.3348278258"/></svg>