<?xml version="1.0" encoding="UTF-8"?><svg id="Ebene_1" xmlns="http://www.w3.org/2000/svg" width="60" height="60" viewBox="0 0 60 60"><defs><style>.cls-1{fill:#fff;}</style></defs><g id="_10:_Darkness_Rising"><path class="cls-1" d="m32.6523766048,52.6922599388c-.0039565022-.0191633432-.0317327623-.0191633432-.0303600983.0027615298.0118695065.1851061797.0409376858.3605888465.1111050406.5319710599.0423103498.1028460646.1878127358.0178244197.1270117943-.0658583017-.1045647003-.1425116745-.1759432293-.2919690149-.2077567366-.468874288Z"/><path class="cls-1" d="m28.4056771084,53.1546069745c-.0661301078.087699492.0780803592.1768215903.1177261259.0808375089.071459274-.1740600605.1031920363-.3537268633.1151422878-.5429334964.0012919191-.0178244197-.0277762602-.0191633432-.0304408433-.0026778471-.0317327623.1754826668-.0992355341.3235174009-.2024275704.4647738346Z"/><path class="cls-1" d="m35.930621263,51.7348459233c.0264843411.3386639735.1164342068.6718048874.1904773189,1.0036068777.0370619285.1631813067.3029550236.0726366022.240781418-.0905447045-.119018045-.3097934346-.2275392475-.6251936115-.3572156248-.9308865928-.0171986727-.0397492927-.0779996143-.0287868562-.0740431121.0178244197Z"/><path class="cls-1" d="m20.3025184218,38.3136437005c.0012919191-.0109624365.0012919191-.0232637965.0026645831-.0342262331-.0225278389-.0055230596-.0450556778-.009623513-.0662108527-.0137239663,0,.0150628899.001372664.0328873095.0026645831.0479501994.0026645831.0398329754.0582171034.0398329754.0608816865,0Z"/><path class="cls-1" d="m37.6555754658,50.5277226672c-.0184905918-.0479501994-.0847014445-.0507117292-.0992355341.0027615298-.0370619285.1384949039.0039565022.296153151.0343973454.4346480549.0397265116.1741437432.0820368614.3441033504.1336328795.5141466403.0410184307.1370722976.2222100813.0726366022.2010549064-.0616741657-.023819758-.1631813067-.0846206996-.2933916212-.1415458839-.446949415-.0528879372-.1440179635-.072751193-.3016762106-.1283037133-.4429326443Z"/><path class="cls-1" d="m18.7893582028,31.6870600414c.9961503534,1.4492173691,7.3859013639,2.0539087139,8.5725290363.4716358178,0,0,.001372664,0,.001372664-.0013389235,2.3692988425-2.0222766452,2.7331355526-6.5892611654-.7884743618-7.435209796-1.9857603665-.4758199539-4.3577237921-.7226002992-6.3580182482-.2029305994-1.5769487235.4099616521-2.3164109053,1.5671263236-2.5611488255,3.1877259061-.2593527547,1.7151610577.1270117943,2.515837336,1.1337397351,3.980117595Z"/><path class="cls-1" d="m38.9028425898,49.0929824089c-.096570951,1.0132303907-.2540235885,2.012736815-.5556059481,2.9669708871-.0092856684.031548386.0330246814.053473259.047558771.021924873.7038536622-1.5917290437.915486156-3.2617014318.9446350802-4.9892475323.095198287-.7156546334.1983903233-1.6082145398.2804271847-2.3239528559.072751193-.6320555947.866554721-4.6369432752,1.299105377-6.4782141941-1.3268816371.2755672016-2.6273596782.7102152565-3.1062579311,2.1580100193-.0145340896.0452723523.0529686822.0781596618.074123857.0356488393.3823273019-.7691278923.9802435998-1.2353243332,1.685389181-1.5534023573-.3796627188.2591653882-.7183070069.5841053953-.9921938512.9885439878-.0066210853.009623513.0092856684.0205859495.0171986727.01230136.264601176-.3084545111.6164876346-.5607579161,1.0054360218-.7677889688-.1402539648.3139775707-.2222908262.7074537267-.2738060994,1.1393402518-.0662108527.3441870331-.096651696.6923908368-.121763373.9790041576-.2923774361-.2097925825-.6587979844-.2728893545-1.0133490261-.0891220983-.2989985214.1548967173-.6111584684.5305484536-.6759966571.9117232496-.096570951-.1261098611-.2209181622-.2261943959-.3836999659-.2385794387-.2129244129-.0150628899-.3968613915.1275324674-.529121607.2851907145-.1786078124.2111315061-.4167246473.6224320817-.4604076611.9830209282-.0171986727.0287868562-.0317327623.0589963186-.0449749329.0905447046-.2526509245-.4812593307-.7157231687-.9159073857-1.2501739419-.8651956565-.3915322253.0370714456-.7328410965.403099669-.8585609717.8130613211-.1600364757-.1810057264-.410103562-.2837681083-.7091020835-.2508807987-.4603269162.0507117292-.8307847115.3482038037-.986864685.7581654558-.0886579467-.3194169476-.3862838041-.5648583694-.7434994289-.6128085688-.2870482699-.0384103691-.6826177424.0780759791-.9194426582.3125549644-.2420733371-.2385794387-.6521768991-.3537268633-.939305914-.3098771173-.3518864586.053473259-.6402266477.2948142275-.7275926752.6073691919-.1560799735-.405777516-.5238731858-.6991691373-.9762870976-.7540650025-.2963339383-.0356488393-.55302211.0644356955-.7196796709.2467803454-.1270117943-.4098779694-.4709852486-.7759898755-.8599336357-.8116387148-.530494271-.0479501994-.9961503534.3839363258-1.2488012779.8637730502-.0132421705-.0328873095-.0291489242-.0630967719-.0463475969-.0904610218-.0436022689-.3537268633-.2711415163-.7499645491-.4418363244-.9611797379-.3029550236-.3742291301-.6707482359-.3591662402-.9286475816-.0492891229-.0569251843-.3743128128-.3519672036-.7445251723-.6403073926-.907706479-.3598802079-.2042695229-.7434994289-.1493736577-1.0477463715.0658583017-.0291489242-.3852752493-.0687946909-.8418481772-.1759432293-1.260010736-.0529686822-.3221784774-.1270117943-.6155700986-.2355329967-.8596725969.3955694724.208453659.7514124332.4620959875,1.0199701114.7718894221.0079937493.009623513.0225278389-.0041004534.0159067536-.0136402836-.2778433465-.4113842584-.6231087199-.7376631891-1.010684443-.9981675008.7183070069.3262789307,1.322925135.7979147485,1.7025878538,1.561603264.0211551749.0425108225.0912417848.0164854961.0754157761-.0301257797-.4273022348-1.2928980456-1.5213962032-1.782358283-2.6948624499-2.0716494509.3982340555,2.5857960911.8731758063,6.2862460312.9485915824,6.9279251389.0687946909.601929815.1547880544,1.379258614.2354522518,1.9798495055.0463475969,1.6603488752.240781418,3.2356761055.9287283266,4.7931789161.0131614256.0301257797.0582171034.0137239663.047558771-.0191633432-.3015823596-.9584182081-.4603269162-1.9633640094-.5582705312-2.9847953067.0635462696.2714667482.1508315523.5360715133.2937501002.7458640958.2843836869.4167399525.7871016977.4538113981,1.202534426.2179934892q.0039565022.0026778471.0092049234.0054393769c.0648381887.4277860718.3267747816.9625186615.676077402,1.2202614434.3069115258.2248554724.6283571411.1453568871.8797161466-.0781596618.0198632558.3728902065.1560799735.7267007526.55302211.8130613211.3478492115.075398132.6998164151-.0521343354,1.010684443-.2166545657.1283037133.3756517363.4260103157.667704434.8122941197.7417636424.313532611.0589126359.6442638948-.0644356955.7963873661-.3455259566.3955694724.7938142951,1.4366947587.4990837504,2.0426048059.1480347341.6177795537.3579109994,1.6390415842.6389175778,2.0426048059-.1521351875.144129722.2673662949.4445009075.4016770627.7514124332.3578273167.3981533106-.0575737123.7315491774-.3592499229.8585609717-.7486256256.3029550236.1590808534.6403073926.2825128674.9802435998.220755019.4114762261-.0739755257.5609351143-.4332254487.5807983701-.818500698.2553155076.2276170022.5847548723.3030151342.891666398.0685361488.3439734543-.2632658415.5939597957-.7800903288.6641271506-1.2106379304q.0052484213-.0027615298.0105775874-.0054393769c.4180165664.2358179089.9260637435.1987464633,1.2091555112-.2276170022.1362167177-.2042695229.2222100813-.4579118515.2830917678-.7198387694Zm-9.7777280453-3.5058039301c.0211551749-.1892066331.0171986727-.3810911132.0171986727-.5702977463,0-.176905273-.0039565022-.3523879398-.0039565022-.5292932128,0-.0904610218.0012919191-.1823446499.0065403403-.2728056717.0026645831-.0740592084-.0052484213-.1741437432.0185713367-.2454414219.0939063679-.2892911679.2857563509-.5100461869.624400639-.5264480003.1560799735-.0082845894.3069115258.0287868562.43392332.1261098611.1786078124.1384949039.2500670864.3743128128.2910855171.5964067554.0581363585.3085381938-.0582171034.6389175778-.096570951.9446942418-.0423910947.3386639735-.0926144488.6786668705-.121763373,1.0200086911-.3439734543.2179934892-.7791886934.1357333741-1.1178329815-.053473259-.0211551749-.01230136-.0410184307-.0232637965-.0569251843-.0356488393-.0568444394-.0424271397-.072751193-.087699492-.048931435-.1754826668.0251116771-.0917999454.0423103498-.1851061797.0542606012-.2783287314Zm-3.5970256905-2.5761725781c.1825643146-.2330563791.4273022348-.4113005757.7275926752-.4099616521.313532611.0013389235.5013453469.2083699763.6191522177.4894602374.0515960181.1220094078.1269310493.2769898078.1415458839.4086227286.048931435.4386648256.0171986727.8788359401-.001372664,1.3175844484-.0145340896.3043540577-.0251116771.610047039-.0568444394.9144847794-.0913225298.4291249953-.0410184307,2.2909818636-.3016631045,2.2457931941-.3651286292-.0630967719-1.2845712874-2.857346522-1.2978134579-2.8655474287-.0621736056-.4400874318-.1600364757-.8610115204-.1878127358-1.3079609354-.0184905918-.2892911679.1852288977-.5744818824.3572156248-.7924753716Zm-.4458735715,2.3349152924c0,.0013389235.0026645831.0013389235.0026645831.0027615298-.0012919191,0-.0026645831-.0014226063-.0053291662-.0014226063.001372664,0,.001372664-.0013389235.0026645831-.0013389235Zm-1.322925135-1.9620250858c.001372664-.1439342808.0039565022-.2878685616.0053291662-.4304639189.0012919191-.1302939972-.0211551749-.2673662949.023819758-.3935598387.0661301078-.185022497.2381168349-.4496272621.4603269162-.3728902065.1508315523.0507117292.2751787634.2289559257.3598802079.3564883931.1362167177.2097925825.2499863414.4593344577.2857563509.7102152565.0396457667.2947305448.0661301078.5908836958.0793722783.8884594531.0079130043.1671980773.0092049234.3344798374.0079130043.5017615975v.2220939426c0,.0287868562.0211551749.1974912225.0026645831.2125541123-.2050921535.1810057264-.4273022348.2276170022-.7183877518.0397492927-.142837803-.0918836281-.264601176-.2152319594-.3637559652-.3550657869-.047639516-.0671972253-.0899498657-.1343944506-.1270117943-.208453659-.0145340896-.0273642499-.1111050406-.1768215903-.1270117943-.2330563791-.0026645831-.0068619832-.0026645831-.0137239663-.0012919191-.0164854961.096570951-.2988309981.1071485385-.6101307217.1123969597-.9213467626Zm-1.5940666513-.4948996143c-.001372664-.0082845894-.0026645831-.0178244197-.0026645831-.0261090091-.0198632558-.3578273167-.0410184307-.7128931036-.0675027718-1.0652810434-.0039565022-.0589963186.0145340896-.1179089544.0569251843-.1590808534.2473217583-.2343953026.5608543694-.3166554178.8942502362-.1069465179.3493026205.2221776253.3823273019.5690425055.5265377689.9103843261.0503040991.1193315607-.0198632558.3400865798-.0343973454.4689579707-.0171986727.1672817601-.0317327623.3344798374-.0423103498.5031842037-.0198632558.3056929813-.0423103498.614231175-.1270117943.9089617198-.0012919191.0041004533,0,.0082845894-.0012919191.0137239663-.7514931782.0150628899-1.0543674568-.6046076621-1.202534426-1.4477947629Zm.4365071582,1.4697196359c-.0026645831,0-.0052484212.0027615298-.0079130043.0027615298.0026645831-.0013389235.0039565022-.0041004533.0052484213-.0068619832.001372664.0014226063.001372664.0027615298.0026645831.0041004533Zm1.3268816372,4.2845553354c-.0118695065.2536423285-.0330246814.5072846571-.0555525203.7595880621-.0184905918-.0109624365-.0528879372.0904610218-.0779996143.0946451579-.4763144147.0671135426-.8030084514.0822601151-1.0068086858-.4277860718-.1295956324-.3249400072-.2116324938-.6814284003-.2910047721-1.0228539036-.0251116771-.1041849881-.1574526375-.4428489616-.0198632558-.5100461869.3228182794-.1576582471.5715127017-.2248554724.9128215729-.0520506527.194514566.097323005.3572156248.2454414219.5132955983.3975766093.0833287805.2344789853.0356892645.5169081701.0251116771.7609269856Zm1.5187316201,1.9551631027c-.3399362072.2261943959-.6534688182.3071155875-.9366413309-.075398132-.2010549064-.2714667482-.2764706825-.6005072087-.4193084855-.9021834194-.0079937493-.0150628899-.0171986727-.0287868562-.0277762602-.0384103691-.0040372471-.0041004533.0568444394-.2029305994.0608009416-.2275333195.0105775874-.0891220983.0066210853-.1837672562.0066210853-.2728893545.001372664-.19464601-.0039565022-.3893757027-.0158260087-.5840217126-.0079937493-.1453568871-.023819758-.2907137741-.0370619285-.4360706612-.0039565022-.0424271397-.0066210853-.0685361488.0026645831-.0794985853.0079130043-.0095398302.0264035961-.0054393769.0634655247.0137239663.0423103498.0205859495.0767076952.0575737123.1190987899.0794985853.0634655247.0302094624.1295956324.0575737123.1970984042.0768207382.0634655247.0178244197.1295956324.0287868562.1958064851.031548386.0303600983.0013389235.0621736056,0,.0925337039-.0041841361.0225278389-.0013389235.0635462696-.0191633432.0847014445-.0136402836.3095761089.0630130892.6548414822.1398338275.7765241103.4044385925-.0687946909.6690433576-.1534153904,1.357333741-.1627010588,2.0277997048Zm.7381702627.8267016047c-.4153519833-.0109624365-.5330781092-.3276178543-.5225005218-.7184161632,0-.0164018134-.0039565022-.0356488393-.0079937493-.0479501994.0622543505-.3674508296.1031920363-.7376631891.1178068708-1.1105533956.0118695065-.305776664-.0555525203-.6650265869.2553155076-.8390866474.1349247986-.075398132.2791352656-.0658583017.4219730686-.0246864028.1257198752.0369877629.2461105842.1576582471.3466380374.2399183622.046266852.0384103691.2142970769.1425953573.2130051578.2138930359-.0105775874.2920526977-.0357700094.5854443189-.0331054264.8774970165.0026645831.4072001223.0582171034.8116387148.1031920363,1.2160773073-.2910047721.0905447045-.5847548723.2001690696-.8943309811.1933070864Zm2.0545550573.4113842584c-.1257198752.075398132-.2699303422.0959840814-.4114762261.065774619-.2804271847-.0616741657-.5212086027-.2948142275-.6310217242-.5676198992-.0105775874-.0274479326-.0198632558-.0548121825-.0277762602-.0822601151-.048931435-.1795831201-.0264843411-.3482038037-.0251116771-.5374104368,0-.2331400618-.0092856684-.4648575173.0105775874-.6965749729.0211551749-.2453577391.0700866099-.4743136649.1031920363-.7060311204.4021905577-.1371559804.8056730345-.079582268,1.1681370805.1164863482-.0145340896.2536423285.0211551749.5100461869.023819758.774650952,0,.220755019.0132421705.4401711145.0290681792.6608424509.0092856684.1097080478.0171986727.2194160955.0264843411.3291241432.0079130043.0945614752.0397265116.2179934892.0251116771.3112160409-.0184905918.1220094078-.1825643146.2659436886-.2910047721.3318019903Zm-.2606446738-5.7584591074c-.1137696237-.0384103691-.2196262431-.0794985853-.3108680279-.1604197769-.0449749329-.0411718989-.096570951-.0548121825-.1415458839-.0946451579-.0145340896-.01230136-.1019001172-.0945614752-.1283037133-.1357333741.0343973454-.1671980773.0582171034-.2865296381.0700866099-.4263634655.0118695065-.1563193236.0132421705-.3126386471.0052484213-.4702968942-.0158260087-.3153164942-.0779996143-.6251936115-.0872852827-.9432716356-.0026645831-.0945614752-.0026645831-.1905455566.0185713367-.2824291847.072751193-.3084545111.3716689695-.3866141728.6415993117-.3427644268.2420733371.0397492927.4656560824.1686206836.6231087199.3633503763.0767076952.0945614752.1375893817.2042695229.1785270675.3208395538.1283844583.36192777.0264843411.7416799597-.0118695065,1.114653849-.0343973454.3331409139-.0806641974.667704434-.1455023861.9967448945-.21696166.1179089544-.4788982529.1370722976-.7117666666.0603352421Zm2.4646586194,5.7967857938c-.121763373.0781596618-.2699303422.0932225516-.4061470599.1302939972-.1865208168.0493728056-.3810353828.075398132-.5728853658.0548121825-.2791352656-.0287868562-.6905307467-.2193324128-.8003438683-.5100461869-.0674220268-.1795831201-.0198632558-.371551283.0132421705-.5538959329.0304408433-.1699596072.0304408433-.3386639735.0383538476-.5113851104.0119502515-.3030151342.0741238571-.6183316284.0992355341-.9268698222.4788982529-.172721137,1.1998698429-.3427644268,1.4723840232.198830146.0291489242.2646047651.074123857.5292095301.1270117943.7924753716,0,.2111315061.0291489242.4277860718.048931435.6375786543.0105775874.1082854415.0225278389.216570883.0357700094.3249400072.0171986727.1521351875.096570951.2687052184-.0555525203.3632666936Zm7.2601814887-9.4863569801c.1243472112-.3290404605.2182535791-.6868677772.5371153563-.8719739569.3624640461-.2111315061.6799531593-.0808375089.9300202456.1906292393.0264035961.0287868562-.0211551749.264604765-.023819758.3097934346-.0079130043.1097080477-.0159067536.2194160955-.0225278389.3291241432-.0118695065.1823446499-.0118695065.3660282234-.0317327623.5470339498-.0012919191.0164018134-.0039565022.0342262331-.0052484213.0507117292-.0423910947.3359024437-.1429185479.6732274936-.3307312837.9514725423-.0939871129.1399175102-.2156697409.2578264646-.362544791.3345635201-.047558771.0246864028-.480190172.1754826668-.5000534278.1069465179-.1177261259-.4113005757-.1229745472-.8541495373-.1614091397-1.2778351557-.0105775874-.1288713909-.022447094-.2577427819-.0330246814-.3866141728-.0092856684-.097323005-.0304408433-.1919681629.0039565022-.283851791Zm-1.4142476647,1.6959977145c.0159067536-.2358179089.0939871129-.4620123048.1072292834-.6991691373.0065403403-.0959840814-.0171986727-.2070310527.0012919191-.3002536044.0356892645-.186528786.1600364757-.4004218219.263228512-.5553185392.0834095254-.1234320141.2024275704-.2892911679.3479299565-.3427644268.2394894989-.0891220983.2844644318.2015079931.4154327282.3345635201.0396457667.0410882162.0675027718.0932225516.0675027718.150796264.0012919191.2536423285.0039565022.5059457336.0092049234.7581654558.0053291662.1508799467.0105775874.3016762106.0291489242.451133551.0092049234.075398132.0211551749.150796264.0369811836.2248554724.0146148346.0698750724.0397265116.1343107678.0264843411.2070310527-.0132421705.0863605685-.0687946909.172721137-.1098131216.2495418752-.0436022689.0794985853-.0926144488.1562356408-.1467943051.2302948493-.1085212025.1439342808-.2394894989.2714667482-.3969421364.3578273167-.2327876687.1275324674-.4126874002.1097080477-.5754692039,0-.0555525203-.0369877629-.0885772017-.1041849881-.0872852826-.1741437432.0039565022-.2960694683-.0079130043-.5936452256.0118695065-.8925599064Zm-.1111050406,1.260010736c0,.0014226063.001372664.0014226063.0026645831.0027615298-.0026645831,0-.0053291662.0014226063-.0079130043.0014226063.0012919191-.0014226063.0025838382-.0027615298.0052484212-.0041841361Zm-5.316812217-1.6425244555c.0251116771-.0451886696.0833287805-.0904610218.1243472112-.1205868015.144210467-.1028460646.3320232028-.1494573404.505382594-.1357333741.1970984042.0136402836.3717497144.1082854415.4868112572.2755672016.142837803.2070310527.1362974626.4400874318.1336328795.6841062474-.001372664.1754826668-.0105775874.34962641-.0145340896.5251090768-.0066210853.2495418752-.0026645831.5018452802.047558771.7458640958.0198632558.0946451579.1072292834.2454414219.0423910947.3222621601-.1283844583.1521351875-.4220538135.2124704296-.6032454641.2508807987-.2289119115.0466112758-.4696933295.053473259-.6945679938-.0109624365-.0820368614-.0233474793-.1322602155-.1097080477-.1150615428-.1960686162.0515960181-.2701278247.0978628701-.5415945729.0846206996-.818500698-.0132421705-.3085381938-.1216826281-.592306302-.1123969597-.9062838727.0065403403-.1864451033.022447094-.451133551.1150615428-.6156537813Zm1.7489354507,7.8781424403c-.0529686822.0850216449-.1429185479.1302103145-.2209989071.1864451033-.072751193.053473259-.1216826281.1329718443-.2010549064.176905273-.1455023861.0794985853-.3095761089.1179089544-.4735690867.1233483313-.1706948081.0055230596-.3413088712-.021924873-.5066745131-.065774619-.047639516-.0123850428-.4948050065-.1384949039-.4908485044-.176905273.0383538476-.437325902.0079130043-.8788359401-.0410184307-1.3203459782.0079130043-.2646047651.0105775874-.5292095301.0079130043-.7924753716.3413896161-.4236019357,1.2634161125-.2988309981,1.7740471277-.141172751.0277762602.242679892.074123857.4853597841.0820368614.7321401295.0053291662.220755019.0198632558.4400874318.0410184307.6595035273.0092856684.0835990387.0132421705.1686206836.0225278389.2522197223.0145340896.1316329208.0859933636.2358179089.0066210853.3661119061Zm-.0410184307-5.5610515676c0-.1398338275-.0503040991-.296153151-.0687946909-.4359869785-.0198632558-.150796264-.0357700094-.3015925279-.0529686822-.4538113981-.0197825109-.1713822134-.0449749329-.3441033504-.071378529-.5154855638-.023819758-.1481184169-.0754157761-.2892911679-.0264843411-.4374095847.0304408433-.0932225516.0317327623-.19464601.0661301078-.2878685616.0436830138-.1165700309.1058566194-.2235165488.1852288977-.3181617067.1600364757-.1905455566.384991885-.3153164942.6270652221-.3495427273.191849983-.0287868562.4153519833-.0055230596.5437364416.1658591538.1467943051.1974075398.1018193723.468874288.0806641974.69925282-.0251116771.2618432352-.0608816865.5223475469-.0687946909.7856133885-.0066210853.2728056717.0370619285.5401719666.072751193.8102997913-.0012919191-.0109624365-.0436022689.0178244197-.0939063679.0562347888-.0740431121.0575737123-.169322144.1384112212-.1812723955.1480347341-.095198287.0822601151-.1997629873.1548967173-.3201536963.1933070864-.1137696237.0370714456-.2354522518.0521343354-.3544702968.0411718989-.0595897674-.0041004533-.1190987899-.0164854961-.1759432293-.0343099158-.023819758-.0068619832-.1561607184-.0425108225-.1614091397-.0671972253Zm1.4697194401,5.3347734889c-.0582171034.111130654-.1098131216.2262780787-.1970984042.3167391005-.1031920363.1069465179-.2341603327.1851061797-.3769981357.2194160955-.1243472112.0287868562-.2540235885.021924873-.3731223785-.0246864028-.1044839554-.0411718989-.239408754-.1398338275-.3095761089-.2289559257-.1111050406-.1412564337-.0277762602-.4209240886-.0145340896-.5882058487.0185713367-.220755019.0343973454-.4415100381.0397265116-.6622650571.0079130043-.3030151342.0582171034-.6443569547.0330246814-.9610960552.3598802079-.1919681629.7620707656-.2508807987,1.1615967402-.1138085011.0317327623.2317174555.0806641974.4593344577.1018193723.7047758796.0264843411.318078024.0105775874.636156048.0079130043.9555729956,0,.0727202849.0159067536.1672817601.001372664.2385794387-.0119502515.0562347888-.0436830138.0863605685-.074123857.1439342808Zm.1164342068-7.8547112783c.0159067536-.1316329208.0913225298-.2866133208.1429185479-.4086227286.1177261259-.2810902612.3055388617-.4881213139.6190714728-.4894602374.3002904405-.0013389235.5450283607.176905273.7275926752.4099616521.1706948081.2179934892.3757869616.5031842037.3572156248.7924753716-.0290681792.446949415-.1256391303.8678735036-.1878127358,1.3079609354-.0132421705.0082009067-.9326848287,2.8024506568-1.2978134579,2.8655474287-.2619365929.0451886696-.2103405747-1.8166681988-.3016631045-2.2457931941-.0317327623-.3044377404-.0423103498-.6101307217-.0568444394-.9144847794-.0185713367-.4387485083-.0503040991-.8789196228-.0026645831-1.3175844484Zm1.4406512609,7.1870068443c.0105775874.4017607454-.1031920363.7322238122-.5317861901.7390021126-.2936693552.0055230596-.4960969256-.065774619-.76998377-.1658591538-.0025838382,0-.0767076952-.1466958106-.0793722783-.1481184169.0436830138-.4674516817.0675027718-.6950686839.0687946909-1.0981683529,0-.2974920746-.0251116771-.6005072087-.0343973454-.898082966v-.0109624365c.168030225-.2152319594.410103562-.427702389.6906114917-.4387485083.119018045-.0054393769.2420733371.0329709922.337352369.1083691242.0912417848.0712976786.120390709.2042695229.2063840726.2687052184-.0171986727.5401719666.0317327623,1.0899674462.119018045,1.609637146-.0026645831.0109624365-.0066210853.0205859495-.0066210853.034226233Zm1.5584581317-1.0625195136c-.0026645831.0959840814-.04901218.1672817601-.0926144488.2495418752-.0331054264.0630130892-.0529686822.1384949039-.0807449423.2056084465-.0661301078.1604197769-.1375893817.3195006303-.2420733371.4565729279-.2844644318.3743128128-.5913759576.2851907145-.9273556625.0630967719-.0079130043-.6718048874-.0939063679-1.357333741-.1614091397-2.0264607813.120390709-.2673662949.4670287464-.3427644268.7765241103-.405777516.0529686822-.0109624365.1336328795.0205022667.191849983.0178244197.0675027718-.0041841361.1349247986-.0192470259.2010549064-.0384103691.120390709-.0369877629.2249554093-.1425953573.3453461183-.1659428365.0079130043-.0013389235-.0105775874.425024542-.0132421705.4579955342-.0225278389.2673662949-.0251116771.5360715133-.0171986727.8034378081.0026645831.1261098611.0251116771.2577427819.0198632558.3825137195Zm.9062004877-.1206704843c-.1786078124.053473259-.3836999659.0233474793-.5728853658.0055230596-.0515960181-.0055230596-.0939063679-.0480338821-.1005274532-.1028460646-.0277762602-.2385794387-.0608009416-.4784978009-.0661301078-.7198387694-.0026645831-.1247709376.0026645831-.2495418752.0039565022-.3743128128.001372664-.1220094078-.0449749329-.242679892.0039565022-.3578273167.0436830138-.1028460646.1230552921-.1864451033.2077567366-.252303405.1759432293-.1357333741.3743335526-.2728056717.5926678766-.3084545111.2261665834-.0356488393.4445009075.0411718989.6468477329.1398338274.0079937493.0055230596.0185713367.0055230596.0277762602.0068619832.0754157761.2605043117-.0528879372.5978293616-.1335521346.8487101604-.072751193.2261943959-.1124777047.4606733813-.2011356513.6827673239-.0779996143.1974075398-.2037194895.371551283-.408730898.4318865251Z"/><path class="cls-1" d="m33.8666190474,32.176771327c1.1959133407,1.5931516499,6.8487860076.9007608131,8.2748224339-.1453568871,1.443315844-1.0585027429,1.5994765624-1.3052830883,1.5955200602-3.0026197264-.0053291662-1.5314774842-.289793598-3.4057193953-1.7224511096-4.1968558434-1.7793762939-.981598322-4.2903017652-.6512189379-6.1992736916-.3591662402-1.8097363922.2755672016-3.4818834027.8678735036-3.7729689198,2.9833727005-.2434460011,1.7728184528.5145875174,3.5935871049,1.8243512268,4.7206259966Z"/><path class="cls-1" d="m42.6689481895,35.2659189873c-.0198632558.0178244197.0066210853.053473259.0277762602.0370714456,1.1866276723-.8706350334,2.1034057474-2.1224448627,1.9671890297-3.6991110165-.0012919191-.0178244197-.0264843411-.0178244197-.0251116771,0,.0674220268,1.4848662084-.9221072413,2.755839381-1.9698536128,3.662039571Z"/><path class="cls-1" d="m26.6363131873,53.4135213145c-.0264843411.0850216449.1137696237.1357333741.144129722.0507117292.1124777047-.313893888.1601172206-.6649429042.1178068708-.9980838181-.0040372471-.0302094624-.0463475969-.0287868562-.0463475969.0027615298.0026645831.3413418206-.1150615428.6265325351-.215588996.9446105591Z"/><path class="cls-1" d="m23.6084585953,50.5171786443c-.0528879372.1384949039-.072751193.2879522443-.1229745472.429208678-.0582171034.163097624-.1257198752.3015925279-.1521234713.4757362711-.0212359198.1370722976.1627010588.1878677095.2037194895.0521343354.0515960181-.1700432899.0939063679-.3400865798.1322602155-.5141466403.0317327623-.1371559804.071459274-.2934753039.0331054264-.4318865251-.0105775874-.0411718989-.0767884401-.0548958652-.0939871129-.0110461192Z"/><path class="cls-1" d="m25.2571088276,51.7138415603c-.1295956324.3030151342-.2368249158.6156537813-.3545510417.9227693688-.0674220268.1782441966.1997629873.2687052184.242154082.0808375089.072751193-.3235174009.1587445566-.6471184845.1851481527-.9789204749.0026645831-.0425108225-.0541798563-.0685361488-.072751193-.0246864028Z"/><path class="cls-1" d="m34.3619892685,52.4617140414c-.0410184307.3303793841.0026645831.6814284003.1137696237.9939833647.0343973454.0946451579.1759432293.0452723523.145583131-.0521343354-.0992355341-.3153164942-.2156697409-.5977456789-.2143778219-.937748576.001372664-.0274479326-.0409376858-.0302094624-.0449749329-.0041004533Z"/><path class="cls-1" d="m36.4776682472,22.6602048845c1.9419966077.5649420521,3.9132228846-1.1516416118,5.8684616629-.3030151342.0304408433.0137239663.0515960181-.0287868562.023819758-.0466112758-1.7700906255-1.114653849-3.9634462387.4743973476-5.8182383088.0356488393-.1958064851-.0466112758-.2685576782.2578264646-.0740431121.3139775707Z"/><path class="cls-1" d="m34.7670058992,22.0157642471c.0251116771-.0041004534.0264035961-.043849746,0-.0425108225-.4657368273.0055230596-.9326848287-.172721137-1.3825149024.0109624365-.0779996143.031548386-.0502233541.1535577938.0343973454.1329718443.4524946568-.1082854415.8929583171-.0451886696,1.348117557-.1014234583Z"/><path class="cls-1" d="m16.5513506365,12.0015366605c.1481669692-.5620968396.3188617772-1.1173316961.4855193382-1.6657882521.0039565022-.0137239663-.0171986727-.0233474793-.023819758-.009623513-.4683206655.9707195682-.9180699942,1.9180916571-1.0067279408,3.0150047691-.0211551749.2714667482-.0291489242.3742291301-.0317327623.645779561-.0264843411.5785823357-.0264843411,1.1626040483-.0436830138,1.7494709735-.0569251843,1.9496400431-.3320232028,3.8155973647-1.1231621477,5.5966167242-.1190987899.2673662949-.2156697409.5223475469-.3002904405.774650952-.074123857-1.8399319953-.4749417507-3.8732547598.1507508073-5.5349425585.0159067536-.0411718989-.048931435-.0740592084-.0687139459-.0343099158-.7567415994,1.5479629804-.5940405407,3.4495691413-.6429719757,5.1332654958-.0410184307,1.4368323263.891666398,5.3046477092,1.3216332159,7.0211476905.0025838382-.9364096524-.3545510417-1.8605179448-.4855193382-2.853162386-.0873660276-.6690433576-.2249554093-.9761589451-.2712222613-1.6370013959-.0066210853-.2344789854-.0092856684-.4702968942-.0079130043-.7088763329.0171986727-.2755672016.0555525203-.5511344031.1349247986-.8308857407.1958064851-.7033532733.5887113745-1.3120613888.865182057-1.9784268992.456370414-1.1036914125.6164876346-2.2348307576.6799531593-3.3755099329.001372664-.0055230596.0053291662-.0082009067.0053291662-.0137239663,0-.0246864028-.001372664-.0507117292-.001372664-.075398132.0913225298-1.7795967532-.0383538476-3.4153429083.362544791-5.174353712.0039565022-.0150628899.0039565022-.0302094624.0012919191-.0439334287Z"/><path class="cls-1" d="m45.0482594048,8.6978265025c1.0265104517,1.1078755486,1.852046742,2.3212750088,2.5426582337,4.1077337451,1.3890552427,3.5908255751.7831451956,6.8868369226.5330781092,10.2417609061-.0859933636,1.1462022349-1.6774761767,5.6063239199-1.9353755225,6.7003918194.0251116771.1014234583.0528879372.2042695229.0859126186.3084545111.5225812667,1.6467085916,1.0319203629,3.2055503258.2805079296,4.8796231673-.6931953298,1.5437788443-2.1576663487,2.4912346159-3.7002177268,2.9409455607-.3916129703,2.1580100193-1.275285619,7.4146238465-1.2607515294,8.496390386-.0952790319,1.2997600287-.0515960181,2.6009426637.2698495972,3.8951796328-.7315491774,1.9784268992-2.3733360896,3.061616045-3.7650559154,4.4176108624,10.0688135624-3.4345062515,17.3382807195-13.2581882815,17.3382807195-24.8422200388,0-8.6911200786-4.0931226161-16.3910183224-10.3888865137-21.145870552Z"/><path class="cls-1" d="m44.7001679585,12.0501563216c.6469284779,2.8325764365-.1085212025,5.5843153641.9511754205,8.3799040378.3426007903.9035223429.8942502362,1.7014370914,1.0649450443,2.6762571129.0171986727.1015071411.0290681792.2029305994.0370619285.3043540577.0052484213.2783287314.0039565022.5539796156-.0026645831.8281242109-.0462668519.5539796156-.1614091397.7513871554-.2420733371,1.3066220119-.2209181622,1.5287159544-.6654190697,2.7736638006-.3201536963,4.2022952203.0317327623-.172721137,1.1509384078-6.4357033716,1.1006343088-8.3648411479-.0423103498-1.595829497.0899498657-3.3768488565-.6270652221-4.8411291154-.022447094-.0466112758-.0846206996-.009623513-.0674220268.0369877629.6177795537,1.6425244555.2777626016,3.7265589492.1785270675,5.5856542877-.0608009416-.1918844802-.1295956324-.3879530964-.2142970769-.5895447722-.7474559311-1.7699732402-1.1271186498-3.4440460817-1.2249815199-5.3717612518-.0370619285-.7472867021-.025192422-1.490389268-.0582171034-2.2279687744-.0026645831-.2673662949-.0105775874-.5347325897-.0317327623-.8020988846-.0886579467-1.0954905058-.5384880203-1.8770034409-1.0068086858-2.8476393264-.0066210853-.0123850428-.0277762602-.0041841361-.023819758.0109624365.1667383059.54427242.337352369,1.0995909591.4868920022,1.6616877987-.0039565022.0164854961-.0039565022.0343099158,0,.0521343354Z"/><path class="cls-1" d="m24.7906452958,22.6592843746c.194514566-.057657395.1058566194-.3564883931-.0886579467-.3112997236-1.853419406.4374095847-4.0454831001-1.1503026883-5.8129091426-.0369877629-.0251116771.0150628899-.0066210853.0603352421.0211551749.0479501994,1.9645244467-.8541495373,3.9291296382.86653458,5.8804119144.3003372871Z"/><path class="cls-1" d="m19.3959142095,50.2688083272c.3201536963-1.2943206518.3637559652-2.7736638006.2698495972-4.0734238293.0105775874-.9090454025-.4987615087-5.3169490693-.8850453128-8.2276851676-1.5318930457-.381174796-3.0414197424-1.1613488075-3.8774528752-2.6063820406-1.1231621477-1.9455395897-.3439734543-3.8403674503.239408754-5.78590704.0569251843-.1905455566.0899498657-.3797521897.1085212025-.5676198992-.6336863073-1.3779196905-2.2079704477-4.5299967573-2.2966283944-5.949004664-.21696166-3.4591926543-.1825643146-6.8497654771.7805613574-10.1759862871.8228717072-2.8463004028,2.8217934993-4.5313356808,4.9993231038-6.3356188368-8.1677546404,4.3284050814-13.7611182848,13.136095191-13.7611182848,23.2969349055,0,12.0557512578,7.8740852852,22.2042896122,18.5818335762,25.2302568179-1.4618064358-1.5602643404-3.3535796894-2.6434534861-4.1592527239-4.8055639588Z"/><path class="cls-1" d="m28.6242536672,34.1541940336c-.4828547551,1.1476248412-1.1509384078,2.6886421557-.9287283266,3.9568537984.1151422878.6595035273.5172521005,1.0036905604.9921938512,1.0681262559-.3174891132.1137248184-.6667109887.1535577938-1.0239266136.087699492-.0132421705-.0027615298-.0198632558.0164854961-.0066210853.021924873.7752321912.3112160409,1.4856261938.1179089544,1.9910087877-.3303793841.1838562337-.1097080477.3572156248-.2564038584.5093390962-.4401711145.2076759916-.2481192689.359799463-.5305484536.4709045036-.8280405282.1178068708.3221784774.2817998487.6251936115.5159601814.8856979232.1429185479.1589971706.3016631045.2851070318.4670287464.383852643.5093390962.446949415,1.2223976818.6389175779,1.9910087877.3290404605.0118695065-.0041004533.0092049234-.0246864028-.0053291662-.021924873-.359799463.0658583017-.7077294194.0260253264-1.0239266136-.0863605685.480190172-.0671972253.8823807297-.4209240886.9948584343-1.0804276159.2076759916-1.2257008203-.4220538135-2.7022824393-.8784242275-3.8155973647-.2977066023-.7280396761-.8030084514-2.0154983448-1.7025878538-2.308889966-.0939871129-.1220094078-.2328684137-.1617587005-.3691658763-.1412564337-.1256391302-.0082009067-.2513590054.0356488393-.3413088712.1399175102-.8598528908.2824291847-1.3612789826,1.4875440555-1.6522837547,2.1799348923Z"/><path class="cls-1" d="m27.8758287969,21.9837974475c-.4497493287-.1824283326-.9167780751-.0041841361-1.3824341575-.0110461192-.0277762602,0-.0251116771.0398329754,0,.0425108225.4550784949.0562347888.8956229002-.0068619832,1.348036812.1015071411.0847014445.0205859495.1124777046-.1015071411.0343973454-.1329718443Z"/><path class="cls-1" d="m29.9550918066,30.0852890712c.0277762602.1836835735.313532611.1370722976.2725141803-.0384103691-.1627010588-.6950686839-.0767076952-1.3738192371-.1243472112-2.0771725105-.048931435-.7225166165-.2368249158-1.4779205426-.4788982529-2.1511480362-.3016631045-.8390866474-.4855193382-1.8729029875-1.1813792511-2.4678871367-.0171986727-.0137239663-.047639516.0191633432-.0304408433.0328873095.7210523349.6032687385,1.0901374663,2.3760035086,1.3282543012,3.2576009785.3148245301,1.1571646715.0396457667,2.2801031099.2142970769,3.4441297645Z"/><path class="cls-1" d="m31.3043397927,30.0887200628c.1878934808-1.2558266-.1044839554-2.4226147844.2751787634-3.6812865969.2526509245-.8417644945.5688481186-2.4569247002,1.2594596103-3.0341681123.0171179278-.0136402836-.0171986727-.0451886696-.0331054264-.0314647032-.6958599129.5949841491-.9273556625,1.728885024-1.2290187671,2.5666327479-.21696166.6046076621-.3426007903,1.2147383838-.4034824768,1.8605179448-.072751193.7718894221.0370619285,1.5190924415-.1415458839,2.2841198805-.0410184307.1754826668.2447379202.220755019.2725141803.0356488393Z"/><path class="cls-1" d="m18.5632723643,35.3032414811c.0211551749.0151465726.047639516-.0205022667.0277762602-.0369877629-1.0451625334-.9062838727-2.0373563846-2.1813574986-1.9698536128-3.6621232537.0012919191-.0178244197-.023819758-.0164018134-.0251116771,0-.1362974626,1.5780887601.7804806125,2.8285596659,1.9671890297,3.6991110165Z"/><path class="cls-1" d="m59.1083762111,21.5279776641c.338725033-3.3055511778-2.9620474641-5.2785387002-4.8749758926-8.1454250524-2.6087883414-3.9089035991-4.2293393338-8.1892747984-8.6492367315-9.6728020833-1.7304448589-.5813438655-1.2832793683-2.9888957601-3.0387551593-2.6955041389-1.901058922.318078024-2.6974462881.3661119061-4.5614432816-.0260253264-7.7696013298-1.6370850787-16.0206847507-1.650809045-22.8483155834,3.161616897-3.6525782108,2.5734947311-5.462314603,2.0922354003-8.2960583537,6.1314329966-1.9380401056,2.7626176814-.7394621818,4.4216276331-2.6722538661,5.1592908222-1.7224511096,4.7438061104-7.6492106208,17.0764634933-1.299105377,20.4835218122-2.1312627525,5.8873304983,5.8578840754,15.2791260032,10.465594209,17.4152111495,5.9294240943,2.7503163214,11.791264672,7.7656728627,18.5011693788,6.4425653548,7.9348862268-1.5643647938,15.3168310885-3.4098198487,19.6665611313-10.5626004599,2.0386483037-3.3508235301,6.5035206342-1.9496400431,6.3632666694-6.5111015036-.1534153904-4.9865696852,1.6920102663-7.2460868456,2.0981573262-11.5785923804.2871290149-3.0547540618-1.201161762-6.2191324886-.8546044695-9.6015880874Zm-28.8965962329,35.9244901986C-4.6790785377,57.1508753347-4.2266646259,1.073242708,30.6654858091,1.3761741595c34.8908585159.3016762106,34.4384446041,56.3793088373-.4537058309,56.0762937032Z"/></g></svg>