<?xml version="1.0" encoding="utf-8"?>
<!-- Generator: Adobe Illustrator 27.7.0, SVG Export Plug-In . SVG Version: 6.00 Build 0)  -->
<svg version="1.1" id="Layer_1" xmlns="http://www.w3.org/2000/svg" xmlns:xlink="http://www.w3.org/1999/xlink" x="0px" y="0px"
	 viewBox="0 0 600 400" style="enable-background:new 0 0 600 400;" xml:space="preserve">
<g>
	<path d="M159.9,79.2V28.6l2.6-2.9h-5.3c-3.4,0-5.4,1-5.8,3.1h-1.9l-4.8-7.8c0.7-1.2,1.6-2.3,2.6-3.2c1.1-1,2.1-1.4,3.1-1.4h22.3
		c3.4,0,5.4-1.1,5.8-3.1h1.9l4.8,7.8c-0.7,1.2-1.6,2.3-2.6,3.2c-1.1,1-2.1,1.4-3.1,1.4H170v48.5c0,2.4,0.2,4,0.7,5.1
		c0.4,1,1.4,1.5,2.8,1.5v3L156.2,92l-1.4-3.1c1.2,0,2.4-0.8,3.6-2.5C159.4,84.9,159.9,82.5,159.9,79.2L159.9,79.2z"/>
	<path d="M184.6,82.4V35.2c0-1.7-0.2-2.9-0.8-3.7c-0.5-0.7-1.4-1.1-2.6-1.1v-2.7c7.3-4.3,13.9-8.4,19.6-12.2l1.4,3.1
		c-0.6,0.3-1.4,0.9-2.4,1.9c-1,0.9-1.9,1.9-2.5,2.8c-1.7,2.4-2.5,5.2-2.5,8.2v8.1c5.8-3.4,9.2-5.1,10.1-5.1c1.8,0,3.5,1.3,5.2,3.8
		c1.6,2.5,2.4,5.3,2.4,8.4v28.1c0,3.5,1.4,5.6,4.1,6.2v2.1l-9.2,5.8c-1.2-0.6-2.4-1.5-3.5-2.8c-1.1-1.3-1.6-2.5-1.6-3.7V54.7
		c0-6.2-1-9.8-3-10.6c-1-0.4-2.5-0.6-4.6-0.6v31.2c0,3.9,1.1,6.1,3.5,6.6v2.1l-8.5,5.4c-1.2-0.6-2.4-1.5-3.5-2.8
		C185.2,84.8,184.6,83.6,184.6,82.4L184.6,82.4z"/>
	<path d="M232.5,78.1c0.9,1.1,1.9,1.6,2.9,1.6s2.2-0.5,3.4-1.4V48.6c0-3.9-1.2-6.1-3.5-6.6v-2.1l8.5-5.4c1.2,0.6,2.4,1.5,3.5,2.8
		s1.6,2.5,1.6,3.7v32.4c0,2.1,0.4,3.9,1.2,5.4s1.8,2.3,3,2.3v2.1c-0.4,0.1-3.5,2-9.2,5.8c-1.3-0.6-2.5-1.6-3.5-2.8s-1.6-2.4-1.6-3.6
		L228.2,89c-0.2-0.1-0.4-0.3-0.8-0.5c-0.3-0.2-0.9-0.7-1.7-1.4c-0.8-0.7-1.5-1.5-2.2-2.3c-1.7-2.1-2.5-4.5-2.5-7.2V48.6
		c0-3.5-1.4-5.6-4.1-6.2v-2.1l9.2-5.8c1.2,0.6,2.4,1.5,3.5,2.8c1.1,1.3,1.6,2.5,1.6,3.7v33.1C231.2,75.7,231.6,77.1,232.5,78.1
		L232.5,78.1z"/>
	<path d="M257.4,82.4V50.1c0-2.1-0.4-3.9-1.2-5.4c-0.8-1.5-1.8-2.3-3-2.3v-2.1c0.4-0.1,3.5-2,9.2-5.8c0.4,0.1,0.9,0.3,1.4,0.5
		c0.6,0.2,1.3,0.8,2.2,1.9s1.4,2.2,1.4,3.5c0.3-0.2,1.3-0.8,2.9-1.8c4.2-2.7,6.6-4,7.4-4c1.8,0,3.5,1.3,5.1,4
		c1.6,2.7,2.4,5.1,2.4,7.3v28.9c0,3.5,1.4,5.6,4.1,6.2v2.1l-9.2,5.8c-1.2-0.6-2.4-1.5-3.5-2.8c-1.1-1.3-1.6-2.5-1.6-3.7V54.8
		c0-3.6-0.4-6.3-1.1-8.2c-0.7-1.9-2-2.8-3.8-2.8l-2.8,0.6v30.5c0,3.9,1.1,6.1,3.5,6.6v2.1l-8.5,5.4c-1.2-0.6-2.4-1.5-3.5-2.8
		C257.9,84.8,257.3,83.6,257.4,82.4L257.4,82.4z"/>
	<path d="M309.6,15.4c1.5,0,3.9,4.2,7.2,12.5s4.9,14.1,4.9,17.3v29.1c0,1.5,0.4,2.9,1.1,4.3c0.7,1.4,1.7,2.2,3,2.4v2.1
		c-0.4,0.1-3.5,2-9.2,5.8c-1.3-0.6-2.5-1.6-3.5-2.8s-1.6-2.4-1.6-3.5c-6,4.2-9.5,6.3-10.6,6.3c-0.4,0-1.1-0.5-2.2-1.5
		c-1.1-1-2.2-2.4-3.3-4.3c-1.1-1.9-1.6-3.8-1.6-5.8V43.3c0-0.6,4.8-2.8,14.3-6.6c-2-5-3.7-8.6-4.9-10.6s-2.5-3.1-3.6-3.1h-2.8v-2.9
		C302.9,17,307.3,15.4,309.6,15.4L309.6,15.4z M308.2,80.2c1.1,0,2.2-0.5,3.3-1.5V45.4c0-0.4-0.2-1.2-0.7-2.4s-0.8-1.9-1.1-1.9
		c-1.6,0-3.3,0.6-5,1.7l-0.9,0.6v29.7C303.8,77.8,305.3,80.2,308.2,80.2L308.2,80.2z"/>
	<path d="M350.8,34.5c0.3,0,1,0.5,2.1,1.5c1.1,1,2.2,2.4,3.4,4.1s1.7,3.5,1.7,5.1v16c0,1.2-1.5,2.5-4.5,4.2c-3,1.7-5.9,3-8.7,4.1
		c-2.8,1.1-4.3,1.6-4.5,1.6c0,4.9,1.9,7.9,5.7,9.1c1.9,0.5,4.1,0.8,6.7,0.8v2.8c-9.2,3.5-14.2,5.2-14.8,5.2c-1.7,0-3.4-1.3-5.2-4.1
		c-1.8-2.7-2.6-5.9-2.6-9.5V43.3c0-0.4,3.2-2,9.6-4.7C346.1,35.9,349.8,34.5,350.8,34.5L350.8,34.5z M346.7,45.2
		c-0.7-1.2-1.7-1.9-2.8-1.9s-2.4,0.5-3.7,1.4v22.1c5.1-1.6,7.6-5,7.6-10.3v-6.8C347.8,47.9,347.4,46.4,346.7,45.2L346.7,45.2z"/>
	<path d="M361.8,40.2l9.3-5.7c0.4,0.1,0.9,0.3,1.4,0.5c0.5,0.2,1.3,0.8,2.2,1.9c0.9,1,1.4,2.2,1.4,3.4c0.3-0.1,1.6-1.1,4-3
		c2.4-1.9,3.9-2.8,4.6-2.8c1.8,0,3.5,1.3,5.1,4c1.6,2.7,2.4,5.1,2.4,7.3v4.7l-8.7,5.5l-1.4-1.3c0-5.3-0.5-8.4-1.4-9.2
		c-1-0.8-2.5-1.2-4.6-1.2v30.5c0,3.9,1.1,6.1,3.5,6.6v2.1l-8.5,5.4c-1.2-0.6-2.4-1.5-3.5-2.8c-1.1-1.3-1.6-2.5-1.6-3.7V50.7
		c0-2.8-0.4-4.9-1.3-6.3c-0.9-1.4-1.8-2.1-2.8-2.1V40.2L361.8,40.2z"/>
	<path d="M402,68c-1.4,0-2.6-1.2-3.6-3.6c-1-2.4-1.5-5.4-1.5-8.9V45.2c0-1.2,3-3.3,8.9-6.2s9.3-4.4,10.2-4.4c0.5,0,1,0.3,1.4,1
		s0.7,1.2,0.9,1.6c0.2,0.4,0.6,1.1,1.1,2.1c0.5,1,0.9,1.8,1.2,2.4c0.7,1.5,1.7,2.3,2.8,2.3v1.9c-0.9,0.5-2.1,1.1-3.5,2
		c-3.6,2.2-5.5,3.3-5.8,3.3c-0.9,0-1.8-1.6-2.8-4.7s-1.9-4.7-2.7-4.7c-1,0-1.5,1-1.5,2.9v11.8c0,2.5,0.5,3.8,1.5,3.8
		c0.2,0,2-0.8,5.2-2.5c3.3-1.7,5.2-2.5,5.9-2.5c1.4,0,2.5,1.2,3.6,3.7s1.6,5.6,1.6,9.4v10.8c0,1.2-3.2,3.3-9.7,6.2
		c-6.5,3-10.2,4.4-11.1,4.4c-0.4,0-0.8-0.4-1.1-1.2c-0.4-0.8-0.9-2-1.5-3.7c-0.6-1.7-1.3-3.1-1.9-4.2c-0.7-1.5-1.7-2.3-2.8-2.3v-1.9
		c0.9-0.4,2.1-1.1,3.6-2c3.5-2.2,5.5-3.3,5.8-3.3c0.9,0,1.9,1.9,3.2,5.6c1.3,3.8,2.3,5.6,3.1,5.6c0.6,0,1.1-0.2,1.6-0.8
		c0.5-0.5,0.8-1.2,0.8-2.1V67.8c0-2.9-0.7-4.3-2.1-4.3c-0.5,0-2.2,0.8-5.3,2.3C404.2,67.3,402.4,68,402,68L402,68z"/>
	<path d="M442.5,24.6V36h4.3l-0.9,4.7h-3.5v34.2c0,3.9,1.1,6.1,3.5,6.6v2.1l-8.5,5.4c-1.2-0.6-2.4-1.5-3.5-2.8
		c-1.1-1.3-1.6-2.5-1.6-3.7V40.7h-3.5l0.9-4c1.7,0,3.7-1.3,6.1-3.9s3.8-5.3,4.3-8.3L442.5,24.6L442.5,24.6z"/>
	<path d="M451,75V43.3c0-0.4,3.2-2,9.6-4.7c6.4-2.7,10.1-4.1,11.1-4.1s2.4,1.3,4.4,3.9c1.9,2.6,2.9,5,2.9,7.1v34.6
		c0,0.5-3.1,2.1-9.3,4.8c-6.2,2.7-10,4.1-11.3,4.1s-3-1.4-4.7-4.1C451.8,82.1,451,78.8,451,75L451,75z M465.4,80.2
		c1.1,0,2.2-0.5,3.3-1.5V50.5c0-4.7-1.4-7.1-4.3-7.1c-1.1,0-2.2,0.5-3.3,1.4v28.3C461.1,77.8,462.5,80.2,465.4,80.2L465.4,80.2z"/>
	<path d="M487.4,82.4V50.1c0-2.1-0.4-3.9-1.2-5.4c-0.8-1.5-1.8-2.3-3-2.3v-2.1c0.4-0.1,3.5-2,9.2-5.8c0.4,0.1,0.9,0.3,1.4,0.5
		c0.6,0.2,1.3,0.8,2.2,1.9s1.4,2.2,1.4,3.5c0.3-0.2,1.3-0.8,2.9-1.8c4.2-2.7,6.6-4,7.4-4c1.8,0,3.5,1.3,5.1,4
		c1.6,2.7,2.4,5.1,2.4,7.3v28.9c0,3.5,1.4,5.6,4.1,6.2v2.1l-9.2,5.8c-1.2-0.6-2.4-1.5-3.5-2.8c-1.1-1.3-1.6-2.5-1.6-3.7V54.8
		c0-3.6-0.4-6.3-1.1-8.2c-0.7-1.9-2-2.8-3.8-2.8l-2.8,0.6v30.5c0,3.9,1.1,6.1,3.5,6.6v2.1l-8.5,5.4c-1.2-0.6-2.4-1.5-3.5-2.8
		C487.9,84.8,487.4,83.6,487.4,82.4L487.4,82.4z"/>
	<path d="M544.5,34.5c0.3,0,1,0.5,2.1,1.5c1.1,1,2.2,2.4,3.4,4.1s1.7,3.5,1.7,5.1v16c0,1.2-1.5,2.5-4.5,4.2c-3,1.7-5.9,3-8.7,4.1
		c-2.8,1.1-4.3,1.6-4.5,1.6c0,4.9,1.9,7.9,5.7,9.1c1.9,0.5,4.1,0.8,6.7,0.8v2.8c-9.2,3.5-14.2,5.2-14.8,5.2c-1.7,0-3.4-1.3-5.2-4.1
		c-1.8-2.7-2.6-5.9-2.6-9.5V43.3c0-0.4,3.2-2,9.6-4.7S543.5,34.5,544.5,34.5L544.5,34.5z M540.4,45.2c-0.7-1.2-1.7-1.9-2.8-1.9
		s-2.4,0.5-3.7,1.4v22.1c5.1-1.6,7.6-5,7.6-10.3v-6.8C541.5,47.9,541.1,46.4,540.4,45.2L540.4,45.2z"/>
	<path d="M0,265.5V39.2c0-2,14.3-9,43-21.1S88,0,92.3,0s10.7,5.8,19.4,17.5c8.7,11.6,13,22.1,13,31.5v239.1c0,2.3-10.2,8-30.5,17
		c15.8,38,33,57,51.6,57v12.3c-22.4,17-37.2,25.5-44.5,25.5c-10.1,0-25.1-26.4-45.2-79.1c-11.3,4.5-18.7,6.8-22.2,6.8
		c-6.8,0-14.1-6.1-22-18.3C4,297.2,0,282.5,0,265.5C0,265.5,0,265.5,0,265.5z M64.4,288.5c4.8,0,9.7-2.3,14.7-6.8V71.1
		c0-21-6.4-31.5-19.2-31.5c-5,0-9.9,2.1-14.7,6.4V257C45.2,278,51.6,288.5,64.4,288.5L64.4,288.5z"/>
	<path d="M201.5,287.6c3.2,3.9,6.8,5.8,10.8,5.8s8.1-1.8,12.5-5.3V178.4c0-14.4-4.3-22.5-12.8-24.4v-7.8l31.6-20.1
		c4.6,2.1,8.9,5.6,12.8,10.4c4,4.8,5.9,9.4,5.9,13.6v119.6c0,7.8,1.5,14.5,4.4,20.1c2.9,5.6,6.6,8.5,10.9,8.5v7.8
		c-1.5,0.2-12.8,7.4-34.1,21.5c-4.8-2.4-9.1-5.8-13-10.4s-5.8-9-5.8-13.2l-39.1,23.6c-0.6-0.5-1.6-1.1-2.8-1.9
		c-1.2-0.8-3.4-2.6-6.4-5.3c-3-2.7-5.7-5.6-8-8.6c-6.2-7.8-9.4-16.6-9.4-26.5V178.4c0-12.9-5.1-20.6-15.3-22.9v-7.8l34.1-21.5
		c4.6,2.1,8.9,5.6,12.8,10.4c3.9,4.8,5.9,9.4,5.9,13.6v122.5C196.7,278.7,198.3,283.7,201.5,287.6L201.5,287.6z"/>
	<path d="M370,126.5c1,0,3.6,1.8,7.8,5.5c4.2,3.6,8.3,8.7,12.5,15.2c4.2,6.5,6.2,12.8,6.2,18.9v59.3c0,4.2-5.5,9.4-16.6,15.5
		s-21.7,11.1-32,15c-10.3,3.9-15.9,5.8-16.7,5.8c0,18.1,7,29.3,20.9,33.5c6.9,1.9,15.1,2.8,24.7,2.8v10.2
		c-34.2,12.9-52.4,19.4-54.7,19.4c-6.2,0-12.6-5-19.1-15s-9.7-21.7-9.7-35.1V159c0-1.6,11.9-7.5,35.6-17.5
		C352.8,131.5,366.5,126.5,370,126.5L370,126.5z M355,165.9c-2.7-4.6-6.1-6.9-10.3-6.9s-8.8,1.8-13.8,5.3v81.5
		c18.8-5.9,28.1-18.6,28.1-38.1v-25.1C359.1,176,357.8,170.5,355,165.9z"/>
	<path d="M434.4,250.4c-5.2,0-9.7-4.5-13.4-13.4c-3.8-8.9-5.6-19.9-5.6-32.8V166c0-4.5,10.9-12.2,32.8-23.1s34.5-16.4,37.8-16.4
		c1.9,0,3.5,1.2,5,3.7c1.5,2.5,2.6,4.5,3.4,6c0.8,1.5,2.1,4.1,3.9,7.8c1.8,3.6,3.3,6.6,4.5,9c2.7,5.6,6.1,8.5,10.3,8.5v7.1
		c-3.3,1.6-7.7,4.1-13.1,7.4c-13.3,8.2-20.5,12.4-21.6,12.4c-3.1,0-6.5-5.8-10.1-17.3c-3.6-11.5-6.9-17.3-9.8-17.3
		c-3.8,0-5.6,3.5-5.6,10.6v43.4c0,9.4,1.9,14.1,5.6,14.1c0.8,0,7.3-3.1,19.4-9.2c12.1-6.1,19.4-9.2,21.9-9.2c5,0,9.4,4.5,13.3,13.6
		c3.8,9.1,5.8,20.6,5.8,34.8v39.9c0,4.5-11.9,12.2-35.8,23.1c-23.9,10.9-37.5,16.4-41.1,16.4c-1.5,0-2.9-1.5-4.2-4.4
		c-1.4-2.9-3.2-7.5-5.6-13.6c-2.4-6.1-4.7-11.3-7-15.5c-2.7-5.6-6.1-8.5-10.3-8.5v-7.1c3.3-1.6,7.8-4.1,13.4-7.4
		c13.1-8.2,20.2-12.4,21.2-12.4c3.1,0,7,6.9,11.7,20.8s8.5,20.8,11.4,20.8c2.1,0,4.1-0.9,5.9-2.8c1.9-1.9,2.8-4.5,2.8-7.8v-44.1
		c0-10.6-2.6-15.9-7.8-15.9c-1.7,0-8.2,2.8-19.7,8.5C442.4,247.6,435.9,250.4,434.4,250.4L434.4,250.4z"/>
	<path d="M584.1,75v56.8H600l-3.1,17.3h-12.8v126.3c0,14.4,7.4,22.5,15.9,24.4v7.8L565.3,328c-4.6-2.1-8.9-5.9-12.8-10.8
		c-4-4.8-5.9-9.4-5.9-13.6V149.4h-12.8l3.1-14.8c6.2,0,14.1-4.5,22.7-14.3C573,105,573.6,85.8,575.3,75L584.1,75L584.1,75z"/>
	<path d="M169.4,378.7c-1.1,0-2-0.8-2.8-2.5c-0.8-1.6-1.2-3.6-1.2-6v-13.5c0-0.8,2.3-2.2,6.8-4.2c4.5-2,7.1-3,7.8-3
		c0.5,0,1.3,0.9,2.2,2.6c0.2,0.4,0.5,1,0.9,1.7c0.4,0.7,0.7,1.3,1,1.8c0.6,1,1.3,1.6,2.1,1.6v1.3c-0.7,0.3-1.6,0.8-2.8,1.4
		c-2.7,1.5-4.2,2.3-4.4,2.3c-0.6,0-1.5-1.3-2.4-3.8c-1-2.5-1.8-3.8-2.4-3.8c-0.8,0-1.2,0.6-1.2,1.9v14.4c0,1.7,0.4,2.6,1.2,2.6
		c0.2,0,1.5-0.6,4-1.7c2.5-1.1,4-1.7,4.5-1.7c1,0,2,0.8,2.8,2.5c0.8,1.7,1.2,3.8,1.2,6.4v13.8c0,0.8-2.5,2.2-7.4,4.2
		c-4.9,2-7.8,3-8.5,3c-0.3,0-0.6-0.4-1-1.1c-0.4-0.7-0.9-1.8-1.5-3.1c-0.6-1.4-1.2-2.5-1.7-3.4c-0.5-0.9-1.2-1.4-2-1.4v-1.3
		c0.7-0.3,1.6-0.8,2.7-1.4c2.8-1.5,4.3-2.3,4.5-2.3c0.6,0,1.6,1.5,2.8,4.5c1.2,3,2.1,4.5,2.7,4.5c0.4,0,0.8-0.2,1.2-0.5
		c0.4-0.3,0.6-0.8,0.6-1.4v-14.6c0-1.9-0.5-2.9-1.6-2.9c-0.3,0-1.7,0.5-4.1,1.6C171.1,378.2,169.7,378.7,169.4,378.7L169.4,378.7z"
		/>
	<path d="M202,368.7c-0.4,0-0.8,0.2-1.2,0.6v17.9c0,3.3,1.4,5.4,4.3,6.2c1.5,0.3,3.2,0.5,5.2,0.5v1.9c-7.1,2.4-10.9,3.6-11.3,3.6
		c-1.3,0-2.6-0.9-4-2.8c-1.3-1.8-2-4-2-6.4v-21.8c0-0.3,2.5-1.4,7.4-3.2c4.9-1.8,7.8-2.8,8.5-2.8c0.3,0,0.6,0.6,0.9,1.9
		c0.3,1.3,0.7,2.8,1.2,4.5c0.5,1.8,0.9,3.1,1.4,3.9c0.5,0.8,1.4,1.3,2.8,1.3v1.3c-1,0.4-2.6,1.2-4.8,2.3c-2.3,1.1-3.5,1.7-3.7,1.7
		c-0.6,0-1.5-1.8-2.5-5.3C203.4,370.5,202.6,368.7,202,368.7L202,368.7z"/>
	<path d="M235.1,362.4c0.2,0,0.8,0.3,1.6,1c0.9,0.7,1.7,1.6,2.6,2.8c0.9,1.2,1.3,2.3,1.3,3.5v10.9c0,0.8-1.1,1.7-3.4,2.9
		c-2.3,1.1-4.5,2-6.6,2.8s-3.3,1.1-3.5,1.1c0,3.3,1.4,5.4,4.3,6.2c1.4,0.3,3.1,0.5,5.1,0.5v1.9c-7.1,2.4-10.9,3.6-11.3,3.6
		c-1.3,0-2.6-0.9-4-2.8c-1.3-1.8-2-4-2-6.4v-21.8c0-0.3,2.5-1.4,7.4-3.2C231.5,363.3,234.3,362.4,235.1,362.4L235.1,362.4z
		 M231.9,369.6c-0.6-0.8-1.3-1.3-2.1-1.3c-0.9,0-1.8,0.3-2.9,1v15c3.9-1.1,5.8-3.4,5.8-7v-4.6C232.8,371.5,232.5,370.5,231.9,369.6
		L231.9,369.6z"/>
	<path d="M246.7,394.9v-22c0-1.4-0.3-2.7-0.9-3.7c-0.6-1-1.4-1.6-2.3-1.6v-1.4c0.3,0,2.7-1.4,7.1-4c0.3,0.1,0.7,0.2,1.1,0.4
		c0.4,0.2,1,0.6,1.7,1.3s1.1,1.5,1.1,2.4c0.3-0.1,1-0.5,2.2-1.2c3.2-1.8,5.1-2.7,5.7-2.7c1.4,0,2.7,0.9,3.9,2.7
		c1.2,1.8,1.8,3.5,1.8,5v19.6c0,2.4,1.1,3.8,3.2,4.2v1.4l-7.1,4c-1-0.4-1.8-1-2.7-1.9c-0.8-0.9-1.2-1.7-1.2-2.5v-18.8
		c0-2.4-0.3-4.3-0.8-5.5c-0.5-1.3-1.5-1.9-2.9-1.9l-2.1,0.4v20.7c0,2.6,0.9,4.1,2.7,4.5v1.4l-6.5,3.7c-1-0.4-1.8-1-2.7-1.9
		S246.7,395.7,246.7,394.9L246.7,394.9z"/>
	<path d="M294.7,371v18.3c0,1.6,0.3,2.7,0.8,3.3c0.5,0.6,1.3,1.1,2.4,1.3v1.4l-7.1,4c-1-0.4-1.8-1-2.7-1.9c-0.8-0.9-1.2-1.7-1.2-2.4
		l-8.1,4.3c-0.1-0.1-0.3-0.2-0.6-0.4c-0.3-0.2-0.7-0.5-1.3-1c-0.6-0.5-1.2-1-1.7-1.6c-1.3-1.4-1.9-3-1.9-4.9V381
		c0-0.7,1.1-1.6,3.4-2.7c2.2-1.1,4.5-2,6.7-2.7l3.4-1.1c0-2.5-0.6-4.2-1.9-5.2s-3.8-1.5-7.5-1.5V366c6.7-2.4,10.5-3.6,11.3-3.6
		c1.4,0,2.8,0.9,4.1,2.8C294,367.1,294.7,369,294.7,371z M282.1,392c0.7,0.7,1.4,1.1,2.2,1.1c0.8,0,1.7-0.3,2.6-1v-14.6
		c-1.1,0.4-1.9,0.7-2.4,1c-0.5,0.3-1.1,0.7-1.7,1.2c-1.1,1-1.7,2.8-1.7,5.4v4.2C281.1,390.4,281.4,391.3,282.1,392z"/>
	<path d="M298,366.3l7.1-3.9c0.3,0.1,0.7,0.2,1.1,0.4c0.4,0.2,1,0.6,1.7,1.3c0.7,0.7,1.1,1.5,1.1,2.3c0.2-0.1,1.2-0.8,3.1-2
		s3-1.9,3.5-1.9c1.4,0,2.7,0.9,3.9,2.7c1.2,1.8,1.8,3.5,1.8,5v3.2l-6.7,3.8l-1.1-0.9c0-3.6-0.3-5.7-1-6.2c-0.8-0.6-1.9-0.8-3.5-0.8
		v20.7c0,2.6,0.9,4.1,2.7,4.5v1.4l-6.5,3.7c-1-0.4-1.8-1-2.7-1.9s-1.2-1.7-1.2-2.5v-21.5c0-1.9-0.3-3.3-1-4.3
		c-0.7-1-1.4-1.4-2.2-1.4L298,366.3L298,366.3z"/>
	<path d="M333.5,366.8v22.9c0,2.6,0.9,4.1,2.7,4.5v1.4l-6.5,3.7c-1-0.4-1.8-1-2.7-1.9s-1.2-1.7-1.2-2.5V372c0-2.6-0.9-4.1-2.7-4.5
		v-1.4l6.5-3.7c1,0.4,1.8,1,2.7,1.9C333.1,365.2,333.5,366.1,333.5,366.8L333.5,366.8z M324.8,354.3v-4c0-0.1,0.9-0.5,2.7-1.2
		c1.8-0.7,2.8-1,3.1-1c0.3,0,0.7,0.4,1.2,1.1c0.5,0.7,0.8,1.5,0.8,2.3v4.7c0,0.1-0.9,0.5-2.6,1.2c-1.7,0.7-2.8,1-3.2,1
		c-0.4,0-0.8-0.4-1.3-1.1C325,356.6,324.8,355.6,324.8,354.3L324.8,354.3z"/>
	<path d="M340,389.9v-21.5c0-0.3,2.5-1.4,7.4-3.2c4.9-1.8,7.8-2.8,8.5-2.8c0.7,0,1.8,0.9,3.3,2.7c1.5,1.8,2.2,3.4,2.2,4.8v23.5
		c0,0.3-2.4,1.4-7.1,3.3s-7.6,2.8-8.7,2.8c-1.1,0-2.3-0.9-3.6-2.8C340.7,394.7,340,392.5,340,389.9L340,389.9z M351.1,393.4
		c0.8,0,1.7-0.3,2.5-1v-19.1c0-3.2-1.1-4.8-3.3-4.8c-0.9,0-1.7,0.3-2.5,1v19.2C347.8,391.8,348.9,393.4,351.1,393.4z"/>
	<path d="M391.3,393.4c0.8,0,1.7-0.3,2.5-1V384c0-2.6-0.9-4.1-2.7-4.5v-1.4l6.5-3.7c0.9,0.4,1.8,1,2.7,1.9c0.9,0.9,1.3,1.7,1.3,2.5
		v14.5c0,0.3-2.4,1.4-7.1,3.3s-7.6,2.8-8.7,2.8c-1.1,0-2.3-0.9-3.6-2.8c-1.4-1.9-2-4.1-2-6.7v-34.5c0-0.3,2.5-1.4,7.4-3.2
		c4.9-1.8,7.8-2.8,8.5-2.8c0.3,0,0.6,0.6,0.9,1.9s0.7,2.8,1.2,4.5c0.5,1.8,0.9,3.1,1.4,3.9c0.5,0.8,1.4,1.3,2.8,1.3v1.3
		c-1,0.4-2.6,1.2-4.8,2.3c-2.3,1.1-3.5,1.7-3.7,1.7c-0.6,0-1.5-1.8-2.5-5.3c-1-3.5-1.8-5.3-2.4-5.3c-0.4,0-0.8,0.2-1.2,0.6v32.2
		C388,391.8,389.1,393.4,391.3,393.4L391.3,393.4z"/>
	<path d="M423.4,362.4c0.2,0,0.8,0.3,1.6,1c0.9,0.7,1.7,1.6,2.6,2.8c0.9,1.2,1.3,2.3,1.3,3.5v10.9c0,0.8-1.1,1.7-3.4,2.9
		c-2.3,1.1-4.5,2-6.6,2.8c-2.1,0.7-3.3,1.1-3.5,1.1c0,3.3,1.4,5.4,4.3,6.2c1.4,0.3,3.1,0.5,5.1,0.5v1.9c-7.1,2.4-10.9,3.6-11.3,3.6
		c-1.3,0-2.6-0.9-4-2.8c-1.3-1.8-2-4-2-6.4v-21.8c0-0.3,2.5-1.4,7.4-3.2C419.8,363.3,422.7,362.4,423.4,362.4L423.4,362.4z
		 M420.3,369.6c-0.6-0.8-1.3-1.3-2.1-1.3c-0.9,0-1.8,0.3-2.9,1v15c3.9-1.1,5.8-3.4,5.8-7v-4.6C421.1,371.5,420.8,370.5,420.3,369.6z
		"/>
	<path d="M435.1,394.9v-22c0-1.4-0.3-2.7-0.9-3.7c-0.6-1-1.4-1.6-2.3-1.6v-1.4c0.3,0,2.7-1.4,7.1-4c0.3,0.1,0.7,0.2,1.1,0.4
		c0.4,0.2,1,0.6,1.7,1.3s1.1,1.5,1.1,2.4c0.3-0.1,1-0.5,2.2-1.2c3.2-1.8,5.1-2.7,5.7-2.7c1.4,0,2.7,0.9,3.9,2.7
		c1.2,1.8,1.8,3.5,1.8,5v19.6c0,2.4,1.1,3.8,3.2,4.2v1.4l-7.1,4c-1-0.4-1.8-1-2.7-1.9c-0.8-0.9-1.2-1.7-1.2-2.5v-18.8
		c0-2.4-0.3-4.3-0.8-5.5c-0.5-1.3-1.5-1.9-2.9-1.9l-2.1,0.4v20.7c0,2.6,0.9,4.1,2.7,4.5v1.4l-6.5,3.7c-1-0.4-1.8-1-2.7-1.9
		S435.1,395.7,435.1,394.9L435.1,394.9z"/>
	<path d="M478.8,362.4c0.2,0,0.8,0.3,1.6,1c0.9,0.7,1.7,1.6,2.6,2.8c0.9,1.2,1.3,2.3,1.3,3.5v10.9c0,0.8-1.1,1.7-3.4,2.9
		c-2.3,1.1-4.5,2-6.6,2.8c-2.1,0.7-3.3,1.1-3.5,1.1c0,3.3,1.4,5.4,4.3,6.2c1.4,0.3,3.1,0.5,5.1,0.5v1.9c-7.1,2.4-10.9,3.6-11.3,3.6
		c-1.3,0-2.6-0.9-4-2.8c-1.3-1.8-2-4-2-6.4v-21.8c0-0.3,2.5-1.4,7.4-3.2C475.2,363.3,478,362.4,478.8,362.4L478.8,362.4z
		 M475.7,369.6c-0.6-0.8-1.3-1.3-2.1-1.3c-0.9,0-1.8,0.3-2.9,1v15c3.9-1.1,5.8-3.4,5.8-7v-4.6C476.5,371.5,476.2,370.5,475.7,369.6z
		"/>
	<path d="M487.3,366.3l7.1-3.9c0.3,0.1,0.7,0.2,1.1,0.4c0.4,0.2,1,0.6,1.7,1.3c0.7,0.7,1.1,1.5,1.1,2.3c0.2-0.1,1.2-0.8,3.1-2
		s3-1.9,3.5-1.9c1.4,0,2.7,0.9,3.9,2.7c1.2,1.8,1.8,3.5,1.8,5v3.2l-6.7,3.8l-1.1-0.9c0-3.6-0.3-5.7-1-6.2c-0.8-0.6-1.9-0.8-3.5-0.8
		v20.7c0,2.6,0.9,4.1,2.7,4.5v1.4l-6.5,3.7c-1-0.4-1.8-1-2.7-1.9s-1.2-1.7-1.2-2.5v-21.5c0-1.9-0.3-3.3-1-4.3
		c-0.7-1-1.4-1.4-2.2-1.4L487.3,366.3L487.3,366.3z"/>
	<path d="M531.3,371v18.3c0,1.6,0.3,2.7,0.8,3.3c0.5,0.6,1.3,1.1,2.4,1.3v1.4l-7.1,4c-1-0.4-1.8-1-2.7-1.9c-0.8-0.9-1.2-1.7-1.2-2.4
		l-8.1,4.3c-0.1-0.1-0.3-0.2-0.6-0.4c-0.3-0.2-0.7-0.5-1.3-1c-0.6-0.5-1.2-1-1.7-1.6c-1.3-1.4-1.9-3-1.9-4.9V381
		c0-0.7,1.1-1.6,3.4-2.7c2.2-1.1,4.5-2,6.7-2.7l3.4-1.1c0-2.5-0.6-4.2-1.9-5.2s-3.8-1.5-7.5-1.5V366c6.7-2.4,10.5-3.6,11.3-3.6
		c1.4,0,2.8,0.9,4.1,2.8C530.6,367.1,531.3,369,531.3,371L531.3,371z M518.7,392c0.7,0.7,1.4,1.1,2.2,1.1c0.8,0,1.7-0.3,2.6-1v-14.6
		c-1.1,0.4-1.9,0.7-2.4,1c-0.5,0.3-1.1,0.7-1.7,1.2c-1.1,1-1.7,2.8-1.7,5.4v4.2C517.7,390.4,518,391.3,518.7,392L518.7,392z"/>
	<path d="M545.5,355.7v7.7h3.3l-0.6,3.2h-2.7v23.2c0,2.6,0.9,4.1,2.7,4.5v1.4l-6.5,3.7c-1-0.4-1.8-1-2.7-1.9s-1.2-1.7-1.2-2.5v-28.3
		h-2.7l0.6-2.7c1.3,0,2.9-0.9,4.7-2.6c1.8-1.7,2.9-3.6,3.3-5.6L545.5,355.7L545.5,355.7z"/>
	<path d="M552,389.9v-21.5c0-0.3,2.5-1.4,7.4-3.2c4.9-1.8,7.8-2.8,8.5-2.8c0.7,0,1.8,0.9,3.3,2.7c1.5,1.8,2.2,3.4,2.2,4.8v23.5
		c0,0.3-2.4,1.4-7.1,3.3s-7.6,2.8-8.7,2.8c-1.1,0-2.3-0.9-3.6-2.8C552.7,394.7,552,392.5,552,389.9L552,389.9z M563.1,393.4
		c0.8,0,1.7-0.3,2.5-1v-19.1c0-3.2-1.1-4.8-3.3-4.8c-0.9,0-1.7,0.3-2.5,1v19.2C559.8,391.8,560.9,393.4,563.1,393.4z"/>
	<path d="M576.7,366.3l7.1-3.9c0.3,0.1,0.7,0.2,1.1,0.4c0.4,0.2,1,0.6,1.7,1.3c0.7,0.7,1.1,1.5,1.1,2.3c0.2-0.1,1.2-0.8,3.1-2
		s3-1.9,3.5-1.9c1.4,0,2.7,0.9,3.9,2.7c1.2,1.8,1.8,3.5,1.8,5v3.2l-6.7,3.8l-1.1-0.9c0-3.6-0.3-5.7-1-6.2c-0.8-0.6-1.9-0.8-3.5-0.8
		v20.7c0,2.6,0.9,4.1,2.7,4.5v1.4l-6.5,3.7c-1-0.4-1.8-1-2.7-1.9s-1.2-1.7-1.2-2.5v-21.5c0-1.9-0.3-3.3-1-4.3
		c-0.7-1-1.4-1.4-2.2-1.4L576.7,366.3L576.7,366.3z"/>
</g>
</svg>
